<?xml version="1.0" encoding="utf-8"?>
<!-- Svg Vector Icons : http://www.onlinewebfonts.com/icon -->
<!DOCTYPE svg PUBLIC "-//W3C//DTD SVG 1.1//EN" "http://www.w3.org/Graphics/SVG/1.1/DTD/svg11.dtd">
<svg version="1.1" xmlns="http://www.w3.org/2000/svg" xmlns:xlink="http://www.w3.org/1999/xlink" x="0px" y="0px" viewBox="0 0 256 256" enable-background="new 0 0 256 256" xml:space="preserve">
<metadata> Svg Vector Icons : http://www.onlinewebfonts.com/icon </metadata>
<g><g><g><path fill="#ffffff" d="M229.1,224.9V81.6c0-1.1-0.4-2.1-1.3-3c-0.8-0.8-1.8-1.3-3-1.3H81.6c-1.1,0-2.1,0.4-3,1.3c-0.8,0.8-1.3,1.8-1.3,3v143.3c0,1.1,0.4,2.1,1.3,3c0.8,0.8,1.8,1.3,3,1.3h143.3c1.1,0,2.1-0.4,3-1.3S229.1,226.1,229.1,224.9z M246,81.6v143.3c0,5.8-2.1,10.8-6.2,14.9s-9.1,6.2-14.9,6.2H81.6c-5.8,0-10.8-2.1-14.9-6.2c-4.1-4.1-6.2-9.1-6.2-14.9V81.6c0-5.8,2.1-10.8,6.2-14.9c4.1-4.1,9.1-6.2,14.9-6.2h143.3c5.8,0,10.8,2.1,14.9,6.2C243.9,70.9,246,75.8,246,81.6z M195.4,31.1v21.1h-16.9V31.1c0-1.1-0.4-2.1-1.3-3c-0.8-0.8-1.8-1.3-3-1.3H31.1c-1.1,0-2.1,0.4-3,1.3c-0.8,0.8-1.3,1.8-1.3,3v143.3c0,1.1,0.4,2.1,1.3,3c0.8,0.8,1.8,1.3,3,1.3h21.1v16.9H31.1c-5.8,0-10.8-2.1-14.9-6.2c-4.1-4.1-6.2-9.1-6.2-14.9V31.1c0-5.8,2.1-10.8,6.2-14.9S25.3,10,31.1,10h143.3c5.8,0,10.8,2.1,14.9,6.2C193.4,20.3,195.4,25.3,195.4,31.1L195.4,31.1z"/></g></g></g>
</svg>