<svg width="138" height="183" viewBox="0 0 138 183" fill="none" xmlns="http://www.w3.org/2000/svg">
<g filter="url(#filter0_dddiiii_137_4282)">
<path d="M70 79.5614C70 74.9007 70 72.5703 70.9529 70.9201C71.7889 69.4721 73.1084 68.3651 74.6796 67.7934C76.4703 67.1418 78.7653 67.5468 83.3551 68.3568L98.2449 70.9844C98.9841 71.1148 99.3537 71.1801 99.7258 71.2061C100.056 71.2292 100.388 71.2292 100.719 71.2061C101.091 71.1801 101.46 71.1148 102.2 70.9844L117.089 68.3568C121.679 67.5468 123.974 67.1418 125.765 67.7934C127.336 68.3651 128.656 69.4721 129.492 70.9201C130.444 72.5703 130.444 74.9007 130.444 79.5614V84.4386C130.444 89.0993 130.444 91.4297 129.492 93.0799C128.656 94.5279 127.336 95.6349 125.765 96.2066C123.974 96.8582 121.679 96.4532 117.089 95.6432L102.2 93.0156C101.46 92.8852 101.091 92.8199 100.719 92.7939C100.388 92.7708 100.056 92.7708 99.7258 92.7939C99.3537 92.8199 98.9841 92.8852 98.2449 93.0156L83.3551 95.6432C78.7653 96.4532 76.4703 96.8582 74.6796 96.2066C73.1084 95.6349 71.7889 94.5279 70.9529 93.0799C70 91.4297 70 89.0993 70 84.4386V79.5614Z" fill="url(#paint0_diamond_137_4282)"/>
</g>
<g filter="url(#filter1_iii_137_4282)">
<mask id="mask0_137_4282" style="mask-type:alpha" maskUnits="userSpaceOnUse" x="70" y="67" width="61" height="30">
<path d="M70 79.5614C70 74.9007 70 72.5703 70.9529 70.9201C71.7889 69.4721 73.1084 68.3651 74.6796 67.7934C76.4703 67.1418 78.7653 67.5468 83.3551 68.3568L98.2449 70.9844C98.9841 71.1148 99.3537 71.1801 99.7258 71.2061C100.056 71.2292 100.388 71.2292 100.719 71.2061C101.091 71.1801 101.46 71.1148 102.2 70.9844L117.089 68.3568C121.679 67.5468 123.974 67.1418 125.765 67.7934C127.336 68.3651 128.656 69.4721 129.492 70.9201C130.444 72.5703 130.444 74.9007 130.444 79.5614V84.4386C130.444 89.0993 130.444 91.4297 129.492 93.0799C128.656 94.5279 127.336 95.6349 125.765 96.2066C123.974 96.8582 121.679 96.4532 117.089 95.6432L102.2 93.0156C101.46 92.8852 101.091 92.8199 100.719 92.7939C100.388 92.7708 100.056 92.7708 99.7258 92.7939C99.3537 92.8199 98.9841 92.8852 98.2449 93.0156L83.3551 95.6432C78.7653 96.4532 76.4703 96.8582 74.6796 96.2066C73.1084 95.6349 71.7889 94.5279 70.9529 93.0799C70 91.4297 70 89.0993 70 84.4386V79.5614Z" fill="url(#paint1_radial_137_4282)"/>
</mask>
<g mask="url(#mask0_137_4282)">
<line x1="78.6" y1="66" x2="78.6" y2="97.9998" stroke="#202222" stroke-width="1.2"/>
<line x1="85.5333" y1="66" x2="85.5333" y2="97.9998" stroke="#202222" stroke-width="1.2"/>
<line x1="91.9333" y1="66" x2="91.9333" y2="97.9998" stroke="#202222" stroke-width="1.2"/>
<line x1="99.8667" y1="70.2666" x2="99.8667" y2="95.1554" stroke="#202222" stroke-width="4.26667"/>
<path d="M114.8 66L114.8 97.9998" stroke="#202222" stroke-width="1.2"/>
<path d="M108.4 66L108.4 97.9998" stroke="#202222" stroke-width="1.2"/>
<line x1="122.6" y1="66" x2="122.6" y2="97.9998" stroke="#202222" stroke-width="1.2"/>
</g>
</g>
<defs>
<filter id="filter0_dddiiii_137_4282" x="0.608179" y="0.529408" width="209.125" height="182.401" filterUnits="userSpaceOnUse" color-interpolation-filters="sRGB">
<feFlood flood-opacity="0" result="BackgroundImageFix"/>
<feColorMatrix in="SourceAlpha" type="matrix" values="0 0 0 0 0 0 0 0 0 0 0 0 0 0 0 0 0 0 127 0" result="hardAlpha"/>
<feOffset dx="7.11112" dy="14.2222"/>
<feGaussianBlur stdDeviation="36.0889"/>
<feComposite in2="hardAlpha" operator="out"/>
<feColorMatrix type="matrix" values="0 0 0 0 0 0 0 0 0 0 0 0 0 0 0 0 0 0 0.7 0"/>
<feBlend mode="normal" in2="BackgroundImageFix" result="effect1_dropShadow_137_4282"/>
<feColorMatrix in="SourceAlpha" type="matrix" values="0 0 0 0 0 0 0 0 0 0 0 0 0 0 0 0 0 0 127 0" result="hardAlpha"/>
<feOffset dx="-19.614" dy="-17.1622"/>
<feGaussianBlur stdDeviation="24.8889"/>
<feComposite in2="hardAlpha" operator="out"/>
<feColorMatrix type="matrix" values="0 0 0 0 1 0 0 0 0 1 0 0 0 0 1 0 0 0 0.11 0"/>
<feBlend mode="normal" in2="effect1_dropShadow_137_4282" result="effect2_dropShadow_137_4282"/>
<feColorMatrix in="SourceAlpha" type="matrix" values="0 0 0 0 0 0 0 0 0 0 0 0 0 0 0 0 0 0 127 0" result="hardAlpha"/>
<feOffset dx="-7.11112" dy="-3.55556"/>
<feGaussianBlur stdDeviation="6.22223"/>
<feComposite in2="hardAlpha" operator="out"/>
<feColorMatrix type="matrix" values="0 0 0 0 0 0 0 0 0 0 0 0 0 0 0 0 0 0 0.25 0"/>
<feBlend mode="normal" in2="effect2_dropShadow_137_4282" result="effect3_dropShadow_137_4282"/>
<feBlend mode="normal" in="SourceGraphic" in2="effect3_dropShadow_137_4282" result="shape"/>
<feColorMatrix in="SourceAlpha" type="matrix" values="0 0 0 0 0 0 0 0 0 0 0 0 0 0 0 0 0 0 127 0" result="hardAlpha"/>
<feOffset/>
<feGaussianBlur stdDeviation="65.7779"/>
<feComposite in2="hardAlpha" operator="arithmetic" k2="-1" k3="1"/>
<feColorMatrix type="matrix" values="0 0 0 0 0.262044 0 0 0 0 0.262044 0 0 0 0 0.262044 0 0 0 0.29 0"/>
<feBlend mode="normal" in2="shape" result="effect4_innerShadow_137_4282"/>
<feColorMatrix in="SourceAlpha" type="matrix" values="0 0 0 0 0 0 0 0 0 0 0 0 0 0 0 0 0 0 127 0" result="hardAlpha"/>
<feOffset dx="17.7778" dy="24.8889"/>
<feGaussianBlur stdDeviation="14.7556"/>
<feComposite in2="hardAlpha" operator="arithmetic" k2="-1" k3="1"/>
<feColorMatrix type="matrix" values="0 0 0 0 0.358773 0 0 0 0 0.358773 0 0 0 0 0.358773 0 0 0 0.25 0"/>
<feBlend mode="normal" in2="effect4_innerShadow_137_4282" result="effect5_innerShadow_137_4282"/>
<feColorMatrix in="SourceAlpha" type="matrix" values="0 0 0 0 0 0 0 0 0 0 0 0 0 0 0 0 0 0 127 0" result="hardAlpha"/>
<feOffset dx="-21.3334" dy="-21.3334"/>
<feGaussianBlur stdDeviation="42.6667"/>
<feComposite in2="hardAlpha" operator="arithmetic" k2="-1" k3="1"/>
<feColorMatrix type="matrix" values="0 0 0 0 0 0 0 0 0 0 0 0 0 0 0 0 0 0 0.37 0"/>
<feBlend mode="normal" in2="effect5_innerShadow_137_4282" result="effect6_innerShadow_137_4282"/>
<feColorMatrix in="SourceAlpha" type="matrix" values="0 0 0 0 0 0 0 0 0 0 0 0 0 0 0 0 0 0 127 0" result="hardAlpha"/>
<feOffset dx="3.55556" dy="3.55556"/>
<feComposite in2="hardAlpha" operator="arithmetic" k2="-1" k3="1"/>
<feColorMatrix type="matrix" values="0 0 0 0 1 0 0 0 0 1 0 0 0 0 1 0 0 0 0.04 0"/>
<feBlend mode="normal" in2="effect6_innerShadow_137_4282" result="effect7_innerShadow_137_4282"/>
</filter>
<filter id="filter1_iii_137_4282" x="78" y="67.4695" width="45.2" height="29.8978" filterUnits="userSpaceOnUse" color-interpolation-filters="sRGB">
<feFlood flood-opacity="0" result="BackgroundImageFix"/>
<feBlend mode="normal" in="SourceGraphic" in2="BackgroundImageFix" result="shape"/>
<feColorMatrix in="SourceAlpha" type="matrix" values="0 0 0 0 0 0 0 0 0 0 0 0 0 0 0 0 0 0 127 0" result="hardAlpha"/>
<feOffset dy="0.836751"/>
<feGaussianBlur stdDeviation="0.418375"/>
<feComposite in2="hardAlpha" operator="arithmetic" k2="-1" k3="1"/>
<feColorMatrix type="matrix" values="0 0 0 0 0 0 0 0 0 0 0 0 0 0 0 0 0 0 0.25 0"/>
<feBlend mode="normal" in2="shape" result="effect1_innerShadow_137_4282"/>
<feColorMatrix in="SourceAlpha" type="matrix" values="0 0 0 0 0 0 0 0 0 0 0 0 0 0 0 0 0 0 127 0" result="hardAlpha"/>
<feOffset dy="0.836751"/>
<feGaussianBlur stdDeviation="0.418375"/>
<feComposite in2="hardAlpha" operator="arithmetic" k2="-1" k3="1"/>
<feColorMatrix type="matrix" values="0 0 0 0 0 0 0 0 0 0 0 0 0 0 0 0 0 0 0.25 0"/>
<feBlend mode="normal" in2="effect1_innerShadow_137_4282" result="effect2_innerShadow_137_4282"/>
<feColorMatrix in="SourceAlpha" type="matrix" values="0 0 0 0 0 0 0 0 0 0 0 0 0 0 0 0 0 0 127 0" result="hardAlpha"/>
<feOffset dy="0.836751"/>
<feGaussianBlur stdDeviation="0.418375"/>
<feComposite in2="hardAlpha" operator="arithmetic" k2="-1" k3="1"/>
<feColorMatrix type="matrix" values="0 0 0 0 0 0 0 0 0 0 0 0 0 0 0 0 0 0 0.25 0"/>
<feBlend mode="normal" in2="effect2_innerShadow_137_4282" result="effect3_innerShadow_137_4282"/>
</filter>
<radialGradient id="paint0_diamond_137_4282" cx="0" cy="0" r="1" gradientUnits="userSpaceOnUse" gradientTransform="translate(100 84) rotate(180) scale(8 43.0042)">
<stop stop-color="#142333"/>
<stop offset="1" stop-color="#354556"/>
</radialGradient>
<radialGradient id="paint1_radial_137_4282" cx="0" cy="0" r="1" gradientUnits="userSpaceOnUse" gradientTransform="translate(92 85.5556) rotate(-180) scale(12 105.209)">
<stop stop-color="#142333"/>
<stop offset="1" stop-color="#2B3845"/>
</radialGradient>
</defs>
</svg>
