<svg width="350" height="249" viewBox="0 0 350 249" fill="none" xmlns="http://www.w3.org/2000/svg">
<rect width="265" height="149" fill="url(#paint0_linear_363_2189)"/>
<g filter="url(#filter0_dddiii_363_2189)">
<path d="M119.94 127C132.037 127 138.086 127 142.706 124.646C146.77 122.575 150.075 119.271 152.146 115.206C154.5 110.586 154.5 104.537 154.5 92.44V34.56C154.5 22.4629 154.5 16.4143 156.854 11.7938C158.925 7.72951 162.23 4.42513 166.294 2.35426C170.914 0 176.963 0 189.06 0H315.44C327.537 0 333.586 0 338.206 2.35426C342.27 4.42513 345.575 7.72951 347.646 11.7938C350 16.4143 350 22.4629 350 34.56V206.16C350 218.257 350 224.306 347.646 228.926C345.575 232.991 342.27 236.295 338.206 238.366C333.586 240.72 327.537 240.72 315.44 240.72H34.56C22.4629 240.72 16.4143 240.72 11.7938 238.366C7.72951 236.295 4.42513 232.991 2.35426 228.926C0 224.306 0 218.257 0 206.16V161.56C0 149.463 0 143.414 2.35426 138.794C4.42513 134.73 7.72951 131.425 11.7938 129.354C16.4143 127 22.4629 127 34.56 127L119.94 127Z" fill="#2B2E32"/>
<path d="M119.94 128.62H120.015C126 128.62 130.591 128.62 134.259 128.32C137.961 128.018 140.865 127.402 143.442 126.089C147.811 123.863 151.363 120.311 153.589 115.942C154.902 113.365 155.518 110.461 155.82 106.759C156.12 103.091 156.12 98.5004 156.12 92.5154V92.44V34.56C156.12 28.4847 156.121 24.0257 156.409 20.5051C156.695 17.0034 157.256 14.5731 158.298 12.5293C160.213 8.7698 163.27 5.71324 167.029 3.79769C169.073 2.75632 171.503 2.195 175.005 1.9089C178.526 1.62126 182.985 1.62 189.06 1.62H315.44C321.515 1.62 325.974 1.62126 329.495 1.9089C332.997 2.195 335.427 2.75632 337.471 3.79769C341.23 5.71324 344.287 8.7698 346.202 12.5293C347.244 14.5731 347.805 17.0034 348.091 20.5051C348.379 24.0257 348.38 28.4847 348.38 34.56V206.16C348.38 212.235 348.379 216.694 348.091 220.215C347.805 223.717 347.244 226.147 346.202 228.191C344.287 231.95 341.23 235.007 337.471 236.922C335.427 237.964 332.997 238.525 329.495 238.811C325.974 239.099 321.515 239.1 315.44 239.1H34.56C28.4847 239.1 24.0257 239.099 20.5051 238.811C17.0034 238.525 14.5731 237.964 12.5293 236.922C8.7698 235.007 5.71324 231.95 3.79769 228.191C2.75632 226.147 2.195 223.717 1.9089 220.215C1.62126 216.694 1.62 212.235 1.62 206.16V161.56C1.62 155.485 1.62126 151.026 1.9089 147.505C2.195 144.003 2.75632 141.573 3.79769 139.529C5.71325 135.77 8.7698 132.713 12.5293 130.798C14.5731 129.756 17.0034 129.195 20.5051 128.909C24.0257 128.621 28.4847 128.62 34.56 128.62L119.94 128.62Z" stroke="url(#paint1_linear_363_2189)" stroke-opacity="0.62" stroke-width="3.24"/>
</g>
<path d="M125.25 126.5C131.899 126.5 135.224 126.5 137.953 125.774C145.437 123.783 151.283 117.937 153.274 110.453C154 107.724 154 104.399 154 97.75C154 91.1009 154 87.7763 154.726 85.0475C156.717 77.5627 162.563 71.7168 170.047 69.7259C172.776 69 176.101 69 182.75 69H236.44C248.537 69 254.586 69 259.206 71.3543C263.271 73.4251 266.575 76.7295 268.646 80.7938C271 85.4143 271 91.4629 271 103.56V206.44C271 218.537 271 224.586 268.646 229.206C266.575 233.27 263.271 236.575 259.206 238.646C254.586 241 248.537 241 236.44 241H34.56C22.4629 241 16.4143 241 11.7938 238.646C7.72951 236.575 4.42513 233.27 2.35426 229.206C0 224.586 0 218.537 0 206.44V161.06C0 148.963 0 142.914 2.35426 138.294C4.42513 134.23 7.72951 130.925 11.7938 128.854C16.4143 126.5 22.4629 126.5 34.56 126.5H125.25Z" fill="url(#paint2_linear_363_2189)"/>
<path d="M125.25 128.12L125.578 128.12C131.916 128.12 135.434 128.12 138.369 127.34C146.415 125.199 152.699 118.915 154.84 110.869C155.62 107.934 155.62 104.416 155.62 98.0782V97.75C155.62 90.9973 155.634 87.9365 156.291 85.4639C158.133 78.5405 163.541 73.1331 170.464 71.2914C172.936 70.6337 175.997 70.62 182.75 70.62H236.44C242.515 70.62 246.974 70.6213 250.495 70.9089C253.997 71.195 256.427 71.7563 258.471 72.7977C262.23 74.7132 265.287 77.7698 267.202 81.5293C268.244 83.5731 268.805 86.0034 269.091 89.5051C269.379 93.0257 269.38 97.4847 269.38 103.56V206.44C269.38 212.515 269.379 216.974 269.091 220.495C268.805 223.997 268.244 226.427 267.202 228.471C265.287 232.23 262.23 235.287 258.471 237.202C256.427 238.244 253.997 238.805 250.495 239.091C246.974 239.379 242.515 239.38 236.44 239.38H34.56C28.4847 239.38 24.0257 239.379 20.5051 239.091C17.0034 238.805 14.5731 238.244 12.5293 237.202C8.7698 235.287 5.71324 232.23 3.79769 228.471C2.75632 226.427 2.195 223.997 1.9089 220.495C1.62126 216.974 1.62 212.515 1.62 206.44V161.06C1.62 154.985 1.62126 150.526 1.9089 147.005C2.195 143.503 2.75632 141.073 3.79769 139.029C5.71324 135.27 8.7698 132.213 12.5293 130.298C14.5731 129.256 17.0034 128.695 20.5051 128.409C24.0257 128.121 28.4847 128.12 34.56 128.12H125.25Z" stroke="url(#paint3_linear_363_2189)" stroke-opacity="0.62" stroke-width="3.24"/>
<g filter="url(#filter1_f_363_2189)">
<rect x="210" y="72" width="100" height="166" fill="#2B2F33"/>
</g>
<g opacity="0.6" filter="url(#filter2_i_363_2189)">
<path d="M175 124H331" stroke="#25272A" stroke-width="2" stroke-linecap="round"/>
</g>
<defs>
<filter id="filter0_dddiii_363_2189" x="-32" y="-35" width="422" height="316.72" filterUnits="userSpaceOnUse" color-interpolation-filters="sRGB">
<feFlood flood-opacity="0" result="BackgroundImageFix"/>
<feColorMatrix in="SourceAlpha" type="matrix" values="0 0 0 0 0 0 0 0 0 0 0 0 0 0 0 0 0 0 127 0" result="hardAlpha"/>
<feOffset dx="1.08"/>
<feGaussianBlur stdDeviation="2.538"/>
<feComposite in2="hardAlpha" operator="out"/>
<feColorMatrix type="matrix" values="0 0 0 0 0 0 0 0 0 0 0 0 0 0 0 0 0 0 0.57 0"/>
<feBlend mode="normal" in2="BackgroundImageFix" result="effect1_dropShadow_363_2189"/>
<feColorMatrix in="SourceAlpha" type="matrix" values="0 0 0 0 0 0 0 0 0 0 0 0 0 0 0 0 0 0 127 0" result="hardAlpha"/>
<feOffset dx="-12" dy="-15"/>
<feGaussianBlur stdDeviation="10"/>
<feComposite in2="hardAlpha" operator="out"/>
<feColorMatrix type="matrix" values="0 0 0 0 0.797439 0 0 0 0 0.884348 0 0 0 0 0.984066 0 0 0 0.03 0"/>
<feBlend mode="normal" in2="effect1_dropShadow_363_2189" result="effect2_dropShadow_363_2189"/>
<feColorMatrix in="SourceAlpha" type="matrix" values="0 0 0 0 0 0 0 0 0 0 0 0 0 0 0 0 0 0 127 0" result="hardAlpha"/>
<feOffset dx="20" dy="21"/>
<feGaussianBlur stdDeviation="10"/>
<feComposite in2="hardAlpha" operator="out"/>
<feColorMatrix type="matrix" values="0 0 0 0 0.0968424 0 0 0 0 0.0883088 0 0 0 0 0.0883088 0 0 0 0.17 0"/>
<feBlend mode="normal" in2="effect2_dropShadow_363_2189" result="effect3_dropShadow_363_2189"/>
<feBlend mode="normal" in="SourceGraphic" in2="effect3_dropShadow_363_2189" result="shape"/>
<feColorMatrix in="SourceAlpha" type="matrix" values="0 0 0 0 0 0 0 0 0 0 0 0 0 0 0 0 0 0 127 0" result="hardAlpha"/>
<feOffset/>
<feGaussianBlur stdDeviation="9.62001"/>
<feComposite in2="hardAlpha" operator="arithmetic" k2="-1" k3="1"/>
<feColorMatrix type="matrix" values="0 0 0 0 0.262044 0 0 0 0 0.262044 0 0 0 0 0.262044 0 0 0 0.29 0"/>
<feBlend mode="normal" in2="shape" result="effect4_innerShadow_363_2189"/>
<feColorMatrix in="SourceAlpha" type="matrix" values="0 0 0 0 0 0 0 0 0 0 0 0 0 0 0 0 0 0 127 0" result="hardAlpha"/>
<feOffset dx="-2.16"/>
<feGaussianBlur stdDeviation="1.296"/>
<feComposite in2="hardAlpha" operator="arithmetic" k2="-1" k3="1"/>
<feColorMatrix type="matrix" values="0 0 0 0 0 0 0 0 0 0 0 0 0 0 0 0 0 0 0.22 0"/>
<feBlend mode="normal" in2="effect4_innerShadow_363_2189" result="effect5_innerShadow_363_2189"/>
<feColorMatrix in="SourceAlpha" type="matrix" values="0 0 0 0 0 0 0 0 0 0 0 0 0 0 0 0 0 0 127 0" result="hardAlpha"/>
<feOffset dx="-2.16"/>
<feGaussianBlur stdDeviation="2.16"/>
<feComposite in2="hardAlpha" operator="arithmetic" k2="-1" k3="1"/>
<feColorMatrix type="matrix" values="0 0 0 0 0 0 0 0 0 0 0 0 0 0 0 0 0 0 0.27 0"/>
<feBlend mode="normal" in2="effect5_innerShadow_363_2189" result="effect6_innerShadow_363_2189"/>
</filter>
<filter id="filter1_f_363_2189" x="200" y="62" width="120" height="186" filterUnits="userSpaceOnUse" color-interpolation-filters="sRGB">
<feFlood flood-opacity="0" result="BackgroundImageFix"/>
<feBlend mode="normal" in="SourceGraphic" in2="BackgroundImageFix" result="shape"/>
<feGaussianBlur stdDeviation="5" result="effect1_foregroundBlur_363_2189"/>
</filter>
<filter id="filter2_i_363_2189" x="174" y="123" width="158" height="6" filterUnits="userSpaceOnUse" color-interpolation-filters="sRGB">
<feFlood flood-opacity="0" result="BackgroundImageFix"/>
<feBlend mode="normal" in="SourceGraphic" in2="BackgroundImageFix" result="shape"/>
<feColorMatrix in="SourceAlpha" type="matrix" values="0 0 0 0 0 0 0 0 0 0 0 0 0 0 0 0 0 0 127 0" result="hardAlpha"/>
<feOffset dy="4"/>
<feGaussianBlur stdDeviation="2"/>
<feComposite in2="hardAlpha" operator="arithmetic" k2="-1" k3="1"/>
<feColorMatrix type="matrix" values="0 0 0 0 0 0 0 0 0 0 0 0 0 0 0 0 0 0 0.25 0"/>
<feBlend mode="normal" in2="shape" result="effect1_innerShadow_363_2189"/>
</filter>
<linearGradient id="paint0_linear_363_2189" x1="132.5" y1="0" x2="132.5" y2="149" gradientUnits="userSpaceOnUse">
<stop stop-color="#2C3034"/>
<stop offset="1" stop-color="#292C2F"/>
</linearGradient>
<linearGradient id="paint1_linear_363_2189" x1="386.78" y1="177.54" x2="316.58" y2="177" gradientUnits="userSpaceOnUse">
<stop stop-color="#2B2C2E"/>
<stop offset="1" stop-color="#262829" stop-opacity="0"/>
</linearGradient>
<linearGradient id="paint2_linear_363_2189" x1="38.7668" y1="151.246" x2="352.316" y2="151.246" gradientUnits="userSpaceOnUse">
<stop stop-color="#2B2E32"/>
<stop offset="0.791667" stop-color="#2B2E32" stop-opacity="0"/>
<stop offset="1" stop-color="#2B2E32" stop-opacity="0"/>
</linearGradient>
<linearGradient id="paint3_linear_363_2189" x1="274.43" y1="177.717" x2="224.887" y2="177.448" gradientUnits="userSpaceOnUse">
<stop stop-color="#2B2C2E"/>
<stop offset="1" stop-color="#262829" stop-opacity="0"/>
</linearGradient>
</defs>
</svg>
