<svg width="8" height="8" viewBox="0 0 8 8" fill="none" xmlns="http://www.w3.org/2000/svg">
<g opacity="0.4" clip-path="url(#clip0_137_4309)">
<path d="M8 1.30859C8 1.48047 7.96745 1.64714 7.90234 1.80859C7.83724 1.97005 7.74219 2.11328 7.61719 2.23828L2.47266 7.38281L0 8L0.617188 5.52734L5.76172 0.382812C5.88672 0.257812 6.02995 0.16276 6.19141 0.0976562C6.35286 0.0325521 6.51953 0 6.69141 0C6.87109 0 7.04036 0.0338542 7.19922 0.101562C7.35807 0.169271 7.49609 0.263021 7.61328 0.382812C7.73047 0.502604 7.82422 0.641927 7.89453 0.800781C7.96484 0.959635 8 1.12891 8 1.30859ZM1.27344 5.57812C1.54948 5.66927 1.78646 5.8138 1.98438 6.01172C2.18229 6.20964 2.32812 6.44792 2.42188 6.72656L6.64453 2.5L5.5 1.35547L1.27344 5.57812ZM0.6875 7.3125L1.97266 6.99219C1.94661 6.8724 1.90495 6.75911 1.84766 6.65234C1.79036 6.54557 1.71875 6.45052 1.63281 6.36719C1.54688 6.28385 1.45182 6.21354 1.34766 6.15625C1.24349 6.09896 1.13021 6.05599 1.00781 6.02734L0.6875 7.3125ZM7 2.14453C7.0651 2.07943 7.1276 2.01823 7.1875 1.96094C7.2474 1.90365 7.30078 1.84375 7.34766 1.78125C7.39453 1.71875 7.43099 1.64974 7.45703 1.57422C7.48307 1.4987 7.4974 1.41146 7.5 1.3125C7.5 1.20052 7.47917 1.09635 7.4375 1C7.39583 0.903646 7.33724 0.817708 7.26172 0.742188C7.1862 0.666667 7.10026 0.608073 7.00391 0.566406C6.90755 0.52474 6.80208 0.502604 6.6875 0.5C6.58854 0.5 6.5026 0.513021 6.42969 0.539062C6.35677 0.565104 6.28776 0.602865 6.22266 0.652344C6.15755 0.701823 6.09635 0.755208 6.03906 0.8125C5.98177 0.869792 5.92057 0.932292 5.85547 1L7 2.14453Z" fill="#E8F1F9"/>
</g>
<defs>
<clipPath id="clip0_137_4309">
<rect width="8" height="8" fill="white"/>
</clipPath>
</defs>
</svg>
