<svg width="15" height="15" viewBox="0 0 15 15" fill="none" xmlns="http://www.w3.org/2000/svg">
<path d="M8.80426 12.1594C8.80426 12.5572 8.64622 12.9388 8.36492 13.2201C8.08362 13.5014 7.70209 13.6594 7.30426 13.6594C6.90644 13.6594 6.5249 13.5014 6.2436 13.2201C5.9623 12.9388 5.80426 12.5572 5.80426 12.1594C5.80426 11.7616 5.9623 11.3801 6.2436 11.0988C6.5249 10.8175 6.90644 10.6594 7.30426 10.6594C7.70209 10.6594 8.08362 10.8175 8.36492 11.0988C8.64622 11.3801 8.80426 11.7616 8.80426 12.1594Z" fill="#E8F1F9"/>
<path fill-rule="evenodd" clip-rule="evenodd" d="M7.28251 3.57368C6.78001 3.57368 6.34876 3.72368 6.04501 3.93818C5.75251 4.14518 5.60776 4.38593 5.56576 4.59368C5.5037 4.87138 5.33527 5.11369 5.0966 5.26864C4.85794 5.42358 4.56806 5.47881 4.28914 5.42248C4.01022 5.36614 3.7645 5.20273 3.60468 4.96731C3.44486 4.73188 3.38367 4.4432 3.43426 4.16318C3.60451 3.31868 4.12801 2.62943 4.79101 2.16068C5.48101 1.67318 6.35551 1.39868 7.28251 1.39868C9.20026 1.39868 11.1885 2.68118 11.1885 4.74068C11.1885 5.93318 10.4798 6.89768 9.56176 7.46018C9.3157 7.61076 9.01991 7.65742 8.73945 7.58991C8.45899 7.5224 8.21683 7.34624 8.06626 7.10018C7.91568 6.85413 7.86901 6.55833 7.93653 6.27787C8.00404 5.99741 8.1802 5.75526 8.42626 5.60468C8.85376 5.34293 9.01351 5.00918 9.01351 4.74068C9.01351 4.31018 8.47726 3.57368 7.28251 3.57368Z" fill="#E8F1F9"/>
<path fill-rule="evenodd" clip-rule="evenodd" d="M7.28251 6.47217C7.88251 6.47217 8.37001 6.95817 8.37001 7.55967V8.68617C8.37001 8.97459 8.25543 9.2512 8.05149 9.45515C7.84754 9.65909 7.57093 9.77367 7.28251 9.77367C6.99408 9.77367 6.71747 9.65909 6.51353 9.45515C6.30958 9.2512 6.19501 8.97459 6.19501 8.68617V7.55967C6.19501 6.95967 6.68176 6.47217 7.28251 6.47217Z" fill="#E8F1F9"/>
<path fill-rule="evenodd" clip-rule="evenodd" d="M9.92928 5.97437C10.0027 6.09697 10.0513 6.23285 10.0722 6.37424C10.0931 6.51562 10.086 6.65974 10.0511 6.79836C10.0163 6.93697 9.95451 7.06736 9.86925 7.18207C9.784 7.29678 9.67696 7.39356 9.55428 7.46687L7.84128 8.49212C7.59383 8.64031 7.29765 8.68414 7.01789 8.61395C6.73813 8.54377 6.49772 8.36532 6.34953 8.11787C6.20134 7.87043 6.15751 7.57425 6.2277 7.29449C6.29789 7.01473 6.47633 6.77431 6.72378 6.62612L8.43753 5.60012C8.56009 5.52678 8.69591 5.4783 8.83722 5.45745C8.97852 5.4366 9.12255 5.44379 9.26108 5.47861C9.39961 5.51344 9.52992 5.57521 9.64457 5.6604C9.75922 5.74559 9.85596 5.85179 9.92928 5.97437Z" fill="#E8F1F9"/>
</svg>
