<svg width="317" height="38" viewBox="0 0 317 38" fill="none" xmlns="http://www.w3.org/2000/svg">
<path opacity="0.15" d="M63.9119 10V3.3L64.2319 3.64H62.2619V3H64.6319V10H63.9119Z" fill="#E8F1F9"/>
<path opacity="0.15" d="M124.74 10V9.49L127.65 6.64C127.916 6.38 128.116 6.15333 128.25 5.96C128.383 5.76 128.473 5.57333 128.52 5.4C128.566 5.22667 128.59 5.06333 128.59 4.91C128.59 4.50333 128.45 4.18333 128.17 3.95C127.896 3.71667 127.49 3.6 126.95 3.6C126.536 3.6 126.17 3.66333 125.85 3.79C125.536 3.91667 125.266 4.11333 125.04 4.38L124.53 3.94C124.803 3.62 125.153 3.37333 125.58 3.2C126.006 3.02667 126.483 2.94 127.01 2.94C127.483 2.94 127.893 3.01667 128.24 3.17C128.586 3.31667 128.853 3.53333 129.04 3.82C129.233 4.10667 129.33 4.44333 129.33 4.83C129.33 5.05667 129.296 5.28 129.23 5.5C129.17 5.72 129.056 5.95333 128.89 6.2C128.73 6.44 128.493 6.71333 128.18 7.02L125.51 9.64L125.31 9.36H129.65V10H124.74Z" fill="#E8F1F9"/>
<path opacity="0.15" d="M189.137 10.06C188.631 10.06 188.151 9.98 187.697 9.82C187.251 9.65333 186.891 9.43333 186.617 9.16L186.967 8.59C187.194 8.82333 187.497 9.01667 187.877 9.17C188.264 9.32333 188.684 9.4 189.137 9.4C189.717 9.4 190.161 9.27333 190.467 9.02C190.781 8.76667 190.937 8.42667 190.937 8C190.937 7.57333 190.784 7.23333 190.477 6.98C190.177 6.72667 189.701 6.6 189.047 6.6H188.547V6.07L190.707 3.36L190.807 3.64H186.907V3H191.407V3.51L189.247 6.22L188.897 5.99H189.167C190.007 5.99 190.634 6.17667 191.047 6.55C191.467 6.92333 191.677 7.40333 191.677 7.99C191.677 8.38333 191.584 8.73667 191.397 9.05C191.211 9.36333 190.927 9.61 190.547 9.79C190.174 9.97 189.704 10.06 189.137 10.06Z" fill="#E8F1F9"/>
<path opacity="0.8" d="M249.105 8.16V7.64L252.815 3H253.615L249.935 7.64L249.545 7.52H255.175V8.16H249.105ZM253.055 10V8.16L253.075 7.52V5.9H253.775V10H253.055Z" fill="#3392FF"/>
<path opacity="0.15" d="M313.613 10.06C313.113 10.06 312.636 9.98 312.183 9.82C311.729 9.65333 311.369 9.43333 311.103 9.16L311.453 8.59C311.673 8.82333 311.973 9.01667 312.353 9.17C312.739 9.32333 313.156 9.4 313.603 9.4C314.196 9.4 314.646 9.27 314.953 9.01C315.266 8.74333 315.423 8.39667 315.423 7.97C315.423 7.67 315.349 7.41333 315.203 7.2C315.063 6.98 314.823 6.81 314.483 6.69C314.143 6.57 313.676 6.51 313.083 6.51H311.593L311.953 3H315.783V3.64H312.243L312.613 3.29L312.303 6.23L311.933 5.87H313.243C313.949 5.87 314.516 5.95667 314.943 6.13C315.369 6.30333 315.676 6.54667 315.863 6.86C316.056 7.16667 316.153 7.52667 316.153 7.94C316.153 8.33333 316.059 8.69333 315.873 9.02C315.686 9.34 315.406 9.59333 315.033 9.78C314.659 9.96667 314.186 10.06 313.613 10.06Z" fill="#E8F1F9"/>
<path d="M4 32L4 22" stroke="#424548" stroke-linecap="round"/>
<path d="M24 32V22" stroke="#424548" stroke-linecap="round"/>
<path d="M44 32V22" stroke="#424548" stroke-linecap="round"/>
<path d="M64 37V17" stroke="#424548" stroke-linecap="round"/>
<path d="M67 32V22" stroke="#424548" stroke-linecap="round"/>
<path d="M87 32V22" stroke="#424548" stroke-linecap="round"/>
<path d="M107 32V22" stroke="#424548" stroke-linecap="round"/>
<path d="M127 37V17" stroke="#424548" stroke-linecap="round"/>
<path d="M130 32V22" stroke="#424548" stroke-linecap="round"/>
<path d="M150 32V22" stroke="#424548" stroke-linecap="round"/>
<path d="M170 32V22" stroke="#424548" stroke-linecap="round"/>
<path d="M190 37V17" stroke="#424548" stroke-linecap="round"/>
<path d="M192 32V22" stroke="#424548" stroke-linecap="round"/>
<path d="M212 32V22" stroke="#424548" stroke-linecap="round"/>
<path d="M232 32V22" stroke="#424548" stroke-linecap="round"/>
<path d="M252 37V17" stroke="#424548" stroke-linecap="round"/>
<path d="M254 32V22" stroke="#424548" stroke-linecap="round"/>
<path d="M274 32V22" stroke="#424548" stroke-linecap="round"/>
<path d="M294 32V22" stroke="#424548" stroke-linecap="round"/>
<g filter="url(#filter0_i_358_1932)">
<path d="M2 28H314" stroke="#1B1E21" stroke-width="3" stroke-linecap="round"/>
</g>
<g filter="url(#filter1_i_358_1932)">
<path d="M2 27H252" stroke="#3392FF" stroke-width="3" stroke-linecap="round"/>
</g>
<defs>
<filter id="filter0_i_358_1932" x="0.5" y="25.5" width="315" height="4" filterUnits="userSpaceOnUse" color-interpolation-filters="sRGB">
<feFlood flood-opacity="0" result="BackgroundImageFix"/>
<feBlend mode="normal" in="SourceGraphic" in2="BackgroundImageFix" result="shape"/>
<feColorMatrix in="SourceAlpha" type="matrix" values="0 0 0 0 0 0 0 0 0 0 0 0 0 0 0 0 0 0 127 0" result="hardAlpha"/>
<feOffset dy="-1"/>
<feGaussianBlur stdDeviation="1"/>
<feComposite in2="hardAlpha" operator="arithmetic" k2="-1" k3="1"/>
<feColorMatrix type="matrix" values="0 0 0 0 1 0 0 0 0 1 0 0 0 0 1 0 0 0 0.13 0"/>
<feBlend mode="normal" in2="shape" result="effect1_innerShadow_358_1932"/>
</filter>
<filter id="filter1_i_358_1932" x="0.5" y="25.5" width="253" height="5" filterUnits="userSpaceOnUse" color-interpolation-filters="sRGB">
<feFlood flood-opacity="0" result="BackgroundImageFix"/>
<feBlend mode="normal" in="SourceGraphic" in2="BackgroundImageFix" result="shape"/>
<feColorMatrix in="SourceAlpha" type="matrix" values="0 0 0 0 0 0 0 0 0 0 0 0 0 0 0 0 0 0 127 0" result="hardAlpha"/>
<feOffset dy="2"/>
<feGaussianBlur stdDeviation="1"/>
<feComposite in2="hardAlpha" operator="arithmetic" k2="-1" k3="1"/>
<feColorMatrix type="matrix" values="0 0 0 0 0.138395 0 0 0 0 0.133717 0 0 0 0 0.133717 0 0 0 1 0"/>
<feBlend mode="normal" in2="shape" result="effect1_innerShadow_358_1932"/>
</filter>
</defs>
</svg>
