<svg width="314" height="38" viewBox="0 0 314 38" fill="none" xmlns="http://www.w3.org/2000/svg">
<path opacity="0.15" d="M60.9119 10V3.3L61.2319 3.64H59.2619V3H61.6319V10H60.9119Z" fill="#E8F1F9"/>
<path opacity="0.15" d="M121.74 10V9.49L124.65 6.64C124.916 6.38 125.116 6.15333 125.25 5.96C125.383 5.76 125.473 5.57333 125.52 5.4C125.566 5.22667 125.59 5.06333 125.59 4.91C125.59 4.50333 125.45 4.18333 125.17 3.95C124.896 3.71667 124.49 3.6 123.95 3.6C123.536 3.6 123.17 3.66333 122.85 3.79C122.536 3.91667 122.266 4.11333 122.04 4.38L121.53 3.94C121.803 3.62 122.153 3.37333 122.58 3.2C123.006 3.02667 123.483 2.94 124.01 2.94C124.483 2.94 124.893 3.01667 125.24 3.17C125.586 3.31667 125.853 3.53333 126.04 3.82C126.233 4.10667 126.33 4.44333 126.33 4.83C126.33 5.05667 126.296 5.28 126.23 5.5C126.17 5.72 126.056 5.95333 125.89 6.2C125.73 6.44 125.493 6.71333 125.18 7.02L122.51 9.64L122.31 9.36H126.65V10H121.74Z" fill="#E8F1F9"/>
<path opacity="0.15" d="M186.137 10.06C185.631 10.06 185.151 9.98 184.697 9.82C184.251 9.65333 183.891 9.43333 183.617 9.16L183.967 8.59C184.194 8.82333 184.497 9.01667 184.877 9.17C185.264 9.32333 185.684 9.4 186.137 9.4C186.717 9.4 187.161 9.27333 187.467 9.02C187.781 8.76667 187.937 8.42667 187.937 8C187.937 7.57333 187.784 7.23333 187.477 6.98C187.177 6.72667 186.701 6.6 186.047 6.6H185.547V6.07L187.707 3.36L187.807 3.64H183.907V3H188.407V3.51L186.247 6.22L185.897 5.99H186.167C187.007 5.99 187.634 6.17667 188.047 6.55C188.467 6.92333 188.677 7.40333 188.677 7.99C188.677 8.38333 188.584 8.73667 188.397 9.05C188.211 9.36333 187.927 9.61 187.547 9.79C187.174 9.97 186.704 10.06 186.137 10.06Z" fill="#E8F1F9"/>
<path opacity="0.15" d="M246.105 8.16V7.64L249.815 3H250.615L246.935 7.64L246.545 7.52H252.175V8.16H246.105ZM250.055 10V8.16L250.075 7.52V5.9H250.775V10H250.055Z" fill="#E8F1F9"/>
<path opacity="0.8" d="M310.613 10.06C310.113 10.06 309.636 9.98 309.183 9.82C308.729 9.65333 308.369 9.43333 308.103 9.16L308.453 8.59C308.673 8.82333 308.973 9.01667 309.353 9.17C309.739 9.32333 310.156 9.4 310.603 9.4C311.196 9.4 311.646 9.27 311.953 9.01C312.266 8.74333 312.423 8.39667 312.423 7.97C312.423 7.67 312.349 7.41333 312.203 7.2C312.063 6.98 311.823 6.81 311.483 6.69C311.143 6.57 310.676 6.51 310.083 6.51H308.593L308.953 3H312.783V3.64H309.243L309.613 3.29L309.303 6.23L308.933 5.87H310.243C310.949 5.87 311.516 5.95667 311.943 6.13C312.369 6.30333 312.676 6.54667 312.863 6.86C313.056 7.16667 313.153 7.52667 313.153 7.94C313.153 8.33333 313.059 8.69333 312.873 9.02C312.686 9.34 312.406 9.59333 312.033 9.78C311.659 9.96667 311.186 10.06 310.613 10.06Z" fill="#3392FF"/>
<path d="M1 32L1 22" stroke="#424548" stroke-linecap="round"/>
<path d="M21 32V22" stroke="#424548" stroke-linecap="round"/>
<path d="M41 32V22" stroke="#424548" stroke-linecap="round"/>
<path d="M61 37V17" stroke="#424548" stroke-linecap="round"/>
<path d="M64 32V22" stroke="#424548" stroke-linecap="round"/>
<path d="M84 32V22" stroke="#424548" stroke-linecap="round"/>
<path d="M104 32V22" stroke="#424548" stroke-linecap="round"/>
<path d="M124 37V17" stroke="#424548" stroke-linecap="round"/>
<path d="M127 32V22" stroke="#424548" stroke-linecap="round"/>
<path d="M147 32V22" stroke="#424548" stroke-linecap="round"/>
<path d="M167 32V22" stroke="#424548" stroke-linecap="round"/>
<path d="M187 37V17" stroke="#424548" stroke-linecap="round"/>
<path d="M189 32V22" stroke="#424548" stroke-linecap="round"/>
<path d="M209 32V22" stroke="#424548" stroke-linecap="round"/>
<path d="M229 32V22" stroke="#424548" stroke-linecap="round"/>
<path d="M249 37V17" stroke="#424548" stroke-linecap="round"/>
<path d="M251 32V22" stroke="#424548" stroke-linecap="round"/>
<path d="M271 32V22" stroke="#424548" stroke-linecap="round"/>
<path d="M291 32V22" stroke="#424548" stroke-linecap="round"/>
</svg>
