<svg width="344" height="58" viewBox="0 0 344 58" fill="none" xmlns="http://www.w3.org/2000/svg">
<g clip-path="url(#clip0_358_1712)">
<g filter="url(#filter0_ddiii_358_1712)">
<path d="M225 -35.4386C225 -40.0993 225 -42.4297 225.953 -44.0799C226.789 -45.5279 228.108 -46.6349 229.68 -47.2066C231.47 -47.8582 233.765 -47.4532 238.355 -46.6432L253.245 -44.0156C253.984 -43.8852 254.354 -43.8199 254.726 -43.7939C255.056 -43.7708 255.388 -43.7708 255.719 -43.7939C256.091 -43.8199 256.46 -43.8852 257.2 -44.0156L272.089 -46.6432C276.679 -47.4532 278.974 -47.8582 280.765 -47.2066C282.336 -46.6349 283.656 -45.5279 284.492 -44.0799C285.444 -42.4297 285.444 -40.0993 285.444 -35.4386V-30.5614C285.444 -25.9007 285.444 -23.5703 284.492 -21.9201C283.656 -20.4721 282.336 -19.3651 280.765 -18.7934C278.974 -18.1418 276.679 -18.5468 272.089 -19.3568L257.2 -21.9844C256.46 -22.1148 256.091 -22.1801 255.719 -22.2061C255.388 -22.2292 255.056 -22.2292 254.726 -22.2061C254.354 -22.1801 253.984 -22.1148 253.245 -21.9844L238.355 -19.3568C233.765 -18.5468 231.47 -18.1418 229.68 -18.7934C228.108 -19.3651 226.789 -20.4721 225.953 -21.9201C225 -23.5703 225 -25.9007 225 -30.5614V-35.4386Z" fill="url(#paint0_diamond_358_1712)"/>
</g>
<path opacity="0.15" d="M66.9119 12V5.3L67.2319 5.64H65.2619V5H67.6319V12H66.9119Z" fill="#E8F1F9"/>
<path opacity="0.15" d="M127.74 12V11.49L130.65 8.64C130.916 8.38 131.116 8.15333 131.25 7.96C131.383 7.76 131.473 7.57333 131.52 7.4C131.566 7.22667 131.59 7.06333 131.59 6.91C131.59 6.50333 131.45 6.18333 131.17 5.95C130.896 5.71667 130.49 5.6 129.95 5.6C129.536 5.6 129.17 5.66333 128.85 5.79C128.536 5.91667 128.266 6.11333 128.04 6.38L127.53 5.94C127.803 5.62 128.153 5.37333 128.58 5.2C129.006 5.02667 129.483 4.94 130.01 4.94C130.483 4.94 130.893 5.01667 131.24 5.17C131.586 5.31667 131.853 5.53333 132.04 5.82C132.233 6.10667 132.33 6.44333 132.33 6.83C132.33 7.05667 132.296 7.28 132.23 7.5C132.17 7.72 132.056 7.95333 131.89 8.2C131.73 8.44 131.493 8.71333 131.18 9.02L128.51 11.64L128.31 11.36H132.65V12H127.74Z" fill="#E8F1F9"/>
<path opacity="0.8" d="M192.137 12.06C191.631 12.06 191.151 11.98 190.697 11.82C190.251 11.6533 189.891 11.4333 189.617 11.16L189.967 10.59C190.194 10.8233 190.497 11.0167 190.877 11.17C191.264 11.3233 191.684 11.4 192.137 11.4C192.717 11.4 193.161 11.2733 193.467 11.02C193.781 10.7667 193.937 10.4267 193.937 10C193.937 9.57333 193.784 9.23333 193.477 8.98C193.177 8.72667 192.701 8.6 192.047 8.6H191.547V8.07L193.707 5.36L193.807 5.64H189.907V5H194.407V5.51L192.247 8.22L191.897 7.99H192.167C193.007 7.99 193.634 8.17667 194.047 8.55C194.467 8.92333 194.677 9.40333 194.677 9.99C194.677 10.3833 194.584 10.7367 194.397 11.05C194.211 11.3633 193.927 11.61 193.547 11.79C193.174 11.97 192.704 12.06 192.137 12.06Z" fill="#3392FF"/>
<path opacity="0.15" d="M252.105 10.16V9.64L255.815 5H256.615L252.935 9.64L252.545 9.52H258.175V10.16H252.105ZM256.055 12V10.16L256.075 9.52V7.9H256.775V12H256.055Z" fill="#E8F1F9"/>
<path opacity="0.15" d="M316.613 12.06C316.113 12.06 315.636 11.98 315.183 11.82C314.729 11.6533 314.369 11.4333 314.103 11.16L314.453 10.59C314.673 10.8233 314.973 11.0167 315.353 11.17C315.739 11.3233 316.156 11.4 316.603 11.4C317.196 11.4 317.646 11.27 317.953 11.01C318.266 10.7433 318.423 10.3967 318.423 9.97C318.423 9.67 318.349 9.41333 318.203 9.2C318.063 8.98 317.823 8.81 317.483 8.69C317.143 8.57 316.676 8.51 316.083 8.51H314.593L314.953 5H318.783V5.64H315.243L315.613 5.29L315.303 8.23L314.933 7.87H316.243C316.949 7.87 317.516 7.95667 317.943 8.13C318.369 8.30333 318.676 8.54667 318.863 8.86C319.056 9.16667 319.153 9.52667 319.153 9.94C319.153 10.3333 319.059 10.6933 318.873 11.02C318.686 11.34 318.406 11.5933 318.033 11.78C317.659 11.9667 317.186 12.06 316.613 12.06Z" fill="#E8F1F9"/>
<path d="M7 34L7 24" stroke="#424548" stroke-linecap="round"/>
<path d="M27 34V24" stroke="#424548" stroke-linecap="round"/>
<path d="M47 34V24" stroke="#424548" stroke-linecap="round"/>
<path d="M67 39V19" stroke="#424548" stroke-linecap="round"/>
<path d="M70 34V24" stroke="#424548" stroke-linecap="round"/>
<path d="M90 34V24" stroke="#424548" stroke-linecap="round"/>
<path d="M110 34V24" stroke="#424548" stroke-linecap="round"/>
<path d="M130 39V19" stroke="#424548" stroke-linecap="round"/>
<path d="M133 34V24" stroke="#424548" stroke-linecap="round"/>
<path d="M153 34V24" stroke="#424548" stroke-linecap="round"/>
<path d="M173 34V24" stroke="#424548" stroke-linecap="round"/>
<path d="M193 39V19" stroke="#424548" stroke-linecap="round"/>
<path d="M195 34V24" stroke="#424548" stroke-linecap="round"/>
<path d="M215 34V24" stroke="#424548" stroke-linecap="round"/>
<path d="M235 34V24" stroke="#424548" stroke-linecap="round"/>
<path d="M255 39V19" stroke="#424548" stroke-linecap="round"/>
<path d="M257 34V24" stroke="#424548" stroke-linecap="round"/>
<path d="M277 34V24" stroke="#424548" stroke-linecap="round"/>
<path d="M297 34V24" stroke="#424548" stroke-linecap="round"/>
<g filter="url(#filter1_i_358_1712)">
<path d="M5 30H317" stroke="#1B1E21" stroke-width="3" stroke-linecap="round"/>
</g>
<g filter="url(#filter2_i_358_1712)">
<path d="M5 29H193" stroke="#3392FF" stroke-width="3" stroke-linecap="round"/>
</g>
<g filter="url(#filter3_dddiiii_358_1712)">
<path d="M163 27.5614C163 22.9007 163 20.5703 163.953 18.9201C164.789 17.4721 166.108 16.3651 167.68 15.7934C169.47 15.1418 171.765 15.5468 176.355 16.3568L191.245 18.9844C191.984 19.1148 192.354 19.1801 192.726 19.2061C193.056 19.2292 193.388 19.2292 193.719 19.2061C194.091 19.1801 194.46 19.1148 195.2 18.9844L210.089 16.3568C214.679 15.5468 216.974 15.1418 218.765 15.7934C220.336 16.3651 221.656 17.4721 222.492 18.9201C223.444 20.5703 223.444 22.9007 223.444 27.5614V32.4386C223.444 37.0993 223.444 39.4297 222.492 41.0799C221.656 42.5279 220.336 43.6349 218.765 44.2066C216.974 44.8582 214.679 44.4532 210.089 43.6432L195.2 41.0156C194.46 40.8852 194.091 40.8199 193.719 40.7939C193.388 40.7708 193.056 40.7708 192.726 40.7939C192.354 40.8199 191.984 40.8852 191.245 41.0156L176.355 43.6432C171.765 44.4532 169.47 44.8582 167.68 44.2066C166.108 43.6349 164.789 42.5279 163.953 41.0799C163 39.4297 163 37.0993 163 32.4386V27.5614Z" fill="url(#paint1_diamond_358_1712)"/>
</g>
<g filter="url(#filter4_iii_358_1712)">
<mask id="mask0_358_1712" style="mask-type:alpha" maskUnits="userSpaceOnUse" x="163" y="15" width="61" height="30">
<path d="M163 27.5614C163 22.9007 163 20.5703 163.953 18.9201C164.789 17.4721 166.108 16.3651 167.68 15.7934C169.47 15.1418 171.765 15.5468 176.355 16.3568L191.245 18.9844C191.984 19.1148 192.354 19.1801 192.726 19.2061C193.056 19.2292 193.388 19.2292 193.719 19.2061C194.091 19.1801 194.46 19.1148 195.2 18.9844L210.089 16.3568C214.679 15.5468 216.974 15.1418 218.765 15.7934C220.336 16.3651 221.656 17.4721 222.492 18.9201C223.444 20.5703 223.444 22.9007 223.444 27.5614V32.4386C223.444 37.0993 223.444 39.4297 222.492 41.0799C221.656 42.5279 220.336 43.6349 218.765 44.2066C216.974 44.8582 214.679 44.4532 210.089 43.6432L195.2 41.0156C194.46 40.8852 194.091 40.8199 193.719 40.7939C193.388 40.7708 193.056 40.7708 192.726 40.7939C192.354 40.8199 191.984 40.8852 191.245 41.0156L176.355 43.6432C171.765 44.4532 169.47 44.8582 167.68 44.2066C166.108 43.6349 164.789 42.5279 163.953 41.0799C163 39.4297 163 37.0993 163 32.4386V27.5614Z" fill="url(#paint2_radial_358_1712)"/>
</mask>
<g mask="url(#mask0_358_1712)">
<line x1="171.6" y1="14" x2="171.6" y2="45.9998" stroke="#202222" stroke-width="1.2"/>
<line x1="178.533" y1="14" x2="178.533" y2="45.9998" stroke="#202222" stroke-width="1.2"/>
<line x1="184.933" y1="14" x2="184.933" y2="45.9998" stroke="#202222" stroke-width="1.2"/>
<line x1="192.867" y1="18.2666" x2="192.867" y2="43.1554" stroke="#202222" stroke-width="4.26667"/>
<path d="M207.8 14L207.8 45.9998" stroke="#202222" stroke-width="1.2"/>
<path d="M201.4 14L201.4 45.9998" stroke="#202222" stroke-width="1.2"/>
<line x1="215.6" y1="14" x2="215.6" y2="45.9998" stroke="#202222" stroke-width="1.2"/>
</g>
</g>
<g filter="url(#filter5_ddii_358_1712)">
<path d="M100 90.5614C100 85.9007 100 83.5703 100.953 81.9201C101.789 80.4721 103.108 79.3651 104.68 78.7934C106.47 78.1418 108.765 78.5468 113.355 79.3568L128.245 81.9844C128.984 82.1148 129.354 82.1801 129.726 82.2061C130.056 82.2292 130.388 82.2292 130.719 82.2061C131.091 82.1801 131.46 82.1148 132.2 81.9844L147.089 79.3568C151.679 78.5468 153.974 78.1418 155.765 78.7934C157.336 79.3651 158.656 80.4721 159.492 81.9201C160.444 83.5703 160.444 85.9007 160.444 90.5614V95.4386C160.444 100.099 160.444 102.43 159.492 104.08C158.656 105.528 157.336 106.635 155.765 107.207C153.974 107.858 151.679 107.453 147.089 106.643L132.2 104.016C131.46 103.885 131.091 103.82 130.719 103.794C130.388 103.771 130.056 103.771 129.726 103.794C129.354 103.82 128.984 103.885 128.245 104.016L113.355 106.643C108.765 107.453 106.47 107.858 104.68 107.207C103.108 106.635 101.789 105.528 100.953 104.08C100 102.43 100 100.099 100 95.4386V90.5614Z" fill="url(#paint3_diamond_358_1712)"/>
</g>
</g>
<defs>
<filter id="filter0_ddiii_358_1712" x="155.608" y="-114.471" width="209.125" height="182.401" filterUnits="userSpaceOnUse" color-interpolation-filters="sRGB">
<feFlood flood-opacity="0" result="BackgroundImageFix"/>
<feColorMatrix in="SourceAlpha" type="matrix" values="0 0 0 0 0 0 0 0 0 0 0 0 0 0 0 0 0 0 127 0" result="hardAlpha"/>
<feOffset dx="7.11112" dy="14.2222"/>
<feGaussianBlur stdDeviation="36.0889"/>
<feComposite in2="hardAlpha" operator="out"/>
<feColorMatrix type="matrix" values="0 0 0 0 0 0 0 0 0 0 0 0 0 0 0 0 0 0 0.7 0"/>
<feBlend mode="normal" in2="BackgroundImageFix" result="effect1_dropShadow_358_1712"/>
<feColorMatrix in="SourceAlpha" type="matrix" values="0 0 0 0 0 0 0 0 0 0 0 0 0 0 0 0 0 0 127 0" result="hardAlpha"/>
<feOffset dx="-19.614" dy="-17.1622"/>
<feGaussianBlur stdDeviation="24.8889"/>
<feComposite in2="hardAlpha" operator="out"/>
<feColorMatrix type="matrix" values="0 0 0 0 1 0 0 0 0 1 0 0 0 0 1 0 0 0 0.11 0"/>
<feBlend mode="normal" in2="effect1_dropShadow_358_1712" result="effect2_dropShadow_358_1712"/>
<feBlend mode="normal" in="SourceGraphic" in2="effect2_dropShadow_358_1712" result="shape"/>
<feColorMatrix in="SourceAlpha" type="matrix" values="0 0 0 0 0 0 0 0 0 0 0 0 0 0 0 0 0 0 127 0" result="hardAlpha"/>
<feOffset/>
<feGaussianBlur stdDeviation="65.7779"/>
<feComposite in2="hardAlpha" operator="arithmetic" k2="-1" k3="1"/>
<feColorMatrix type="matrix" values="0 0 0 0 0.262044 0 0 0 0 0.262044 0 0 0 0 0.262044 0 0 0 0.29 0"/>
<feBlend mode="normal" in2="shape" result="effect3_innerShadow_358_1712"/>
<feColorMatrix in="SourceAlpha" type="matrix" values="0 0 0 0 0 0 0 0 0 0 0 0 0 0 0 0 0 0 127 0" result="hardAlpha"/>
<feOffset dx="17.7778" dy="24.8889"/>
<feGaussianBlur stdDeviation="14.7556"/>
<feComposite in2="hardAlpha" operator="arithmetic" k2="-1" k3="1"/>
<feColorMatrix type="matrix" values="0 0 0 0 0.358773 0 0 0 0 0.358773 0 0 0 0 0.358773 0 0 0 0.25 0"/>
<feBlend mode="normal" in2="effect3_innerShadow_358_1712" result="effect4_innerShadow_358_1712"/>
<feColorMatrix in="SourceAlpha" type="matrix" values="0 0 0 0 0 0 0 0 0 0 0 0 0 0 0 0 0 0 127 0" result="hardAlpha"/>
<feOffset dx="-21.3334" dy="-21.3334"/>
<feGaussianBlur stdDeviation="42.6667"/>
<feComposite in2="hardAlpha" operator="arithmetic" k2="-1" k3="1"/>
<feColorMatrix type="matrix" values="0 0 0 0 0 0 0 0 0 0 0 0 0 0 0 0 0 0 0.37 0"/>
<feBlend mode="normal" in2="effect4_innerShadow_358_1712" result="effect5_innerShadow_358_1712"/>
</filter>
<filter id="filter1_i_358_1712" x="3.5" y="27.5" width="315" height="4" filterUnits="userSpaceOnUse" color-interpolation-filters="sRGB">
<feFlood flood-opacity="0" result="BackgroundImageFix"/>
<feBlend mode="normal" in="SourceGraphic" in2="BackgroundImageFix" result="shape"/>
<feColorMatrix in="SourceAlpha" type="matrix" values="0 0 0 0 0 0 0 0 0 0 0 0 0 0 0 0 0 0 127 0" result="hardAlpha"/>
<feOffset dy="-1"/>
<feGaussianBlur stdDeviation="1"/>
<feComposite in2="hardAlpha" operator="arithmetic" k2="-1" k3="1"/>
<feColorMatrix type="matrix" values="0 0 0 0 1 0 0 0 0 1 0 0 0 0 1 0 0 0 0.13 0"/>
<feBlend mode="normal" in2="shape" result="effect1_innerShadow_358_1712"/>
</filter>
<filter id="filter2_i_358_1712" x="3.5" y="27.5" width="191" height="5" filterUnits="userSpaceOnUse" color-interpolation-filters="sRGB">
<feFlood flood-opacity="0" result="BackgroundImageFix"/>
<feBlend mode="normal" in="SourceGraphic" in2="BackgroundImageFix" result="shape"/>
<feColorMatrix in="SourceAlpha" type="matrix" values="0 0 0 0 0 0 0 0 0 0 0 0 0 0 0 0 0 0 127 0" result="hardAlpha"/>
<feOffset dy="2"/>
<feGaussianBlur stdDeviation="1"/>
<feComposite in2="hardAlpha" operator="arithmetic" k2="-1" k3="1"/>
<feColorMatrix type="matrix" values="0 0 0 0 0.138395 0 0 0 0 0.133717 0 0 0 0 0.133717 0 0 0 1 0"/>
<feBlend mode="normal" in2="shape" result="effect1_innerShadow_358_1712"/>
</filter>
<filter id="filter3_dddiiii_358_1712" x="93.6082" y="-51.4706" width="209.125" height="182.401" filterUnits="userSpaceOnUse" color-interpolation-filters="sRGB">
<feFlood flood-opacity="0" result="BackgroundImageFix"/>
<feColorMatrix in="SourceAlpha" type="matrix" values="0 0 0 0 0 0 0 0 0 0 0 0 0 0 0 0 0 0 127 0" result="hardAlpha"/>
<feOffset dx="7.11112" dy="14.2222"/>
<feGaussianBlur stdDeviation="36.0889"/>
<feComposite in2="hardAlpha" operator="out"/>
<feColorMatrix type="matrix" values="0 0 0 0 0 0 0 0 0 0 0 0 0 0 0 0 0 0 0.7 0"/>
<feBlend mode="normal" in2="BackgroundImageFix" result="effect1_dropShadow_358_1712"/>
<feColorMatrix in="SourceAlpha" type="matrix" values="0 0 0 0 0 0 0 0 0 0 0 0 0 0 0 0 0 0 127 0" result="hardAlpha"/>
<feOffset dx="-19.614" dy="-17.1622"/>
<feGaussianBlur stdDeviation="24.8889"/>
<feComposite in2="hardAlpha" operator="out"/>
<feColorMatrix type="matrix" values="0 0 0 0 1 0 0 0 0 1 0 0 0 0 1 0 0 0 0.11 0"/>
<feBlend mode="normal" in2="effect1_dropShadow_358_1712" result="effect2_dropShadow_358_1712"/>
<feColorMatrix in="SourceAlpha" type="matrix" values="0 0 0 0 0 0 0 0 0 0 0 0 0 0 0 0 0 0 127 0" result="hardAlpha"/>
<feOffset dx="-7.11112" dy="-3.55556"/>
<feGaussianBlur stdDeviation="6.22223"/>
<feComposite in2="hardAlpha" operator="out"/>
<feColorMatrix type="matrix" values="0 0 0 0 0 0 0 0 0 0 0 0 0 0 0 0 0 0 0.25 0"/>
<feBlend mode="normal" in2="effect2_dropShadow_358_1712" result="effect3_dropShadow_358_1712"/>
<feBlend mode="normal" in="SourceGraphic" in2="effect3_dropShadow_358_1712" result="shape"/>
<feColorMatrix in="SourceAlpha" type="matrix" values="0 0 0 0 0 0 0 0 0 0 0 0 0 0 0 0 0 0 127 0" result="hardAlpha"/>
<feOffset/>
<feGaussianBlur stdDeviation="65.7779"/>
<feComposite in2="hardAlpha" operator="arithmetic" k2="-1" k3="1"/>
<feColorMatrix type="matrix" values="0 0 0 0 0.262044 0 0 0 0 0.262044 0 0 0 0 0.262044 0 0 0 0.29 0"/>
<feBlend mode="normal" in2="shape" result="effect4_innerShadow_358_1712"/>
<feColorMatrix in="SourceAlpha" type="matrix" values="0 0 0 0 0 0 0 0 0 0 0 0 0 0 0 0 0 0 127 0" result="hardAlpha"/>
<feOffset dx="17.7778" dy="24.8889"/>
<feGaussianBlur stdDeviation="14.7556"/>
<feComposite in2="hardAlpha" operator="arithmetic" k2="-1" k3="1"/>
<feColorMatrix type="matrix" values="0 0 0 0 0.358773 0 0 0 0 0.358773 0 0 0 0 0.358773 0 0 0 0.25 0"/>
<feBlend mode="normal" in2="effect4_innerShadow_358_1712" result="effect5_innerShadow_358_1712"/>
<feColorMatrix in="SourceAlpha" type="matrix" values="0 0 0 0 0 0 0 0 0 0 0 0 0 0 0 0 0 0 127 0" result="hardAlpha"/>
<feOffset dx="-21.3334" dy="-21.3334"/>
<feGaussianBlur stdDeviation="42.6667"/>
<feComposite in2="hardAlpha" operator="arithmetic" k2="-1" k3="1"/>
<feColorMatrix type="matrix" values="0 0 0 0 0 0 0 0 0 0 0 0 0 0 0 0 0 0 0.37 0"/>
<feBlend mode="normal" in2="effect5_innerShadow_358_1712" result="effect6_innerShadow_358_1712"/>
<feColorMatrix in="SourceAlpha" type="matrix" values="0 0 0 0 0 0 0 0 0 0 0 0 0 0 0 0 0 0 127 0" result="hardAlpha"/>
<feOffset dx="3.55556" dy="3.55556"/>
<feComposite in2="hardAlpha" operator="arithmetic" k2="-1" k3="1"/>
<feColorMatrix type="matrix" values="0 0 0 0 1 0 0 0 0 1 0 0 0 0 1 0 0 0 0.04 0"/>
<feBlend mode="normal" in2="effect6_innerShadow_358_1712" result="effect7_innerShadow_358_1712"/>
</filter>
<filter id="filter4_iii_358_1712" x="171" y="15.4695" width="45.2" height="29.8978" filterUnits="userSpaceOnUse" color-interpolation-filters="sRGB">
<feFlood flood-opacity="0" result="BackgroundImageFix"/>
<feBlend mode="normal" in="SourceGraphic" in2="BackgroundImageFix" result="shape"/>
<feColorMatrix in="SourceAlpha" type="matrix" values="0 0 0 0 0 0 0 0 0 0 0 0 0 0 0 0 0 0 127 0" result="hardAlpha"/>
<feOffset dy="0.836751"/>
<feGaussianBlur stdDeviation="0.418375"/>
<feComposite in2="hardAlpha" operator="arithmetic" k2="-1" k3="1"/>
<feColorMatrix type="matrix" values="0 0 0 0 0 0 0 0 0 0 0 0 0 0 0 0 0 0 0.25 0"/>
<feBlend mode="normal" in2="shape" result="effect1_innerShadow_358_1712"/>
<feColorMatrix in="SourceAlpha" type="matrix" values="0 0 0 0 0 0 0 0 0 0 0 0 0 0 0 0 0 0 127 0" result="hardAlpha"/>
<feOffset dy="0.836751"/>
<feGaussianBlur stdDeviation="0.418375"/>
<feComposite in2="hardAlpha" operator="arithmetic" k2="-1" k3="1"/>
<feColorMatrix type="matrix" values="0 0 0 0 0 0 0 0 0 0 0 0 0 0 0 0 0 0 0.25 0"/>
<feBlend mode="normal" in2="effect1_innerShadow_358_1712" result="effect2_innerShadow_358_1712"/>
<feColorMatrix in="SourceAlpha" type="matrix" values="0 0 0 0 0 0 0 0 0 0 0 0 0 0 0 0 0 0 127 0" result="hardAlpha"/>
<feOffset dy="0.836751"/>
<feGaussianBlur stdDeviation="0.418375"/>
<feComposite in2="hardAlpha" operator="arithmetic" k2="-1" k3="1"/>
<feColorMatrix type="matrix" values="0 0 0 0 0 0 0 0 0 0 0 0 0 0 0 0 0 0 0.25 0"/>
<feBlend mode="normal" in2="effect2_innerShadow_358_1712" result="effect3_innerShadow_358_1712"/>
</filter>
<filter id="filter5_ddii_358_1712" x="30.6082" y="11.5294" width="209.125" height="182.401" filterUnits="userSpaceOnUse" color-interpolation-filters="sRGB">
<feFlood flood-opacity="0" result="BackgroundImageFix"/>
<feColorMatrix in="SourceAlpha" type="matrix" values="0 0 0 0 0 0 0 0 0 0 0 0 0 0 0 0 0 0 127 0" result="hardAlpha"/>
<feOffset dx="7.11112" dy="14.2222"/>
<feGaussianBlur stdDeviation="36.0889"/>
<feComposite in2="hardAlpha" operator="out"/>
<feColorMatrix type="matrix" values="0 0 0 0 0 0 0 0 0 0 0 0 0 0 0 0 0 0 0.7 0"/>
<feBlend mode="normal" in2="BackgroundImageFix" result="effect1_dropShadow_358_1712"/>
<feColorMatrix in="SourceAlpha" type="matrix" values="0 0 0 0 0 0 0 0 0 0 0 0 0 0 0 0 0 0 127 0" result="hardAlpha"/>
<feOffset dx="-19.614" dy="-17.1622"/>
<feGaussianBlur stdDeviation="24.8889"/>
<feComposite in2="hardAlpha" operator="out"/>
<feColorMatrix type="matrix" values="0 0 0 0 1 0 0 0 0 1 0 0 0 0 1 0 0 0 0.11 0"/>
<feBlend mode="normal" in2="effect1_dropShadow_358_1712" result="effect2_dropShadow_358_1712"/>
<feBlend mode="normal" in="SourceGraphic" in2="effect2_dropShadow_358_1712" result="shape"/>
<feColorMatrix in="SourceAlpha" type="matrix" values="0 0 0 0 0 0 0 0 0 0 0 0 0 0 0 0 0 0 127 0" result="hardAlpha"/>
<feOffset/>
<feGaussianBlur stdDeviation="65.7779"/>
<feComposite in2="hardAlpha" operator="arithmetic" k2="-1" k3="1"/>
<feColorMatrix type="matrix" values="0 0 0 0 0.262044 0 0 0 0 0.262044 0 0 0 0 0.262044 0 0 0 0.29 0"/>
<feBlend mode="normal" in2="shape" result="effect3_innerShadow_358_1712"/>
<feColorMatrix in="SourceAlpha" type="matrix" values="0 0 0 0 0 0 0 0 0 0 0 0 0 0 0 0 0 0 127 0" result="hardAlpha"/>
<feOffset dx="-21.3334" dy="-21.3334"/>
<feGaussianBlur stdDeviation="42.6667"/>
<feComposite in2="hardAlpha" operator="arithmetic" k2="-1" k3="1"/>
<feColorMatrix type="matrix" values="0 0 0 0 0 0 0 0 0 0 0 0 0 0 0 0 0 0 0.37 0"/>
<feBlend mode="normal" in2="effect3_innerShadow_358_1712" result="effect4_innerShadow_358_1712"/>
</filter>
<radialGradient id="paint0_diamond_358_1712" cx="0" cy="0" r="1" gradientUnits="userSpaceOnUse" gradientTransform="translate(255 -31) rotate(180) scale(8 43.0042)">
<stop stop-color="#142333"/>
<stop offset="1" stop-color="#354556"/>
</radialGradient>
<radialGradient id="paint1_diamond_358_1712" cx="0" cy="0" r="1" gradientUnits="userSpaceOnUse" gradientTransform="translate(193 32) rotate(180) scale(8 43.0042)">
<stop stop-color="#142333"/>
<stop offset="1" stop-color="#354556"/>
</radialGradient>
<radialGradient id="paint2_radial_358_1712" cx="0" cy="0" r="1" gradientUnits="userSpaceOnUse" gradientTransform="translate(185 33.5556) rotate(-180) scale(12 105.209)">
<stop stop-color="#142333"/>
<stop offset="1" stop-color="#2B3845"/>
</radialGradient>
<radialGradient id="paint3_diamond_358_1712" cx="0" cy="0" r="1" gradientUnits="userSpaceOnUse" gradientTransform="translate(130 95) rotate(180) scale(8 43.0042)">
<stop stop-color="#142333"/>
<stop offset="1" stop-color="#354556"/>
</radialGradient>
<clipPath id="clip0_358_1712">
<rect width="390" height="844" fill="white" transform="translate(-20 -503)"/>
</clipPath>
</defs>
</svg>
