<svg width="344" height="58" viewBox="0 0 344 58" fill="none" xmlns="http://www.w3.org/2000/svg">
<g clip-path="url(#clip0_358_1712)">
<g filter="url(#filter0_di_358_1712)">
<path d="M224 -99.4386C224 -104.099 224 -106.43 224.953 -108.08C225.789 -109.528 227.108 -110.635 228.68 -111.207C230.47 -111.858 232.765 -111.453 237.355 -110.643L252.245 -108.016C252.984 -107.885 253.354 -107.82 253.726 -107.794C254.056 -107.771 254.388 -107.771 254.719 -107.794C255.091 -107.82 255.46 -107.885 256.2 -108.016L271.089 -110.643C275.679 -111.453 277.974 -111.858 279.765 -111.207C281.336 -110.635 282.656 -109.528 283.492 -108.08C284.444 -106.43 284.444 -104.099 284.444 -99.4386V-94.5614C284.444 -89.9007 284.444 -87.5703 283.492 -85.9201C282.656 -84.4721 281.336 -83.3651 279.765 -82.7934C277.974 -82.1418 275.679 -82.5468 271.089 -83.3568L256.2 -85.9844C255.46 -86.1148 255.091 -86.1801 254.719 -86.2061C254.388 -86.2292 254.056 -86.2292 253.726 -86.2061C253.354 -86.1801 252.984 -86.1148 252.245 -85.9844L237.355 -83.3568C232.765 -82.5468 230.47 -82.1418 228.68 -82.7934C227.108 -83.3651 225.789 -84.4721 224.953 -85.9201C224 -87.5703 224 -89.9007 224 -94.5614V-99.4386Z" fill="url(#paint0_diamond_358_1712)"/>
</g>
<g filter="url(#filter1_ddiii_358_1712)">
<path d="M162 -36.4386C162 -41.0993 162 -43.4297 162.953 -45.0799C163.789 -46.5279 165.108 -47.6349 166.68 -48.2066C168.47 -48.8582 170.765 -48.4532 175.355 -47.6432L190.245 -45.0156C190.984 -44.8852 191.354 -44.8199 191.726 -44.7939C192.056 -44.7708 192.388 -44.7708 192.719 -44.7939C193.091 -44.8199 193.46 -44.8852 194.2 -45.0156L209.089 -47.6432C213.679 -48.4532 215.974 -48.8582 217.765 -48.2066C219.336 -47.6349 220.656 -46.5279 221.492 -45.0799C222.444 -43.4297 222.444 -41.0993 222.444 -36.4386V-31.5614C222.444 -26.9007 222.444 -24.5703 221.492 -22.9201C220.656 -21.4721 219.336 -20.3651 217.765 -19.7934C215.974 -19.1418 213.679 -19.5468 209.089 -20.3568L194.2 -22.9844C193.46 -23.1148 193.091 -23.1801 192.719 -23.2061C192.388 -23.2292 192.056 -23.2292 191.726 -23.2061C191.354 -23.1801 190.984 -23.1148 190.245 -22.9844L175.355 -20.3568C170.765 -19.5468 168.47 -19.1418 166.68 -19.7934C165.108 -20.3651 163.789 -21.4721 162.953 -22.9201C162 -24.5703 162 -26.9007 162 -31.5614V-36.4386Z" fill="url(#paint1_diamond_358_1712)"/>
</g>
<path opacity="0.15" d="M65.9119 11V4.3L66.2319 4.64H64.2619V4H66.6319V11H65.9119Z" fill="#E8F1F9"/>
<path opacity="0.8" d="M126.74 11V10.49L129.65 7.64C129.916 7.38 130.116 7.15333 130.25 6.96C130.383 6.76 130.473 6.57333 130.52 6.4C130.566 6.22667 130.59 6.06333 130.59 5.91C130.59 5.50333 130.45 5.18333 130.17 4.95C129.896 4.71667 129.49 4.6 128.95 4.6C128.536 4.6 128.17 4.66333 127.85 4.79C127.536 4.91667 127.266 5.11333 127.04 5.38L126.53 4.94C126.803 4.62 127.153 4.37333 127.58 4.2C128.006 4.02667 128.483 3.94 129.01 3.94C129.483 3.94 129.893 4.01667 130.24 4.17C130.586 4.31667 130.853 4.53333 131.04 4.82C131.233 5.10667 131.33 5.44333 131.33 5.83C131.33 6.05667 131.296 6.28 131.23 6.5C131.17 6.72 131.056 6.95333 130.89 7.2C130.73 7.44 130.493 7.71333 130.18 8.02L127.51 10.64L127.31 10.36H131.65V11H126.74Z" fill="#3392FF"/>
<path opacity="0.15" d="M191.137 11.06C190.631 11.06 190.151 10.98 189.697 10.82C189.251 10.6533 188.891 10.4333 188.617 10.16L188.967 9.59C189.194 9.82333 189.497 10.0167 189.877 10.17C190.264 10.3233 190.684 10.4 191.137 10.4C191.717 10.4 192.161 10.2733 192.467 10.02C192.781 9.76667 192.937 9.42667 192.937 9C192.937 8.57333 192.784 8.23333 192.477 7.98C192.177 7.72667 191.701 7.6 191.047 7.6H190.547V7.07L192.707 4.36L192.807 4.64H188.907V4H193.407V4.51L191.247 7.22L190.897 6.99H191.167C192.007 6.99 192.634 7.17667 193.047 7.55C193.467 7.92333 193.677 8.40333 193.677 8.99C193.677 9.38333 193.584 9.73667 193.397 10.05C193.211 10.3633 192.927 10.61 192.547 10.79C192.174 10.97 191.704 11.06 191.137 11.06Z" fill="#E8F1F9"/>
<path opacity="0.15" d="M251.105 9.16V8.64L254.815 4H255.615L251.935 8.64L251.545 8.52H257.175V9.16H251.105ZM255.055 11V9.16L255.075 8.52V6.9H255.775V11H255.055Z" fill="#E8F1F9"/>
<path opacity="0.15" d="M315.613 11.06C315.113 11.06 314.636 10.98 314.183 10.82C313.729 10.6533 313.369 10.4333 313.103 10.16L313.453 9.59C313.673 9.82333 313.973 10.0167 314.353 10.17C314.739 10.3233 315.156 10.4 315.603 10.4C316.196 10.4 316.646 10.27 316.953 10.01C317.266 9.74333 317.423 9.39667 317.423 8.97C317.423 8.67 317.349 8.41333 317.203 8.2C317.063 7.98 316.823 7.81 316.483 7.69C316.143 7.57 315.676 7.51 315.083 7.51H313.593L313.953 4H317.783V4.64H314.243L314.613 4.29L314.303 7.23L313.933 6.87H315.243C315.949 6.87 316.516 6.95667 316.943 7.13C317.369 7.30333 317.676 7.54667 317.863 7.86C318.056 8.16667 318.153 8.52667 318.153 8.94C318.153 9.33333 318.059 9.69333 317.873 10.02C317.686 10.34 317.406 10.5933 317.033 10.78C316.659 10.9667 316.186 11.06 315.613 11.06Z" fill="#E8F1F9"/>
<path d="M6 33L6 23" stroke="#424548" stroke-linecap="round"/>
<path d="M26 33V23" stroke="#424548" stroke-linecap="round"/>
<path d="M46 33V23" stroke="#424548" stroke-linecap="round"/>
<path d="M66 38V18" stroke="#424548" stroke-linecap="round"/>
<path d="M69 33V23" stroke="#424548" stroke-linecap="round"/>
<path d="M89 33V23" stroke="#424548" stroke-linecap="round"/>
<path d="M109 33V23" stroke="#424548" stroke-linecap="round"/>
<path d="M129 38V18" stroke="#424548" stroke-linecap="round"/>
<path d="M132 33V23" stroke="#424548" stroke-linecap="round"/>
<path d="M152 33V23" stroke="#424548" stroke-linecap="round"/>
<path d="M172 33V23" stroke="#424548" stroke-linecap="round"/>
<path d="M192 38V18" stroke="#424548" stroke-linecap="round"/>
<path d="M194 33V23" stroke="#424548" stroke-linecap="round"/>
<path d="M214 33V23" stroke="#424548" stroke-linecap="round"/>
<path d="M234 33V23" stroke="#424548" stroke-linecap="round"/>
<path d="M254 38V18" stroke="#424548" stroke-linecap="round"/>
<path d="M256 33V23" stroke="#424548" stroke-linecap="round"/>
<path d="M276 33V23" stroke="#424548" stroke-linecap="round"/>
<path d="M296 33V23" stroke="#424548" stroke-linecap="round"/>
<g filter="url(#filter2_i_358_1712)">
<path d="M4 29H316" stroke="#1B1E21" stroke-width="3" stroke-linecap="round"/>
</g>
<g filter="url(#filter3_i_358_1712)">
<path d="M4 28H129" stroke="#3392FF" stroke-width="3" stroke-linecap="round"/>
</g>
<g filter="url(#filter4_dddiiii_358_1712)">
<path d="M99 26.5614C99 21.9007 99 19.5703 99.9529 17.9201C100.789 16.4721 102.108 15.3651 103.68 14.7934C105.47 14.1418 107.765 14.5468 112.355 15.3568L127.245 17.9844C127.984 18.1148 128.354 18.1801 128.726 18.2061C129.056 18.2292 129.388 18.2292 129.719 18.2061C130.091 18.1801 130.46 18.1148 131.2 17.9844L146.089 15.3568C150.679 14.5468 152.974 14.1418 154.765 14.7934C156.336 15.3651 157.656 16.4721 158.492 17.9201C159.444 19.5703 159.444 21.9007 159.444 26.5614V31.4386C159.444 36.0993 159.444 38.4297 158.492 40.0799C157.656 41.5279 156.336 42.6349 154.765 43.2066C152.974 43.8582 150.679 43.4532 146.089 42.6432L131.2 40.0156C130.46 39.8852 130.091 39.8199 129.719 39.7939C129.388 39.7708 129.056 39.7708 128.726 39.7939C128.354 39.8199 127.984 39.8852 127.245 40.0156L112.355 42.6432C107.765 43.4532 105.47 43.8582 103.68 43.2066C102.108 42.6349 100.789 41.5279 99.9529 40.0799C99 38.4297 99 36.0993 99 31.4386V26.5614Z" fill="url(#paint2_diamond_358_1712)"/>
</g>
<g filter="url(#filter5_iii_358_1712)">
<mask id="mask0_358_1712" style="mask-type:alpha" maskUnits="userSpaceOnUse" x="99" y="14" width="61" height="30">
<path d="M99 26.5614C99 21.9007 99 19.5703 99.9529 17.9201C100.789 16.4721 102.108 15.3651 103.68 14.7934C105.47 14.1418 107.765 14.5468 112.355 15.3568L127.245 17.9844C127.984 18.1148 128.354 18.1801 128.726 18.2061C129.056 18.2292 129.388 18.2292 129.719 18.2061C130.091 18.1801 130.46 18.1148 131.2 17.9844L146.089 15.3568C150.679 14.5468 152.974 14.1418 154.765 14.7934C156.336 15.3651 157.656 16.4721 158.492 17.9201C159.444 19.5703 159.444 21.9007 159.444 26.5614V31.4386C159.444 36.0993 159.444 38.4297 158.492 40.0799C157.656 41.5279 156.336 42.6349 154.765 43.2066C152.974 43.8582 150.679 43.4532 146.089 42.6432L131.2 40.0156C130.46 39.8852 130.091 39.8199 129.719 39.7939C129.388 39.7708 129.056 39.7708 128.726 39.7939C128.354 39.8199 127.984 39.8852 127.245 40.0156L112.355 42.6432C107.765 43.4532 105.47 43.8582 103.68 43.2066C102.108 42.6349 100.789 41.5279 99.9529 40.0799C99 38.4297 99 36.0993 99 31.4386V26.5614Z" fill="url(#paint3_radial_358_1712)"/>
</mask>
<g mask="url(#mask0_358_1712)">
<line x1="107.6" y1="13" x2="107.6" y2="44.9998" stroke="#202222" stroke-width="1.2"/>
<line x1="114.533" y1="13" x2="114.533" y2="44.9998" stroke="#202222" stroke-width="1.2"/>
<line x1="120.933" y1="13" x2="120.933" y2="44.9998" stroke="#202222" stroke-width="1.2"/>
<line x1="128.867" y1="17.2666" x2="128.867" y2="42.1554" stroke="#202222" stroke-width="4.26667"/>
<path d="M143.8 13L143.8 44.9998" stroke="#202222" stroke-width="1.2"/>
<path d="M137.4 13L137.4 44.9998" stroke="#202222" stroke-width="1.2"/>
<line x1="151.6" y1="13" x2="151.6" y2="44.9998" stroke="#202222" stroke-width="1.2"/>
</g>
</g>
<g filter="url(#filter6_ddii_358_1712)">
<path d="M36 89.5614C36 84.9007 36 82.5703 36.9529 80.9201C37.7889 79.4721 39.1084 78.3651 40.6796 77.7934C42.4703 77.1418 44.7653 77.5468 49.3551 78.3568L64.2449 80.9844C64.9841 81.1148 65.3537 81.1801 65.7258 81.2061C66.0563 81.2292 66.3881 81.2292 66.7187 81.2061C67.0907 81.1801 67.4603 81.1148 68.1995 80.9844L83.0894 78.3568C87.6792 77.5468 89.9741 77.1418 91.7648 77.7934C93.336 78.3651 94.6555 79.4721 95.4916 80.9201C96.4444 82.5703 96.4444 84.9007 96.4444 89.5614V94.4386C96.4444 99.0993 96.4444 101.43 95.4916 103.08C94.6555 104.528 93.336 105.635 91.7648 106.207C89.9741 106.858 87.6792 106.453 83.0894 105.643L68.1995 103.016C67.4603 102.885 67.0907 102.82 66.7187 102.794C66.3881 102.771 66.0563 102.771 65.7258 102.794C65.3537 102.82 64.9841 102.885 64.2449 103.016L49.3551 105.643C44.7653 106.453 42.4703 106.858 40.6796 106.207C39.1084 105.635 37.7889 104.528 36.9529 103.08C36 101.43 36 99.0993 36 94.4386V89.5614Z" fill="url(#paint4_diamond_358_1712)"/>
</g>
</g>
<defs>
<filter id="filter0_di_358_1712" x="158.933" y="-169.486" width="204.8" height="173.417" filterUnits="userSpaceOnUse" color-interpolation-filters="sRGB">
<feFlood flood-opacity="0" result="BackgroundImageFix"/>
<feColorMatrix in="SourceAlpha" type="matrix" values="0 0 0 0 0 0 0 0 0 0 0 0 0 0 0 0 0 0 127 0" result="hardAlpha"/>
<feOffset dx="7.11112" dy="14.2222"/>
<feGaussianBlur stdDeviation="36.0889"/>
<feComposite in2="hardAlpha" operator="out"/>
<feColorMatrix type="matrix" values="0 0 0 0 0 0 0 0 0 0 0 0 0 0 0 0 0 0 0.7 0"/>
<feBlend mode="normal" in2="BackgroundImageFix" result="effect1_dropShadow_358_1712"/>
<feBlend mode="normal" in="SourceGraphic" in2="effect1_dropShadow_358_1712" result="shape"/>
<feColorMatrix in="SourceAlpha" type="matrix" values="0 0 0 0 0 0 0 0 0 0 0 0 0 0 0 0 0 0 127 0" result="hardAlpha"/>
<feOffset/>
<feGaussianBlur stdDeviation="65.7779"/>
<feComposite in2="hardAlpha" operator="arithmetic" k2="-1" k3="1"/>
<feColorMatrix type="matrix" values="0 0 0 0 0.262044 0 0 0 0 0.262044 0 0 0 0 0.262044 0 0 0 0.29 0"/>
<feBlend mode="normal" in2="shape" result="effect2_innerShadow_358_1712"/>
</filter>
<filter id="filter1_ddiii_358_1712" x="92.6082" y="-115.471" width="209.125" height="182.401" filterUnits="userSpaceOnUse" color-interpolation-filters="sRGB">
<feFlood flood-opacity="0" result="BackgroundImageFix"/>
<feColorMatrix in="SourceAlpha" type="matrix" values="0 0 0 0 0 0 0 0 0 0 0 0 0 0 0 0 0 0 127 0" result="hardAlpha"/>
<feOffset dx="7.11112" dy="14.2222"/>
<feGaussianBlur stdDeviation="36.0889"/>
<feComposite in2="hardAlpha" operator="out"/>
<feColorMatrix type="matrix" values="0 0 0 0 0 0 0 0 0 0 0 0 0 0 0 0 0 0 0.7 0"/>
<feBlend mode="normal" in2="BackgroundImageFix" result="effect1_dropShadow_358_1712"/>
<feColorMatrix in="SourceAlpha" type="matrix" values="0 0 0 0 0 0 0 0 0 0 0 0 0 0 0 0 0 0 127 0" result="hardAlpha"/>
<feOffset dx="-19.614" dy="-17.1622"/>
<feGaussianBlur stdDeviation="24.8889"/>
<feComposite in2="hardAlpha" operator="out"/>
<feColorMatrix type="matrix" values="0 0 0 0 1 0 0 0 0 1 0 0 0 0 1 0 0 0 0.11 0"/>
<feBlend mode="normal" in2="effect1_dropShadow_358_1712" result="effect2_dropShadow_358_1712"/>
<feBlend mode="normal" in="SourceGraphic" in2="effect2_dropShadow_358_1712" result="shape"/>
<feColorMatrix in="SourceAlpha" type="matrix" values="0 0 0 0 0 0 0 0 0 0 0 0 0 0 0 0 0 0 127 0" result="hardAlpha"/>
<feOffset/>
<feGaussianBlur stdDeviation="65.7779"/>
<feComposite in2="hardAlpha" operator="arithmetic" k2="-1" k3="1"/>
<feColorMatrix type="matrix" values="0 0 0 0 0.262044 0 0 0 0 0.262044 0 0 0 0 0.262044 0 0 0 0.29 0"/>
<feBlend mode="normal" in2="shape" result="effect3_innerShadow_358_1712"/>
<feColorMatrix in="SourceAlpha" type="matrix" values="0 0 0 0 0 0 0 0 0 0 0 0 0 0 0 0 0 0 127 0" result="hardAlpha"/>
<feOffset dx="17.7778" dy="24.8889"/>
<feGaussianBlur stdDeviation="14.7556"/>
<feComposite in2="hardAlpha" operator="arithmetic" k2="-1" k3="1"/>
<feColorMatrix type="matrix" values="0 0 0 0 0.358773 0 0 0 0 0.358773 0 0 0 0 0.358773 0 0 0 0.25 0"/>
<feBlend mode="normal" in2="effect3_innerShadow_358_1712" result="effect4_innerShadow_358_1712"/>
<feColorMatrix in="SourceAlpha" type="matrix" values="0 0 0 0 0 0 0 0 0 0 0 0 0 0 0 0 0 0 127 0" result="hardAlpha"/>
<feOffset dx="-21.3334" dy="-21.3334"/>
<feGaussianBlur stdDeviation="42.6667"/>
<feComposite in2="hardAlpha" operator="arithmetic" k2="-1" k3="1"/>
<feColorMatrix type="matrix" values="0 0 0 0 0 0 0 0 0 0 0 0 0 0 0 0 0 0 0.37 0"/>
<feBlend mode="normal" in2="effect4_innerShadow_358_1712" result="effect5_innerShadow_358_1712"/>
</filter>
<filter id="filter2_i_358_1712" x="2.5" y="26.5" width="315" height="4" filterUnits="userSpaceOnUse" color-interpolation-filters="sRGB">
<feFlood flood-opacity="0" result="BackgroundImageFix"/>
<feBlend mode="normal" in="SourceGraphic" in2="BackgroundImageFix" result="shape"/>
<feColorMatrix in="SourceAlpha" type="matrix" values="0 0 0 0 0 0 0 0 0 0 0 0 0 0 0 0 0 0 127 0" result="hardAlpha"/>
<feOffset dy="-1"/>
<feGaussianBlur stdDeviation="1"/>
<feComposite in2="hardAlpha" operator="arithmetic" k2="-1" k3="1"/>
<feColorMatrix type="matrix" values="0 0 0 0 1 0 0 0 0 1 0 0 0 0 1 0 0 0 0.13 0"/>
<feBlend mode="normal" in2="shape" result="effect1_innerShadow_358_1712"/>
</filter>
<filter id="filter3_i_358_1712" x="2.5" y="26.5" width="128" height="5" filterUnits="userSpaceOnUse" color-interpolation-filters="sRGB">
<feFlood flood-opacity="0" result="BackgroundImageFix"/>
<feBlend mode="normal" in="SourceGraphic" in2="BackgroundImageFix" result="shape"/>
<feColorMatrix in="SourceAlpha" type="matrix" values="0 0 0 0 0 0 0 0 0 0 0 0 0 0 0 0 0 0 127 0" result="hardAlpha"/>
<feOffset dy="2"/>
<feGaussianBlur stdDeviation="1"/>
<feComposite in2="hardAlpha" operator="arithmetic" k2="-1" k3="1"/>
<feColorMatrix type="matrix" values="0 0 0 0 0.138395 0 0 0 0 0.133717 0 0 0 0 0.133717 0 0 0 1 0"/>
<feBlend mode="normal" in2="shape" result="effect1_innerShadow_358_1712"/>
</filter>
<filter id="filter4_dddiiii_358_1712" x="29.6082" y="-52.4706" width="209.125" height="182.401" filterUnits="userSpaceOnUse" color-interpolation-filters="sRGB">
<feFlood flood-opacity="0" result="BackgroundImageFix"/>
<feColorMatrix in="SourceAlpha" type="matrix" values="0 0 0 0 0 0 0 0 0 0 0 0 0 0 0 0 0 0 127 0" result="hardAlpha"/>
<feOffset dx="7.11112" dy="14.2222"/>
<feGaussianBlur stdDeviation="36.0889"/>
<feComposite in2="hardAlpha" operator="out"/>
<feColorMatrix type="matrix" values="0 0 0 0 0 0 0 0 0 0 0 0 0 0 0 0 0 0 0.7 0"/>
<feBlend mode="normal" in2="BackgroundImageFix" result="effect1_dropShadow_358_1712"/>
<feColorMatrix in="SourceAlpha" type="matrix" values="0 0 0 0 0 0 0 0 0 0 0 0 0 0 0 0 0 0 127 0" result="hardAlpha"/>
<feOffset dx="-19.614" dy="-17.1622"/>
<feGaussianBlur stdDeviation="24.8889"/>
<feComposite in2="hardAlpha" operator="out"/>
<feColorMatrix type="matrix" values="0 0 0 0 1 0 0 0 0 1 0 0 0 0 1 0 0 0 0.11 0"/>
<feBlend mode="normal" in2="effect1_dropShadow_358_1712" result="effect2_dropShadow_358_1712"/>
<feColorMatrix in="SourceAlpha" type="matrix" values="0 0 0 0 0 0 0 0 0 0 0 0 0 0 0 0 0 0 127 0" result="hardAlpha"/>
<feOffset dx="-7.11112" dy="-3.55556"/>
<feGaussianBlur stdDeviation="6.22223"/>
<feComposite in2="hardAlpha" operator="out"/>
<feColorMatrix type="matrix" values="0 0 0 0 0 0 0 0 0 0 0 0 0 0 0 0 0 0 0.25 0"/>
<feBlend mode="normal" in2="effect2_dropShadow_358_1712" result="effect3_dropShadow_358_1712"/>
<feBlend mode="normal" in="SourceGraphic" in2="effect3_dropShadow_358_1712" result="shape"/>
<feColorMatrix in="SourceAlpha" type="matrix" values="0 0 0 0 0 0 0 0 0 0 0 0 0 0 0 0 0 0 127 0" result="hardAlpha"/>
<feOffset/>
<feGaussianBlur stdDeviation="65.7779"/>
<feComposite in2="hardAlpha" operator="arithmetic" k2="-1" k3="1"/>
<feColorMatrix type="matrix" values="0 0 0 0 0.262044 0 0 0 0 0.262044 0 0 0 0 0.262044 0 0 0 0.29 0"/>
<feBlend mode="normal" in2="shape" result="effect4_innerShadow_358_1712"/>
<feColorMatrix in="SourceAlpha" type="matrix" values="0 0 0 0 0 0 0 0 0 0 0 0 0 0 0 0 0 0 127 0" result="hardAlpha"/>
<feOffset dx="17.7778" dy="24.8889"/>
<feGaussianBlur stdDeviation="14.7556"/>
<feComposite in2="hardAlpha" operator="arithmetic" k2="-1" k3="1"/>
<feColorMatrix type="matrix" values="0 0 0 0 0.358773 0 0 0 0 0.358773 0 0 0 0 0.358773 0 0 0 0.25 0"/>
<feBlend mode="normal" in2="effect4_innerShadow_358_1712" result="effect5_innerShadow_358_1712"/>
<feColorMatrix in="SourceAlpha" type="matrix" values="0 0 0 0 0 0 0 0 0 0 0 0 0 0 0 0 0 0 127 0" result="hardAlpha"/>
<feOffset dx="-21.3334" dy="-21.3334"/>
<feGaussianBlur stdDeviation="42.6667"/>
<feComposite in2="hardAlpha" operator="arithmetic" k2="-1" k3="1"/>
<feColorMatrix type="matrix" values="0 0 0 0 0 0 0 0 0 0 0 0 0 0 0 0 0 0 0.37 0"/>
<feBlend mode="normal" in2="effect5_innerShadow_358_1712" result="effect6_innerShadow_358_1712"/>
<feColorMatrix in="SourceAlpha" type="matrix" values="0 0 0 0 0 0 0 0 0 0 0 0 0 0 0 0 0 0 127 0" result="hardAlpha"/>
<feOffset dx="3.55556" dy="3.55556"/>
<feComposite in2="hardAlpha" operator="arithmetic" k2="-1" k3="1"/>
<feColorMatrix type="matrix" values="0 0 0 0 1 0 0 0 0 1 0 0 0 0 1 0 0 0 0.04 0"/>
<feBlend mode="normal" in2="effect6_innerShadow_358_1712" result="effect7_innerShadow_358_1712"/>
</filter>
<filter id="filter5_iii_358_1712" x="107" y="14.4695" width="45.2" height="29.8978" filterUnits="userSpaceOnUse" color-interpolation-filters="sRGB">
<feFlood flood-opacity="0" result="BackgroundImageFix"/>
<feBlend mode="normal" in="SourceGraphic" in2="BackgroundImageFix" result="shape"/>
<feColorMatrix in="SourceAlpha" type="matrix" values="0 0 0 0 0 0 0 0 0 0 0 0 0 0 0 0 0 0 127 0" result="hardAlpha"/>
<feOffset dy="0.836751"/>
<feGaussianBlur stdDeviation="0.418375"/>
<feComposite in2="hardAlpha" operator="arithmetic" k2="-1" k3="1"/>
<feColorMatrix type="matrix" values="0 0 0 0 0 0 0 0 0 0 0 0 0 0 0 0 0 0 0.25 0"/>
<feBlend mode="normal" in2="shape" result="effect1_innerShadow_358_1712"/>
<feColorMatrix in="SourceAlpha" type="matrix" values="0 0 0 0 0 0 0 0 0 0 0 0 0 0 0 0 0 0 127 0" result="hardAlpha"/>
<feOffset dy="0.836751"/>
<feGaussianBlur stdDeviation="0.418375"/>
<feComposite in2="hardAlpha" operator="arithmetic" k2="-1" k3="1"/>
<feColorMatrix type="matrix" values="0 0 0 0 0 0 0 0 0 0 0 0 0 0 0 0 0 0 0.25 0"/>
<feBlend mode="normal" in2="effect1_innerShadow_358_1712" result="effect2_innerShadow_358_1712"/>
<feColorMatrix in="SourceAlpha" type="matrix" values="0 0 0 0 0 0 0 0 0 0 0 0 0 0 0 0 0 0 127 0" result="hardAlpha"/>
<feOffset dy="0.836751"/>
<feGaussianBlur stdDeviation="0.418375"/>
<feComposite in2="hardAlpha" operator="arithmetic" k2="-1" k3="1"/>
<feColorMatrix type="matrix" values="0 0 0 0 0 0 0 0 0 0 0 0 0 0 0 0 0 0 0.25 0"/>
<feBlend mode="normal" in2="effect2_innerShadow_358_1712" result="effect3_innerShadow_358_1712"/>
</filter>
<filter id="filter6_ddii_358_1712" x="-33.3918" y="10.5294" width="209.125" height="182.401" filterUnits="userSpaceOnUse" color-interpolation-filters="sRGB">
<feFlood flood-opacity="0" result="BackgroundImageFix"/>
<feColorMatrix in="SourceAlpha" type="matrix" values="0 0 0 0 0 0 0 0 0 0 0 0 0 0 0 0 0 0 127 0" result="hardAlpha"/>
<feOffset dx="7.11112" dy="14.2222"/>
<feGaussianBlur stdDeviation="36.0889"/>
<feComposite in2="hardAlpha" operator="out"/>
<feColorMatrix type="matrix" values="0 0 0 0 0 0 0 0 0 0 0 0 0 0 0 0 0 0 0.7 0"/>
<feBlend mode="normal" in2="BackgroundImageFix" result="effect1_dropShadow_358_1712"/>
<feColorMatrix in="SourceAlpha" type="matrix" values="0 0 0 0 0 0 0 0 0 0 0 0 0 0 0 0 0 0 127 0" result="hardAlpha"/>
<feOffset dx="-19.614" dy="-17.1622"/>
<feGaussianBlur stdDeviation="24.8889"/>
<feComposite in2="hardAlpha" operator="out"/>
<feColorMatrix type="matrix" values="0 0 0 0 1 0 0 0 0 1 0 0 0 0 1 0 0 0 0.11 0"/>
<feBlend mode="normal" in2="effect1_dropShadow_358_1712" result="effect2_dropShadow_358_1712"/>
<feBlend mode="normal" in="SourceGraphic" in2="effect2_dropShadow_358_1712" result="shape"/>
<feColorMatrix in="SourceAlpha" type="matrix" values="0 0 0 0 0 0 0 0 0 0 0 0 0 0 0 0 0 0 127 0" result="hardAlpha"/>
<feOffset/>
<feGaussianBlur stdDeviation="65.7779"/>
<feComposite in2="hardAlpha" operator="arithmetic" k2="-1" k3="1"/>
<feColorMatrix type="matrix" values="0 0 0 0 0.262044 0 0 0 0 0.262044 0 0 0 0 0.262044 0 0 0 0.29 0"/>
<feBlend mode="normal" in2="shape" result="effect3_innerShadow_358_1712"/>
<feColorMatrix in="SourceAlpha" type="matrix" values="0 0 0 0 0 0 0 0 0 0 0 0 0 0 0 0 0 0 127 0" result="hardAlpha"/>
<feOffset dx="-21.3334" dy="-21.3334"/>
<feGaussianBlur stdDeviation="42.6667"/>
<feComposite in2="hardAlpha" operator="arithmetic" k2="-1" k3="1"/>
<feColorMatrix type="matrix" values="0 0 0 0 0 0 0 0 0 0 0 0 0 0 0 0 0 0 0.37 0"/>
<feBlend mode="normal" in2="effect3_innerShadow_358_1712" result="effect4_innerShadow_358_1712"/>
</filter>
<radialGradient id="paint0_diamond_358_1712" cx="0" cy="0" r="1" gradientUnits="userSpaceOnUse" gradientTransform="translate(254 -95) rotate(180) scale(8 43.0042)">
<stop stop-color="#142333"/>
<stop offset="1" stop-color="#354556"/>
</radialGradient>
<radialGradient id="paint1_diamond_358_1712" cx="0" cy="0" r="1" gradientUnits="userSpaceOnUse" gradientTransform="translate(192 -32) rotate(180) scale(8 43.0042)">
<stop stop-color="#142333"/>
<stop offset="1" stop-color="#354556"/>
</radialGradient>
<radialGradient id="paint2_diamond_358_1712" cx="0" cy="0" r="1" gradientUnits="userSpaceOnUse" gradientTransform="translate(129 31) rotate(180) scale(8 43.0042)">
<stop stop-color="#142333"/>
<stop offset="1" stop-color="#354556"/>
</radialGradient>
<radialGradient id="paint3_radial_358_1712" cx="0" cy="0" r="1" gradientUnits="userSpaceOnUse" gradientTransform="translate(121 32.5556) rotate(-180) scale(12 105.209)">
<stop stop-color="#142333"/>
<stop offset="1" stop-color="#2B3845"/>
</radialGradient>
<radialGradient id="paint4_diamond_358_1712" cx="0" cy="0" r="1" gradientUnits="userSpaceOnUse" gradientTransform="translate(66 94) rotate(180) scale(8 43.0042)">
<stop stop-color="#142333"/>
<stop offset="1" stop-color="#354556"/>
</radialGradient>
<clipPath id="clip0_358_1712">
<rect width="390" height="844" fill="white" transform="translate(-21 -567)"/>
</clipPath>
</defs>
</svg>
