<svg width="344" height="58" viewBox="0 0 344 58" fill="none" xmlns="http://www.w3.org/2000/svg">
<g clip-path="url(#clip0_358_1712)">
<path opacity="0.15" d="M62.9119 12V5.3L63.2319 5.64H61.2619V5H63.6319V12H62.9119Z" fill="#E8F1F9"/>
<path opacity="0.15" d="M123.74 12V11.49L126.65 8.64C126.916 8.38 127.116 8.15333 127.25 7.96C127.383 7.76 127.473 7.57333 127.52 7.4C127.566 7.22667 127.59 7.06333 127.59 6.91C127.59 6.50333 127.45 6.18333 127.17 5.95C126.896 5.71667 126.49 5.6 125.95 5.6C125.536 5.6 125.17 5.66333 124.85 5.79C124.536 5.91667 124.266 6.11333 124.04 6.38L123.53 5.94C123.803 5.62 124.153 5.37333 124.58 5.2C125.006 5.02667 125.483 4.94 126.01 4.94C126.483 4.94 126.893 5.01667 127.24 5.17C127.586 5.31667 127.853 5.53333 128.04 5.82C128.233 6.10667 128.33 6.44333 128.33 6.83C128.33 7.05667 128.296 7.28 128.23 7.5C128.17 7.72 128.056 7.95333 127.89 8.2C127.73 8.44 127.493 8.71333 127.18 9.02L124.51 11.64L124.31 11.36H128.65V12H123.74Z" fill="#E8F1F9"/>
<path opacity="0.15" d="M188.137 12.06C187.631 12.06 187.151 11.98 186.697 11.82C186.251 11.6533 185.891 11.4333 185.617 11.16L185.967 10.59C186.194 10.8233 186.497 11.0167 186.877 11.17C187.264 11.3233 187.684 11.4 188.137 11.4C188.717 11.4 189.161 11.2733 189.467 11.02C189.781 10.7667 189.937 10.4267 189.937 10C189.937 9.57333 189.784 9.23333 189.477 8.98C189.177 8.72667 188.701 8.6 188.047 8.6H187.547V8.07L189.707 5.36L189.807 5.64H185.907V5H190.407V5.51L188.247 8.22L187.897 7.99H188.167C189.007 7.99 189.634 8.17667 190.047 8.55C190.467 8.92333 190.677 9.40333 190.677 9.99C190.677 10.3833 190.584 10.7367 190.397 11.05C190.211 11.3633 189.927 11.61 189.547 11.79C189.174 11.97 188.704 12.06 188.137 12.06Z" fill="#E8F1F9"/>
<path opacity="0.15" d="M248.105 10.16V9.64L251.815 5H252.615L248.935 9.64L248.545 9.52H254.175V10.16H248.105ZM252.055 12V10.16L252.075 9.52V7.9H252.775V12H252.055Z" fill="#E8F1F9"/>
<path opacity="0.8" d="M312.613 12.06C312.113 12.06 311.636 11.98 311.183 11.82C310.729 11.6533 310.369 11.4333 310.103 11.16L310.453 10.59C310.673 10.8233 310.973 11.0167 311.353 11.17C311.739 11.3233 312.156 11.4 312.603 11.4C313.196 11.4 313.646 11.27 313.953 11.01C314.266 10.7433 314.423 10.3967 314.423 9.97C314.423 9.67 314.349 9.41333 314.203 9.2C314.063 8.98 313.823 8.81 313.483 8.69C313.143 8.57 312.676 8.51 312.083 8.51H310.593L310.953 5H314.783V5.64H311.243L311.613 5.29L311.303 8.23L310.933 7.87H312.243C312.949 7.87 313.516 7.95667 313.943 8.13C314.369 8.30333 314.676 8.54667 314.863 8.86C315.056 9.16667 315.153 9.52667 315.153 9.94C315.153 10.3333 315.059 10.6933 314.873 11.02C314.686 11.34 314.406 11.5933 314.033 11.78C313.659 11.9667 313.186 12.06 312.613 12.06Z" fill="#3392FF"/>
<path d="M3 34L3 24" stroke="#424548" stroke-linecap="round"/>
<path d="M23 34V24" stroke="#424548" stroke-linecap="round"/>
<path d="M43 34V24" stroke="#424548" stroke-linecap="round"/>
<path d="M63 39V19" stroke="#424548" stroke-linecap="round"/>
<path d="M66 34V24" stroke="#424548" stroke-linecap="round"/>
<path d="M86 34V24" stroke="#424548" stroke-linecap="round"/>
<path d="M106 34V24" stroke="#424548" stroke-linecap="round"/>
<path d="M126 39V19" stroke="#424548" stroke-linecap="round"/>
<path d="M129 34V24" stroke="#424548" stroke-linecap="round"/>
<path d="M149 34V24" stroke="#424548" stroke-linecap="round"/>
<path d="M169 34V24" stroke="#424548" stroke-linecap="round"/>
<path d="M189 39V19" stroke="#424548" stroke-linecap="round"/>
<path d="M191 34V24" stroke="#424548" stroke-linecap="round"/>
<path d="M211 34V24" stroke="#424548" stroke-linecap="round"/>
<path d="M231 34V24" stroke="#424548" stroke-linecap="round"/>
<path d="M251 39V19" stroke="#424548" stroke-linecap="round"/>
<path d="M253 34V24" stroke="#424548" stroke-linecap="round"/>
<path d="M273 34V24" stroke="#424548" stroke-linecap="round"/>
<path d="M293 34V24" stroke="#424548" stroke-linecap="round"/>
<g filter="url(#filter0_i_358_1712)">
<path d="M1 30H313" stroke="#1B1E21" stroke-width="3" stroke-linecap="round"/>
</g>
<g filter="url(#filter1_i_358_1712)">
<path d="M1 29H312" stroke="#3392FF" stroke-width="3" stroke-linecap="round"/>
</g>
<g filter="url(#filter2_dddiiii_358_1712)">
<path d="M283 27.5614C283 22.9007 283 20.5703 283.953 18.9201C284.789 17.4721 286.108 16.3651 287.68 15.7934C289.47 15.1418 291.765 15.5468 296.355 16.3568L311.245 18.9844C311.984 19.1148 312.354 19.1801 312.726 19.2061C313.056 19.2292 313.388 19.2292 313.719 19.2061C314.091 19.1801 314.46 19.1148 315.2 18.9844L330.089 16.3568C334.679 15.5468 336.974 15.1418 338.765 15.7934C340.336 16.3651 341.656 17.4721 342.492 18.9201C343.444 20.5703 343.444 22.9007 343.444 27.5614V32.4386C343.444 37.0993 343.444 39.4297 342.492 41.0799C341.656 42.5279 340.336 43.6349 338.765 44.2066C336.974 44.8582 334.679 44.4532 330.089 43.6432L315.2 41.0156C314.46 40.8852 314.091 40.8199 313.719 40.7939C313.388 40.7708 313.056 40.7708 312.726 40.7939C312.354 40.8199 311.984 40.8852 311.245 41.0156L296.355 43.6432C291.765 44.4532 289.47 44.8582 287.68 44.2066C286.108 43.6349 284.789 42.5279 283.953 41.0799C283 39.4297 283 37.0993 283 32.4386V27.5614Z" fill="url(#paint0_diamond_358_1712)"/>
</g>
<g filter="url(#filter3_iii_358_1712)">
<mask id="mask0_358_1712" style="mask-type:alpha" maskUnits="userSpaceOnUse" x="283" y="15" width="61" height="30">
<path d="M283 27.5614C283 22.9007 283 20.5703 283.953 18.9201C284.789 17.4721 286.108 16.3651 287.68 15.7934C289.47 15.1418 291.765 15.5468 296.355 16.3568L311.245 18.9844C311.984 19.1148 312.354 19.1801 312.726 19.2061C313.056 19.2292 313.388 19.2292 313.719 19.2061C314.091 19.1801 314.46 19.1148 315.2 18.9844L330.089 16.3568C334.679 15.5468 336.974 15.1418 338.765 15.7934C340.336 16.3651 341.656 17.4721 342.492 18.9201C343.444 20.5703 343.444 22.9007 343.444 27.5614V32.4386C343.444 37.0993 343.444 39.4297 342.492 41.0799C341.656 42.5279 340.336 43.6349 338.765 44.2066C336.974 44.8582 334.679 44.4532 330.089 43.6432L315.2 41.0156C314.46 40.8852 314.091 40.8199 313.719 40.7939C313.388 40.7708 313.056 40.7708 312.726 40.7939C312.354 40.8199 311.984 40.8852 311.245 41.0156L296.355 43.6432C291.765 44.4532 289.47 44.8582 287.68 44.2066C286.108 43.6349 284.789 42.5279 283.953 41.0799C283 39.4297 283 37.0993 283 32.4386V27.5614Z" fill="url(#paint1_radial_358_1712)"/>
</mask>
<g mask="url(#mask0_358_1712)">
<line x1="291.6" y1="14" x2="291.6" y2="45.9998" stroke="#202222" stroke-width="1.2"/>
<line x1="298.533" y1="14" x2="298.533" y2="45.9998" stroke="#202222" stroke-width="1.2"/>
<line x1="304.933" y1="14" x2="304.933" y2="45.9998" stroke="#202222" stroke-width="1.2"/>
<line x1="312.867" y1="18.2666" x2="312.867" y2="43.1554" stroke="#202222" stroke-width="4.26667"/>
<path d="M327.8 14L327.8 45.9998" stroke="#202222" stroke-width="1.2"/>
<path d="M321.4 14L321.4 45.9998" stroke="#202222" stroke-width="1.2"/>
<line x1="335.6" y1="14" x2="335.6" y2="45.9998" stroke="#202222" stroke-width="1.2"/>
</g>
</g>
</g>
<defs>
<filter id="filter0_i_358_1712" x="-0.5" y="27.5" width="315" height="4" filterUnits="userSpaceOnUse" color-interpolation-filters="sRGB">
<feFlood flood-opacity="0" result="BackgroundImageFix"/>
<feBlend mode="normal" in="SourceGraphic" in2="BackgroundImageFix" result="shape"/>
<feColorMatrix in="SourceAlpha" type="matrix" values="0 0 0 0 0 0 0 0 0 0 0 0 0 0 0 0 0 0 127 0" result="hardAlpha"/>
<feOffset dy="-1"/>
<feGaussianBlur stdDeviation="1"/>
<feComposite in2="hardAlpha" operator="arithmetic" k2="-1" k3="1"/>
<feColorMatrix type="matrix" values="0 0 0 0 1 0 0 0 0 1 0 0 0 0 1 0 0 0 0.13 0"/>
<feBlend mode="normal" in2="shape" result="effect1_innerShadow_358_1712"/>
</filter>
<filter id="filter1_i_358_1712" x="-0.5" y="27.5" width="314" height="5" filterUnits="userSpaceOnUse" color-interpolation-filters="sRGB">
<feFlood flood-opacity="0" result="BackgroundImageFix"/>
<feBlend mode="normal" in="SourceGraphic" in2="BackgroundImageFix" result="shape"/>
<feColorMatrix in="SourceAlpha" type="matrix" values="0 0 0 0 0 0 0 0 0 0 0 0 0 0 0 0 0 0 127 0" result="hardAlpha"/>
<feOffset dy="2"/>
<feGaussianBlur stdDeviation="1"/>
<feComposite in2="hardAlpha" operator="arithmetic" k2="-1" k3="1"/>
<feColorMatrix type="matrix" values="0 0 0 0 0.138395 0 0 0 0 0.133717 0 0 0 0 0.133717 0 0 0 1 0"/>
<feBlend mode="normal" in2="shape" result="effect1_innerShadow_358_1712"/>
</filter>
<filter id="filter2_dddiiii_358_1712" x="213.608" y="-51.4706" width="209.125" height="182.401" filterUnits="userSpaceOnUse" color-interpolation-filters="sRGB">
<feFlood flood-opacity="0" result="BackgroundImageFix"/>
<feColorMatrix in="SourceAlpha" type="matrix" values="0 0 0 0 0 0 0 0 0 0 0 0 0 0 0 0 0 0 127 0" result="hardAlpha"/>
<feOffset dx="7.11112" dy="14.2222"/>
<feGaussianBlur stdDeviation="36.0889"/>
<feComposite in2="hardAlpha" operator="out"/>
<feColorMatrix type="matrix" values="0 0 0 0 0 0 0 0 0 0 0 0 0 0 0 0 0 0 0.7 0"/>
<feBlend mode="normal" in2="BackgroundImageFix" result="effect1_dropShadow_358_1712"/>
<feColorMatrix in="SourceAlpha" type="matrix" values="0 0 0 0 0 0 0 0 0 0 0 0 0 0 0 0 0 0 127 0" result="hardAlpha"/>
<feOffset dx="-19.614" dy="-17.1622"/>
<feGaussianBlur stdDeviation="24.8889"/>
<feComposite in2="hardAlpha" operator="out"/>
<feColorMatrix type="matrix" values="0 0 0 0 1 0 0 0 0 1 0 0 0 0 1 0 0 0 0.11 0"/>
<feBlend mode="normal" in2="effect1_dropShadow_358_1712" result="effect2_dropShadow_358_1712"/>
<feColorMatrix in="SourceAlpha" type="matrix" values="0 0 0 0 0 0 0 0 0 0 0 0 0 0 0 0 0 0 127 0" result="hardAlpha"/>
<feOffset dx="-7.11112" dy="-3.55556"/>
<feGaussianBlur stdDeviation="6.22223"/>
<feComposite in2="hardAlpha" operator="out"/>
<feColorMatrix type="matrix" values="0 0 0 0 0 0 0 0 0 0 0 0 0 0 0 0 0 0 0.25 0"/>
<feBlend mode="normal" in2="effect2_dropShadow_358_1712" result="effect3_dropShadow_358_1712"/>
<feBlend mode="normal" in="SourceGraphic" in2="effect3_dropShadow_358_1712" result="shape"/>
<feColorMatrix in="SourceAlpha" type="matrix" values="0 0 0 0 0 0 0 0 0 0 0 0 0 0 0 0 0 0 127 0" result="hardAlpha"/>
<feOffset/>
<feGaussianBlur stdDeviation="65.7779"/>
<feComposite in2="hardAlpha" operator="arithmetic" k2="-1" k3="1"/>
<feColorMatrix type="matrix" values="0 0 0 0 0.262044 0 0 0 0 0.262044 0 0 0 0 0.262044 0 0 0 0.29 0"/>
<feBlend mode="normal" in2="shape" result="effect4_innerShadow_358_1712"/>
<feColorMatrix in="SourceAlpha" type="matrix" values="0 0 0 0 0 0 0 0 0 0 0 0 0 0 0 0 0 0 127 0" result="hardAlpha"/>
<feOffset dx="17.7778" dy="24.8889"/>
<feGaussianBlur stdDeviation="14.7556"/>
<feComposite in2="hardAlpha" operator="arithmetic" k2="-1" k3="1"/>
<feColorMatrix type="matrix" values="0 0 0 0 0.358773 0 0 0 0 0.358773 0 0 0 0 0.358773 0 0 0 0.25 0"/>
<feBlend mode="normal" in2="effect4_innerShadow_358_1712" result="effect5_innerShadow_358_1712"/>
<feColorMatrix in="SourceAlpha" type="matrix" values="0 0 0 0 0 0 0 0 0 0 0 0 0 0 0 0 0 0 127 0" result="hardAlpha"/>
<feOffset dx="-21.3334" dy="-21.3334"/>
<feGaussianBlur stdDeviation="42.6667"/>
<feComposite in2="hardAlpha" operator="arithmetic" k2="-1" k3="1"/>
<feColorMatrix type="matrix" values="0 0 0 0 0 0 0 0 0 0 0 0 0 0 0 0 0 0 0.37 0"/>
<feBlend mode="normal" in2="effect5_innerShadow_358_1712" result="effect6_innerShadow_358_1712"/>
<feColorMatrix in="SourceAlpha" type="matrix" values="0 0 0 0 0 0 0 0 0 0 0 0 0 0 0 0 0 0 127 0" result="hardAlpha"/>
<feOffset dx="3.55556" dy="3.55556"/>
<feComposite in2="hardAlpha" operator="arithmetic" k2="-1" k3="1"/>
<feColorMatrix type="matrix" values="0 0 0 0 1 0 0 0 0 1 0 0 0 0 1 0 0 0 0.04 0"/>
<feBlend mode="normal" in2="effect6_innerShadow_358_1712" result="effect7_innerShadow_358_1712"/>
</filter>
<filter id="filter3_iii_358_1712" x="291" y="15.4695" width="45.2" height="29.8978" filterUnits="userSpaceOnUse" color-interpolation-filters="sRGB">
<feFlood flood-opacity="0" result="BackgroundImageFix"/>
<feBlend mode="normal" in="SourceGraphic" in2="BackgroundImageFix" result="shape"/>
<feColorMatrix in="SourceAlpha" type="matrix" values="0 0 0 0 0 0 0 0 0 0 0 0 0 0 0 0 0 0 127 0" result="hardAlpha"/>
<feOffset dy="0.836751"/>
<feGaussianBlur stdDeviation="0.418375"/>
<feComposite in2="hardAlpha" operator="arithmetic" k2="-1" k3="1"/>
<feColorMatrix type="matrix" values="0 0 0 0 0 0 0 0 0 0 0 0 0 0 0 0 0 0 0.25 0"/>
<feBlend mode="normal" in2="shape" result="effect1_innerShadow_358_1712"/>
<feColorMatrix in="SourceAlpha" type="matrix" values="0 0 0 0 0 0 0 0 0 0 0 0 0 0 0 0 0 0 127 0" result="hardAlpha"/>
<feOffset dy="0.836751"/>
<feGaussianBlur stdDeviation="0.418375"/>
<feComposite in2="hardAlpha" operator="arithmetic" k2="-1" k3="1"/>
<feColorMatrix type="matrix" values="0 0 0 0 0 0 0 0 0 0 0 0 0 0 0 0 0 0 0.25 0"/>
<feBlend mode="normal" in2="effect1_innerShadow_358_1712" result="effect2_innerShadow_358_1712"/>
<feColorMatrix in="SourceAlpha" type="matrix" values="0 0 0 0 0 0 0 0 0 0 0 0 0 0 0 0 0 0 127 0" result="hardAlpha"/>
<feOffset dy="0.836751"/>
<feGaussianBlur stdDeviation="0.418375"/>
<feComposite in2="hardAlpha" operator="arithmetic" k2="-1" k3="1"/>
<feColorMatrix type="matrix" values="0 0 0 0 0 0 0 0 0 0 0 0 0 0 0 0 0 0 0.25 0"/>
<feBlend mode="normal" in2="effect2_innerShadow_358_1712" result="effect3_innerShadow_358_1712"/>
</filter>
<radialGradient id="paint0_diamond_358_1712" cx="0" cy="0" r="1" gradientUnits="userSpaceOnUse" gradientTransform="translate(313 32) rotate(180) scale(8 43.0042)">
<stop stop-color="#142333"/>
<stop offset="1" stop-color="#354556"/>
</radialGradient>
<radialGradient id="paint1_radial_358_1712" cx="0" cy="0" r="1" gradientUnits="userSpaceOnUse" gradientTransform="translate(305 33.5556) rotate(-180) scale(12 105.209)">
<stop stop-color="#142333"/>
<stop offset="1" stop-color="#2B3845"/>
</radialGradient>
<clipPath id="clip0_358_1712">
<rect width="390" height="844" fill="white" transform="translate(-24 -257)"/>
</clipPath>
</defs>
</svg>
