<svg width="344" height="58" viewBox="0 0 344 58" fill="none" xmlns="http://www.w3.org/2000/svg">
<g clip-path="url(#clip0_358_1712)">
<path opacity="0.15" d="M66.9119 11V4.3L67.2319 4.64H65.2619V4H67.6319V11H66.9119Z" fill="#E8F1F9"/>
<path opacity="0.15" d="M127.74 11V10.49L130.65 7.64C130.916 7.38 131.116 7.15333 131.25 6.96C131.383 6.76 131.473 6.57333 131.52 6.4C131.566 6.22667 131.59 6.06333 131.59 5.91C131.59 5.50333 131.45 5.18333 131.17 4.95C130.896 4.71667 130.49 4.6 129.95 4.6C129.536 4.6 129.17 4.66333 128.85 4.79C128.536 4.91667 128.266 5.11333 128.04 5.38L127.53 4.94C127.803 4.62 128.153 4.37333 128.58 4.2C129.006 4.02667 129.483 3.94 130.01 3.94C130.483 3.94 130.893 4.01667 131.24 4.17C131.586 4.31667 131.853 4.53333 132.04 4.82C132.233 5.10667 132.33 5.44333 132.33 5.83C132.33 6.05667 132.296 6.28 132.23 6.5C132.17 6.72 132.056 6.95333 131.89 7.2C131.73 7.44 131.493 7.71333 131.18 8.02L128.51 10.64L128.31 10.36H132.65V11H127.74Z" fill="#E8F1F9"/>
<path opacity="0.15" d="M192.137 11.06C191.631 11.06 191.151 10.98 190.697 10.82C190.251 10.6533 189.891 10.4333 189.617 10.16L189.967 9.59C190.194 9.82333 190.497 10.0167 190.877 10.17C191.264 10.3233 191.684 10.4 192.137 10.4C192.717 10.4 193.161 10.2733 193.467 10.02C193.781 9.76667 193.937 9.42667 193.937 9C193.937 8.57333 193.784 8.23333 193.477 7.98C193.177 7.72667 192.701 7.6 192.047 7.6H191.547V7.07L193.707 4.36L193.807 4.64H189.907V4H194.407V4.51L192.247 7.22L191.897 6.99H192.167C193.007 6.99 193.634 7.17667 194.047 7.55C194.467 7.92333 194.677 8.40333 194.677 8.99C194.677 9.38333 194.584 9.73667 194.397 10.05C194.211 10.3633 193.927 10.61 193.547 10.79C193.174 10.97 192.704 11.06 192.137 11.06Z" fill="#E8F1F9"/>
<path opacity="0.8" d="M252.105 9.16V8.64L255.815 4H256.615L252.935 8.64L252.545 8.52H258.175V9.16H252.105ZM256.055 11V9.16L256.075 8.52V6.9H256.775V11H256.055Z" fill="#3392FF"/>
<path opacity="0.15" d="M316.613 11.06C316.113 11.06 315.636 10.98 315.183 10.82C314.729 10.6533 314.369 10.4333 314.103 10.16L314.453 9.59C314.673 9.82333 314.973 10.0167 315.353 10.17C315.739 10.3233 316.156 10.4 316.603 10.4C317.196 10.4 317.646 10.27 317.953 10.01C318.266 9.74333 318.423 9.39667 318.423 8.97C318.423 8.67 318.349 8.41333 318.203 8.2C318.063 7.98 317.823 7.81 317.483 7.69C317.143 7.57 316.676 7.51 316.083 7.51H314.593L314.953 4H318.783V4.64H315.243L315.613 4.29L315.303 7.23L314.933 6.87H316.243C316.949 6.87 317.516 6.95667 317.943 7.13C318.369 7.30333 318.676 7.54667 318.863 7.86C319.056 8.16667 319.153 8.52667 319.153 8.94C319.153 9.33333 319.059 9.69333 318.873 10.02C318.686 10.34 318.406 10.5933 318.033 10.78C317.659 10.9667 317.186 11.06 316.613 11.06Z" fill="#E8F1F9"/>
<path d="M7 33L7 23" stroke="#424548" stroke-linecap="round"/>
<path d="M27 33V23" stroke="#424548" stroke-linecap="round"/>
<path d="M47 33V23" stroke="#424548" stroke-linecap="round"/>
<path d="M67 38V18" stroke="#424548" stroke-linecap="round"/>
<path d="M70 33V23" stroke="#424548" stroke-linecap="round"/>
<path d="M90 33V23" stroke="#424548" stroke-linecap="round"/>
<path d="M110 33V23" stroke="#424548" stroke-linecap="round"/>
<path d="M130 38V18" stroke="#424548" stroke-linecap="round"/>
<path d="M133 33V23" stroke="#424548" stroke-linecap="round"/>
<path d="M153 33V23" stroke="#424548" stroke-linecap="round"/>
<path d="M173 33V23" stroke="#424548" stroke-linecap="round"/>
<path d="M193 38V18" stroke="#424548" stroke-linecap="round"/>
<path d="M195 33V23" stroke="#424548" stroke-linecap="round"/>
<path d="M215 33V23" stroke="#424548" stroke-linecap="round"/>
<path d="M235 33V23" stroke="#424548" stroke-linecap="round"/>
<path d="M255 38V18" stroke="#424548" stroke-linecap="round"/>
<path d="M257 33V23" stroke="#424548" stroke-linecap="round"/>
<path d="M277 33V23" stroke="#424548" stroke-linecap="round"/>
<path d="M297 33V23" stroke="#424548" stroke-linecap="round"/>
<g filter="url(#filter0_i_358_1712)">
<path d="M5 29H317" stroke="#1B1E21" stroke-width="3" stroke-linecap="round"/>
</g>
<g filter="url(#filter1_i_358_1712)">
<path d="M5 28H255" stroke="#3392FF" stroke-width="3" stroke-linecap="round"/>
</g>
<g filter="url(#filter2_dddiiii_358_1712)">
<path d="M225 26.5614C225 21.9007 225 19.5703 225.953 17.9201C226.789 16.4721 228.108 15.3651 229.68 14.7934C231.47 14.1418 233.765 14.5468 238.355 15.3568L253.245 17.9844C253.984 18.1148 254.354 18.1801 254.726 18.2061C255.056 18.2292 255.388 18.2292 255.719 18.2061C256.091 18.1801 256.46 18.1148 257.2 17.9844L272.089 15.3568C276.679 14.5468 278.974 14.1418 280.765 14.7934C282.336 15.3651 283.656 16.4721 284.492 17.9201C285.444 19.5703 285.444 21.9007 285.444 26.5614V31.4386C285.444 36.0993 285.444 38.4297 284.492 40.0799C283.656 41.5279 282.336 42.6349 280.765 43.2066C278.974 43.8582 276.679 43.4532 272.089 42.6432L257.2 40.0156C256.46 39.8852 256.091 39.8199 255.719 39.7939C255.388 39.7708 255.056 39.7708 254.726 39.7939C254.354 39.8199 253.984 39.8852 253.245 40.0156L238.355 42.6432C233.765 43.4532 231.47 43.8582 229.68 43.2066C228.108 42.6349 226.789 41.5279 225.953 40.0799C225 38.4297 225 36.0993 225 31.4386V26.5614Z" fill="url(#paint0_diamond_358_1712)"/>
</g>
<g filter="url(#filter3_iii_358_1712)">
<mask id="mask0_358_1712" style="mask-type:alpha" maskUnits="userSpaceOnUse" x="225" y="14" width="61" height="30">
<path d="M225 26.5614C225 21.9007 225 19.5703 225.953 17.9201C226.789 16.4721 228.108 15.3651 229.68 14.7934C231.47 14.1418 233.765 14.5468 238.355 15.3568L253.245 17.9844C253.984 18.1148 254.354 18.1801 254.726 18.2061C255.056 18.2292 255.388 18.2292 255.719 18.2061C256.091 18.1801 256.46 18.1148 257.2 17.9844L272.089 15.3568C276.679 14.5468 278.974 14.1418 280.765 14.7934C282.336 15.3651 283.656 16.4721 284.492 17.9201C285.444 19.5703 285.444 21.9007 285.444 26.5614V31.4386C285.444 36.0993 285.444 38.4297 284.492 40.0799C283.656 41.5279 282.336 42.6349 280.765 43.2066C278.974 43.8582 276.679 43.4532 272.089 42.6432L257.2 40.0156C256.46 39.8852 256.091 39.8199 255.719 39.7939C255.388 39.7708 255.056 39.7708 254.726 39.7939C254.354 39.8199 253.984 39.8852 253.245 40.0156L238.355 42.6432C233.765 43.4532 231.47 43.8582 229.68 43.2066C228.108 42.6349 226.789 41.5279 225.953 40.0799C225 38.4297 225 36.0993 225 31.4386V26.5614Z" fill="url(#paint1_radial_358_1712)"/>
</mask>
<g mask="url(#mask0_358_1712)">
<line x1="233.6" y1="13" x2="233.6" y2="44.9998" stroke="#202222" stroke-width="1.2"/>
<line x1="240.533" y1="13" x2="240.533" y2="44.9998" stroke="#202222" stroke-width="1.2"/>
<line x1="246.933" y1="13" x2="246.933" y2="44.9998" stroke="#202222" stroke-width="1.2"/>
<line x1="254.867" y1="17.2666" x2="254.867" y2="42.1554" stroke="#202222" stroke-width="4.26667"/>
<path d="M269.8 13L269.8 44.9998" stroke="#202222" stroke-width="1.2"/>
<path d="M263.4 13L263.4 44.9998" stroke="#202222" stroke-width="1.2"/>
<line x1="277.6" y1="13" x2="277.6" y2="44.9998" stroke="#202222" stroke-width="1.2"/>
</g>
</g>
<g filter="url(#filter4_ddii_358_1712)">
<path d="M163 89.5614C163 84.9007 163 82.5703 163.953 80.9201C164.789 79.4721 166.108 78.3651 167.68 77.7934C169.47 77.1418 171.765 77.5468 176.355 78.3568L191.245 80.9844C191.984 81.1148 192.354 81.1801 192.726 81.2061C193.056 81.2292 193.388 81.2292 193.719 81.2061C194.091 81.1801 194.46 81.1148 195.2 80.9844L210.089 78.3568C214.679 77.5468 216.974 77.1418 218.765 77.7934C220.336 78.3651 221.656 79.4721 222.492 80.9201C223.444 82.5703 223.444 84.9007 223.444 89.5614V94.4386C223.444 99.0993 223.444 101.43 222.492 103.08C221.656 104.528 220.336 105.635 218.765 106.207C216.974 106.858 214.679 106.453 210.089 105.643L195.2 103.016C194.46 102.885 194.091 102.82 193.719 102.794C193.388 102.771 193.056 102.771 192.726 102.794C192.354 102.82 191.984 102.885 191.245 103.016L176.355 105.643C171.765 106.453 169.47 106.858 167.68 106.207C166.108 105.635 164.789 104.528 163.953 103.08C163 101.43 163 99.0993 163 94.4386V89.5614Z" fill="url(#paint2_diamond_358_1712)"/>
</g>
</g>
<defs>
<filter id="filter0_i_358_1712" x="3.5" y="26.5" width="315" height="4" filterUnits="userSpaceOnUse" color-interpolation-filters="sRGB">
<feFlood flood-opacity="0" result="BackgroundImageFix"/>
<feBlend mode="normal" in="SourceGraphic" in2="BackgroundImageFix" result="shape"/>
<feColorMatrix in="SourceAlpha" type="matrix" values="0 0 0 0 0 0 0 0 0 0 0 0 0 0 0 0 0 0 127 0" result="hardAlpha"/>
<feOffset dy="-1"/>
<feGaussianBlur stdDeviation="1"/>
<feComposite in2="hardAlpha" operator="arithmetic" k2="-1" k3="1"/>
<feColorMatrix type="matrix" values="0 0 0 0 1 0 0 0 0 1 0 0 0 0 1 0 0 0 0.13 0"/>
<feBlend mode="normal" in2="shape" result="effect1_innerShadow_358_1712"/>
</filter>
<filter id="filter1_i_358_1712" x="3.5" y="26.5" width="253" height="5" filterUnits="userSpaceOnUse" color-interpolation-filters="sRGB">
<feFlood flood-opacity="0" result="BackgroundImageFix"/>
<feBlend mode="normal" in="SourceGraphic" in2="BackgroundImageFix" result="shape"/>
<feColorMatrix in="SourceAlpha" type="matrix" values="0 0 0 0 0 0 0 0 0 0 0 0 0 0 0 0 0 0 127 0" result="hardAlpha"/>
<feOffset dy="2"/>
<feGaussianBlur stdDeviation="1"/>
<feComposite in2="hardAlpha" operator="arithmetic" k2="-1" k3="1"/>
<feColorMatrix type="matrix" values="0 0 0 0 0.138395 0 0 0 0 0.133717 0 0 0 0 0.133717 0 0 0 1 0"/>
<feBlend mode="normal" in2="shape" result="effect1_innerShadow_358_1712"/>
</filter>
<filter id="filter2_dddiiii_358_1712" x="155.608" y="-52.4706" width="209.125" height="182.401" filterUnits="userSpaceOnUse" color-interpolation-filters="sRGB">
<feFlood flood-opacity="0" result="BackgroundImageFix"/>
<feColorMatrix in="SourceAlpha" type="matrix" values="0 0 0 0 0 0 0 0 0 0 0 0 0 0 0 0 0 0 127 0" result="hardAlpha"/>
<feOffset dx="7.11112" dy="14.2222"/>
<feGaussianBlur stdDeviation="36.0889"/>
<feComposite in2="hardAlpha" operator="out"/>
<feColorMatrix type="matrix" values="0 0 0 0 0 0 0 0 0 0 0 0 0 0 0 0 0 0 0.7 0"/>
<feBlend mode="normal" in2="BackgroundImageFix" result="effect1_dropShadow_358_1712"/>
<feColorMatrix in="SourceAlpha" type="matrix" values="0 0 0 0 0 0 0 0 0 0 0 0 0 0 0 0 0 0 127 0" result="hardAlpha"/>
<feOffset dx="-19.614" dy="-17.1622"/>
<feGaussianBlur stdDeviation="24.8889"/>
<feComposite in2="hardAlpha" operator="out"/>
<feColorMatrix type="matrix" values="0 0 0 0 1 0 0 0 0 1 0 0 0 0 1 0 0 0 0.11 0"/>
<feBlend mode="normal" in2="effect1_dropShadow_358_1712" result="effect2_dropShadow_358_1712"/>
<feColorMatrix in="SourceAlpha" type="matrix" values="0 0 0 0 0 0 0 0 0 0 0 0 0 0 0 0 0 0 127 0" result="hardAlpha"/>
<feOffset dx="-7.11112" dy="-3.55556"/>
<feGaussianBlur stdDeviation="6.22223"/>
<feComposite in2="hardAlpha" operator="out"/>
<feColorMatrix type="matrix" values="0 0 0 0 0 0 0 0 0 0 0 0 0 0 0 0 0 0 0.25 0"/>
<feBlend mode="normal" in2="effect2_dropShadow_358_1712" result="effect3_dropShadow_358_1712"/>
<feBlend mode="normal" in="SourceGraphic" in2="effect3_dropShadow_358_1712" result="shape"/>
<feColorMatrix in="SourceAlpha" type="matrix" values="0 0 0 0 0 0 0 0 0 0 0 0 0 0 0 0 0 0 127 0" result="hardAlpha"/>
<feOffset/>
<feGaussianBlur stdDeviation="65.7779"/>
<feComposite in2="hardAlpha" operator="arithmetic" k2="-1" k3="1"/>
<feColorMatrix type="matrix" values="0 0 0 0 0.262044 0 0 0 0 0.262044 0 0 0 0 0.262044 0 0 0 0.29 0"/>
<feBlend mode="normal" in2="shape" result="effect4_innerShadow_358_1712"/>
<feColorMatrix in="SourceAlpha" type="matrix" values="0 0 0 0 0 0 0 0 0 0 0 0 0 0 0 0 0 0 127 0" result="hardAlpha"/>
<feOffset dx="17.7778" dy="24.8889"/>
<feGaussianBlur stdDeviation="14.7556"/>
<feComposite in2="hardAlpha" operator="arithmetic" k2="-1" k3="1"/>
<feColorMatrix type="matrix" values="0 0 0 0 0.358773 0 0 0 0 0.358773 0 0 0 0 0.358773 0 0 0 0.25 0"/>
<feBlend mode="normal" in2="effect4_innerShadow_358_1712" result="effect5_innerShadow_358_1712"/>
<feColorMatrix in="SourceAlpha" type="matrix" values="0 0 0 0 0 0 0 0 0 0 0 0 0 0 0 0 0 0 127 0" result="hardAlpha"/>
<feOffset dx="-21.3334" dy="-21.3334"/>
<feGaussianBlur stdDeviation="42.6667"/>
<feComposite in2="hardAlpha" operator="arithmetic" k2="-1" k3="1"/>
<feColorMatrix type="matrix" values="0 0 0 0 0 0 0 0 0 0 0 0 0 0 0 0 0 0 0.37 0"/>
<feBlend mode="normal" in2="effect5_innerShadow_358_1712" result="effect6_innerShadow_358_1712"/>
<feColorMatrix in="SourceAlpha" type="matrix" values="0 0 0 0 0 0 0 0 0 0 0 0 0 0 0 0 0 0 127 0" result="hardAlpha"/>
<feOffset dx="3.55556" dy="3.55556"/>
<feComposite in2="hardAlpha" operator="arithmetic" k2="-1" k3="1"/>
<feColorMatrix type="matrix" values="0 0 0 0 1 0 0 0 0 1 0 0 0 0 1 0 0 0 0.04 0"/>
<feBlend mode="normal" in2="effect6_innerShadow_358_1712" result="effect7_innerShadow_358_1712"/>
</filter>
<filter id="filter3_iii_358_1712" x="233" y="14.4695" width="45.2" height="29.8978" filterUnits="userSpaceOnUse" color-interpolation-filters="sRGB">
<feFlood flood-opacity="0" result="BackgroundImageFix"/>
<feBlend mode="normal" in="SourceGraphic" in2="BackgroundImageFix" result="shape"/>
<feColorMatrix in="SourceAlpha" type="matrix" values="0 0 0 0 0 0 0 0 0 0 0 0 0 0 0 0 0 0 127 0" result="hardAlpha"/>
<feOffset dy="0.836751"/>
<feGaussianBlur stdDeviation="0.418375"/>
<feComposite in2="hardAlpha" operator="arithmetic" k2="-1" k3="1"/>
<feColorMatrix type="matrix" values="0 0 0 0 0 0 0 0 0 0 0 0 0 0 0 0 0 0 0.25 0"/>
<feBlend mode="normal" in2="shape" result="effect1_innerShadow_358_1712"/>
<feColorMatrix in="SourceAlpha" type="matrix" values="0 0 0 0 0 0 0 0 0 0 0 0 0 0 0 0 0 0 127 0" result="hardAlpha"/>
<feOffset dy="0.836751"/>
<feGaussianBlur stdDeviation="0.418375"/>
<feComposite in2="hardAlpha" operator="arithmetic" k2="-1" k3="1"/>
<feColorMatrix type="matrix" values="0 0 0 0 0 0 0 0 0 0 0 0 0 0 0 0 0 0 0.25 0"/>
<feBlend mode="normal" in2="effect1_innerShadow_358_1712" result="effect2_innerShadow_358_1712"/>
<feColorMatrix in="SourceAlpha" type="matrix" values="0 0 0 0 0 0 0 0 0 0 0 0 0 0 0 0 0 0 127 0" result="hardAlpha"/>
<feOffset dy="0.836751"/>
<feGaussianBlur stdDeviation="0.418375"/>
<feComposite in2="hardAlpha" operator="arithmetic" k2="-1" k3="1"/>
<feColorMatrix type="matrix" values="0 0 0 0 0 0 0 0 0 0 0 0 0 0 0 0 0 0 0.25 0"/>
<feBlend mode="normal" in2="effect2_innerShadow_358_1712" result="effect3_innerShadow_358_1712"/>
</filter>
<filter id="filter4_ddii_358_1712" x="93.6082" y="10.5294" width="209.125" height="182.401" filterUnits="userSpaceOnUse" color-interpolation-filters="sRGB">
<feFlood flood-opacity="0" result="BackgroundImageFix"/>
<feColorMatrix in="SourceAlpha" type="matrix" values="0 0 0 0 0 0 0 0 0 0 0 0 0 0 0 0 0 0 127 0" result="hardAlpha"/>
<feOffset dx="7.11112" dy="14.2222"/>
<feGaussianBlur stdDeviation="36.0889"/>
<feComposite in2="hardAlpha" operator="out"/>
<feColorMatrix type="matrix" values="0 0 0 0 0 0 0 0 0 0 0 0 0 0 0 0 0 0 0.7 0"/>
<feBlend mode="normal" in2="BackgroundImageFix" result="effect1_dropShadow_358_1712"/>
<feColorMatrix in="SourceAlpha" type="matrix" values="0 0 0 0 0 0 0 0 0 0 0 0 0 0 0 0 0 0 127 0" result="hardAlpha"/>
<feOffset dx="-19.614" dy="-17.1622"/>
<feGaussianBlur stdDeviation="24.8889"/>
<feComposite in2="hardAlpha" operator="out"/>
<feColorMatrix type="matrix" values="0 0 0 0 1 0 0 0 0 1 0 0 0 0 1 0 0 0 0.11 0"/>
<feBlend mode="normal" in2="effect1_dropShadow_358_1712" result="effect2_dropShadow_358_1712"/>
<feBlend mode="normal" in="SourceGraphic" in2="effect2_dropShadow_358_1712" result="shape"/>
<feColorMatrix in="SourceAlpha" type="matrix" values="0 0 0 0 0 0 0 0 0 0 0 0 0 0 0 0 0 0 127 0" result="hardAlpha"/>
<feOffset/>
<feGaussianBlur stdDeviation="65.7779"/>
<feComposite in2="hardAlpha" operator="arithmetic" k2="-1" k3="1"/>
<feColorMatrix type="matrix" values="0 0 0 0 0.262044 0 0 0 0 0.262044 0 0 0 0 0.262044 0 0 0 0.29 0"/>
<feBlend mode="normal" in2="shape" result="effect3_innerShadow_358_1712"/>
<feColorMatrix in="SourceAlpha" type="matrix" values="0 0 0 0 0 0 0 0 0 0 0 0 0 0 0 0 0 0 127 0" result="hardAlpha"/>
<feOffset dx="-21.3334" dy="-21.3334"/>
<feGaussianBlur stdDeviation="42.6667"/>
<feComposite in2="hardAlpha" operator="arithmetic" k2="-1" k3="1"/>
<feColorMatrix type="matrix" values="0 0 0 0 0 0 0 0 0 0 0 0 0 0 0 0 0 0 0.37 0"/>
<feBlend mode="normal" in2="effect3_innerShadow_358_1712" result="effect4_innerShadow_358_1712"/>
</filter>
<radialGradient id="paint0_diamond_358_1712" cx="0" cy="0" r="1" gradientUnits="userSpaceOnUse" gradientTransform="translate(255 31) rotate(180) scale(8 43.0042)">
<stop stop-color="#142333"/>
<stop offset="1" stop-color="#354556"/>
</radialGradient>
<radialGradient id="paint1_radial_358_1712" cx="0" cy="0" r="1" gradientUnits="userSpaceOnUse" gradientTransform="translate(247 32.5556) rotate(-180) scale(12 105.209)">
<stop stop-color="#142333"/>
<stop offset="1" stop-color="#2B3845"/>
</radialGradient>
<radialGradient id="paint2_diamond_358_1712" cx="0" cy="0" r="1" gradientUnits="userSpaceOnUse" gradientTransform="translate(193 94) rotate(180) scale(8 43.0042)">
<stop stop-color="#142333"/>
<stop offset="1" stop-color="#354556"/>
</radialGradient>
<clipPath id="clip0_358_1712">
<rect width="390" height="844" fill="white" transform="translate(-20 -441)"/>
</clipPath>
</defs>
</svg>
