<svg width="165" height="183" viewBox="0 0 165 183" fill="none" xmlns="http://www.w3.org/2000/svg">
<g filter="url(#filter0_dddiiii_137_4124)">
<path d="M25 79.5614C25 74.9007 25 72.5703 25.9529 70.9201C26.7889 69.4721 28.1084 68.3651 29.6796 67.7934C31.4703 67.1418 33.7653 67.5468 38.3551 68.3568L53.2449 70.9844C53.9841 71.1148 54.3537 71.1801 54.7258 71.2061C55.0563 71.2292 55.3881 71.2292 55.7187 71.2061C56.0907 71.1801 56.4603 71.1148 57.1995 70.9844L72.0894 68.3568C76.6792 67.5468 78.9741 67.1418 80.7648 67.7934C82.336 68.3651 83.6555 69.4721 84.4916 70.9201C85.4444 72.5703 85.4444 74.9007 85.4444 79.5614V84.4386C85.4444 89.0993 85.4444 91.4297 84.4916 93.0799C83.6555 94.5279 82.336 95.6349 80.7648 96.2066C78.9741 96.8582 76.6792 96.4532 72.0894 95.6432L57.1995 93.0156C56.4603 92.8852 56.0907 92.8199 55.7187 92.7939C55.3881 92.7708 55.0563 92.7708 54.7258 92.7939C54.3537 92.8199 53.9841 92.8852 53.2449 93.0156L38.3551 95.6432C33.7653 96.4532 31.4703 96.8582 29.6796 96.2066C28.1084 95.6349 26.7889 94.5279 25.9529 93.0799C25 91.4297 25 89.0993 25 84.4386V79.5614Z" fill="url(#paint0_diamond_137_4124)"/>
</g>
<g filter="url(#filter1_iii_137_4124)">
<mask id="mask0_137_4124" style="mask-type:alpha" maskUnits="userSpaceOnUse" x="25" y="67" width="61" height="30">
<path d="M25 79.5614C25 74.9007 25 72.5703 25.9529 70.9201C26.7889 69.4721 28.1084 68.3651 29.6796 67.7934C31.4703 67.1418 33.7653 67.5468 38.3551 68.3568L53.2449 70.9844C53.9841 71.1148 54.3537 71.1801 54.7258 71.2061C55.0563 71.2292 55.3881 71.2292 55.7187 71.2061C56.0907 71.1801 56.4603 71.1148 57.1995 70.9844L72.0894 68.3568C76.6792 67.5468 78.9741 67.1418 80.7648 67.7934C82.336 68.3651 83.6555 69.4721 84.4916 70.9201C85.4444 72.5703 85.4444 74.9007 85.4444 79.5614V84.4386C85.4444 89.0993 85.4444 91.4297 84.4916 93.0799C83.6555 94.5279 82.336 95.6349 80.7648 96.2066C78.9741 96.8582 76.6792 96.4532 72.0894 95.6432L57.1995 93.0156C56.4603 92.8852 56.0907 92.8199 55.7187 92.7939C55.3881 92.7708 55.0563 92.7708 54.7258 92.7939C54.3537 92.8199 53.9841 92.8852 53.2449 93.0156L38.3551 95.6432C33.7653 96.4532 31.4703 96.8582 29.6796 96.2066C28.1084 95.6349 26.7889 94.5279 25.9529 93.0799C25 91.4297 25 89.0993 25 84.4386V79.5614Z" fill="url(#paint1_radial_137_4124)"/>
</mask>
<g mask="url(#mask0_137_4124)">
<line x1="33.6" y1="66" x2="33.6" y2="97.9998" stroke="#202222" stroke-width="1.2"/>
<line x1="40.5333" y1="66" x2="40.5334" y2="97.9998" stroke="#202222" stroke-width="1.2"/>
<line x1="46.9333" y1="66" x2="46.9333" y2="97.9998" stroke="#202222" stroke-width="1.2"/>
<line x1="54.8667" y1="70.2666" x2="54.8667" y2="95.1554" stroke="#202222" stroke-width="4.26667"/>
<path d="M69.8 66L69.8001 97.9998" stroke="#202222" stroke-width="1.2"/>
<path d="M63.3999 66L63.3999 97.9998" stroke="#202222" stroke-width="1.2"/>
<line x1="77.6" y1="66" x2="77.6" y2="97.9998" stroke="#202222" stroke-width="1.2"/>
</g>
</g>
<defs>
<filter id="filter0_dddiiii_137_4124" x="-44.3918" y="0.529408" width="209.125" height="182.401" filterUnits="userSpaceOnUse" color-interpolation-filters="sRGB">
<feFlood flood-opacity="0" result="BackgroundImageFix"/>
<feColorMatrix in="SourceAlpha" type="matrix" values="0 0 0 0 0 0 0 0 0 0 0 0 0 0 0 0 0 0 127 0" result="hardAlpha"/>
<feOffset dx="7.11112" dy="14.2222"/>
<feGaussianBlur stdDeviation="36.0889"/>
<feComposite in2="hardAlpha" operator="out"/>
<feColorMatrix type="matrix" values="0 0 0 0 0 0 0 0 0 0 0 0 0 0 0 0 0 0 0.7 0"/>
<feBlend mode="normal" in2="BackgroundImageFix" result="effect1_dropShadow_137_4124"/>
<feColorMatrix in="SourceAlpha" type="matrix" values="0 0 0 0 0 0 0 0 0 0 0 0 0 0 0 0 0 0 127 0" result="hardAlpha"/>
<feOffset dx="-19.614" dy="-17.1622"/>
<feGaussianBlur stdDeviation="24.8889"/>
<feComposite in2="hardAlpha" operator="out"/>
<feColorMatrix type="matrix" values="0 0 0 0 1 0 0 0 0 1 0 0 0 0 1 0 0 0 0.11 0"/>
<feBlend mode="normal" in2="effect1_dropShadow_137_4124" result="effect2_dropShadow_137_4124"/>
<feColorMatrix in="SourceAlpha" type="matrix" values="0 0 0 0 0 0 0 0 0 0 0 0 0 0 0 0 0 0 127 0" result="hardAlpha"/>
<feOffset dx="-7.11112" dy="-3.55556"/>
<feGaussianBlur stdDeviation="6.22223"/>
<feComposite in2="hardAlpha" operator="out"/>
<feColorMatrix type="matrix" values="0 0 0 0 0 0 0 0 0 0 0 0 0 0 0 0 0 0 0.25 0"/>
<feBlend mode="normal" in2="effect2_dropShadow_137_4124" result="effect3_dropShadow_137_4124"/>
<feBlend mode="normal" in="SourceGraphic" in2="effect3_dropShadow_137_4124" result="shape"/>
<feColorMatrix in="SourceAlpha" type="matrix" values="0 0 0 0 0 0 0 0 0 0 0 0 0 0 0 0 0 0 127 0" result="hardAlpha"/>
<feOffset/>
<feGaussianBlur stdDeviation="65.7779"/>
<feComposite in2="hardAlpha" operator="arithmetic" k2="-1" k3="1"/>
<feColorMatrix type="matrix" values="0 0 0 0 0.262044 0 0 0 0 0.262044 0 0 0 0 0.262044 0 0 0 0.29 0"/>
<feBlend mode="normal" in2="shape" result="effect4_innerShadow_137_4124"/>
<feColorMatrix in="SourceAlpha" type="matrix" values="0 0 0 0 0 0 0 0 0 0 0 0 0 0 0 0 0 0 127 0" result="hardAlpha"/>
<feOffset dx="17.7778" dy="24.8889"/>
<feGaussianBlur stdDeviation="14.7556"/>
<feComposite in2="hardAlpha" operator="arithmetic" k2="-1" k3="1"/>
<feColorMatrix type="matrix" values="0 0 0 0 0.358773 0 0 0 0 0.358773 0 0 0 0 0.358773 0 0 0 0.25 0"/>
<feBlend mode="normal" in2="effect4_innerShadow_137_4124" result="effect5_innerShadow_137_4124"/>
<feColorMatrix in="SourceAlpha" type="matrix" values="0 0 0 0 0 0 0 0 0 0 0 0 0 0 0 0 0 0 127 0" result="hardAlpha"/>
<feOffset dx="-21.3334" dy="-21.3334"/>
<feGaussianBlur stdDeviation="42.6667"/>
<feComposite in2="hardAlpha" operator="arithmetic" k2="-1" k3="1"/>
<feColorMatrix type="matrix" values="0 0 0 0 0 0 0 0 0 0 0 0 0 0 0 0 0 0 0.37 0"/>
<feBlend mode="normal" in2="effect5_innerShadow_137_4124" result="effect6_innerShadow_137_4124"/>
<feColorMatrix in="SourceAlpha" type="matrix" values="0 0 0 0 0 0 0 0 0 0 0 0 0 0 0 0 0 0 127 0" result="hardAlpha"/>
<feOffset dx="3.55556" dy="3.55556"/>
<feComposite in2="hardAlpha" operator="arithmetic" k2="-1" k3="1"/>
<feColorMatrix type="matrix" values="0 0 0 0 1 0 0 0 0 1 0 0 0 0 1 0 0 0 0.04 0"/>
<feBlend mode="normal" in2="effect6_innerShadow_137_4124" result="effect7_innerShadow_137_4124"/>
</filter>
<filter id="filter1_iii_137_4124" x="33" y="67.4695" width="45.2" height="29.8978" filterUnits="userSpaceOnUse" color-interpolation-filters="sRGB">
<feFlood flood-opacity="0" result="BackgroundImageFix"/>
<feBlend mode="normal" in="SourceGraphic" in2="BackgroundImageFix" result="shape"/>
<feColorMatrix in="SourceAlpha" type="matrix" values="0 0 0 0 0 0 0 0 0 0 0 0 0 0 0 0 0 0 127 0" result="hardAlpha"/>
<feOffset dy="0.836751"/>
<feGaussianBlur stdDeviation="0.418375"/>
<feComposite in2="hardAlpha" operator="arithmetic" k2="-1" k3="1"/>
<feColorMatrix type="matrix" values="0 0 0 0 0 0 0 0 0 0 0 0 0 0 0 0 0 0 0.25 0"/>
<feBlend mode="normal" in2="shape" result="effect1_innerShadow_137_4124"/>
<feColorMatrix in="SourceAlpha" type="matrix" values="0 0 0 0 0 0 0 0 0 0 0 0 0 0 0 0 0 0 127 0" result="hardAlpha"/>
<feOffset dy="0.836751"/>
<feGaussianBlur stdDeviation="0.418375"/>
<feComposite in2="hardAlpha" operator="arithmetic" k2="-1" k3="1"/>
<feColorMatrix type="matrix" values="0 0 0 0 0 0 0 0 0 0 0 0 0 0 0 0 0 0 0.25 0"/>
<feBlend mode="normal" in2="effect1_innerShadow_137_4124" result="effect2_innerShadow_137_4124"/>
<feColorMatrix in="SourceAlpha" type="matrix" values="0 0 0 0 0 0 0 0 0 0 0 0 0 0 0 0 0 0 127 0" result="hardAlpha"/>
<feOffset dy="0.836751"/>
<feGaussianBlur stdDeviation="0.418375"/>
<feComposite in2="hardAlpha" operator="arithmetic" k2="-1" k3="1"/>
<feColorMatrix type="matrix" values="0 0 0 0 0 0 0 0 0 0 0 0 0 0 0 0 0 0 0.25 0"/>
<feBlend mode="normal" in2="effect2_innerShadow_137_4124" result="effect3_innerShadow_137_4124"/>
</filter>
<radialGradient id="paint0_diamond_137_4124" cx="0" cy="0" r="1" gradientUnits="userSpaceOnUse" gradientTransform="translate(55 84) rotate(180) scale(8 43.0042)">
<stop stop-color="#142333"/>
<stop offset="1" stop-color="#354556"/>
</radialGradient>
<radialGradient id="paint1_radial_137_4124" cx="0" cy="0" r="1" gradientUnits="userSpaceOnUse" gradientTransform="translate(47 85.5556) rotate(-180) scale(12 105.209)">
<stop stop-color="#142333"/>
<stop offset="1" stop-color="#2B3845"/>
</radialGradient>
</defs>
</svg>
