<svg width="30" height="30" viewBox="0 0 30 30" fill="none" xmlns="http://www.w3.org/2000/svg">
<path fill-rule="evenodd" clip-rule="evenodd" d="M29.2562 21.0812C28.5763 19.7118 27.6802 18.4608 26.6025 17.3762C26.242 16.9689 25.8646 16.5769 25.4712 16.2012L25.4237 16.155C25.2777 16.0136 25.1335 15.8702 24.9912 15.725C26.4646 13.676 27.7252 11.4821 28.7537 9.1775L28.795 9.085L28.8237 8.9875C28.96 8.53375 29.115 7.67125 28.565 6.89125C27.995 6.08625 27.0837 5.94125 26.4725 5.94125H23.6637C23.0756 5.91445 22.4941 6.07437 22.0024 6.39813C21.5107 6.7219 21.134 7.1929 20.9262 7.74375C20.3218 9.1833 19.565 10.554 18.6687 11.8325V8.54125C18.6687 8.11625 18.6287 7.40375 18.1725 6.80375C17.6275 6.08375 16.8387 5.94125 16.2912 5.94125H11.8337C11.2521 5.92786 10.6876 6.1387 10.2571 6.53009C9.8266 6.92148 9.56313 7.46345 9.52125 8.04375L9.5175 8.1V8.15625C9.5175 8.7625 9.7575 9.21 9.95 9.49125C10.0362 9.6175 10.1275 9.7325 10.1862 9.805L10.1987 9.82125C10.2612 9.89875 10.3025 9.95 10.3437 10.0075C10.4537 10.155 10.61 10.385 10.655 10.9775V12.8187C9.76022 11.3204 9.02655 9.73155 8.46625 8.07875L8.45625 8.05125L8.44625 8.025C8.29375 7.62625 8.05 7.04625 7.56125 6.60375C6.99125 6.085 6.31625 5.94125 5.7025 5.94125H2.8525C2.23125 5.94125 1.4825 6.08625 0.92375 6.675C0.375 7.255 0.3125 7.95 0.3125 8.3175V8.485L0.3475 8.6475C1.13663 12.311 2.76279 15.7421 5.09875 18.6725C6.16672 20.3566 7.61661 21.7653 9.33081 22.7843C11.045 23.8034 12.9753 24.404 14.965 24.5375L15.0162 24.5412H15.0687C15.9762 24.5412 16.9225 24.4625 17.6337 23.9887C18.5925 23.3487 18.6687 22.3675 18.6687 21.8775V20.455C18.915 20.655 19.22 20.9225 19.5937 21.2825C20.0462 21.735 20.4062 22.1275 20.715 22.47L20.88 22.6525C21.12 22.92 21.3562 23.1837 21.5712 23.4C21.8412 23.6712 22.175 23.97 22.5925 24.1912C23.0462 24.43 23.5225 24.5387 24.0275 24.5387H26.8787C27.48 24.5387 28.3412 24.3962 28.9475 23.6937C29.6075 22.9287 29.5575 21.99 29.35 21.3162L29.3125 21.195L29.2562 21.0812ZM22.1062 21.2137C21.7188 20.7807 21.3199 20.358 20.91 19.9462L20.9062 19.9425C19.21 18.3075 18.4187 18.0237 17.8587 18.0237C17.56 18.0237 17.2312 18.0562 17.0175 18.3237C16.9213 18.4513 16.8581 18.6008 16.8337 18.7587C16.8036 18.9422 16.7902 19.1279 16.7937 19.3137V21.8775C16.7937 22.1962 16.7412 22.33 16.5937 22.4275C16.3975 22.5587 15.9787 22.665 15.08 22.665C13.3728 22.5488 11.7175 22.0291 10.2502 21.1486C8.78297 20.2681 7.54565 19.0519 6.64 17.6L6.63 17.5837L6.6175 17.5687C4.44139 14.8602 2.9248 11.6828 2.1875 8.2875C2.1925 8.125 2.2275 8.02625 2.285 7.96625C2.34375 7.90375 2.4875 7.81625 2.8525 7.81625H5.7025C6.01875 7.81625 6.18375 7.88625 6.3025 7.9925C6.435 8.115 6.5525 8.32125 6.6925 8.68875C7.3925 10.7462 8.3375 12.6712 9.23375 14.0862C9.68125 14.7925 10.1212 15.3812 10.5187 15.7975C10.7175 16.005 10.9112 16.1775 11.0975 16.3C11.2762 16.4175 11.48 16.5112 11.69 16.5112C11.8 16.5112 11.9287 16.4987 12.0525 16.445C12.1861 16.386 12.2962 16.2839 12.365 16.155C12.4937 15.92 12.53 15.5737 12.53 15.12V10.9037C12.4637 9.88125 12.155 9.305 11.855 8.89625C11.7942 8.81449 11.7317 8.73406 11.6675 8.655L11.6512 8.635C11.5979 8.57025 11.5471 8.50354 11.4987 8.435C11.4372 8.35856 11.4002 8.26533 11.3925 8.1675C11.4023 8.06817 11.4497 7.97634 11.525 7.91081C11.6003 7.84528 11.6978 7.81101 11.7975 7.815H16.2912C16.5487 7.815 16.635 7.8775 16.6787 7.93625C16.7412 8.0175 16.7937 8.18625 16.7937 8.54125V14.2012C16.7937 14.8737 17.1037 15.3287 17.5537 15.3287C18.0712 15.3287 18.445 15.015 19.0975 14.3625L19.1087 14.35L19.1187 14.3387C20.5825 12.5541 21.7784 10.5657 22.6687 8.43625L22.6737 8.42125C22.7407 8.2331 22.8673 8.07201 23.0343 7.96255C23.2013 7.85309 23.3995 7.80127 23.5987 7.815H26.4737C26.8637 7.815 26.9912 7.915 27.0337 7.97375C27.0775 8.03625 27.1087 8.17 27.0337 8.4325C26.007 10.7279 24.7377 12.907 23.2475 14.9325L23.2375 14.9475C23.0937 15.1687 22.935 15.4137 22.9125 15.6937C22.8875 15.9962 23.0175 16.27 23.2462 16.565C23.4125 16.81 23.7562 17.1462 24.105 17.4875L24.1375 17.52C24.5025 17.8775 24.8987 18.265 25.2162 18.64L25.225 18.6487L25.2337 18.6587C26.1805 19.6031 26.9678 20.6948 27.565 21.8912C27.66 22.2162 27.6025 22.3837 27.5275 22.47C27.4412 22.57 27.2475 22.6637 26.88 22.6637H24.0275C23.8331 22.6685 23.6407 22.6233 23.4687 22.5325C23.258 22.4099 23.0667 22.2566 22.9012 22.0775C22.7225 21.8987 22.5287 21.6825 22.2912 21.4187L22.1075 21.2137H22.1062Z" fill="#E8F1F9"/>
</svg>
