<svg width="30" height="28" viewBox="0 0 30 28" fill="none" xmlns="http://www.w3.org/2000/svg">
<g clip-path="url(#clip0_239_876)">
<path d="M5.19995 23.9435H8.36396C9.77796 23.9435 11.2102 24.0919 12.5864 24.3747C15.0434 24.8795 17.5714 24.9354 20.0484 24.5399C21.2636 24.3439 22.4564 24.0429 23.5372 23.5221C24.5116 23.0503 25.7058 22.3881 26.508 21.6447C27.3088 20.9027 28.1432 19.6889 28.734 18.7397C29.2436 17.9249 28.9972 16.9267 28.1936 16.3205C27.742 15.992 27.198 15.8151 26.6396 15.8151C26.0812 15.8151 25.5372 15.992 25.0856 16.3205L22.5558 18.2315C21.5758 18.9735 20.5048 19.6553 19.2294 19.8583C19.0754 19.8821 18.9144 19.9045 18.7464 19.9241M18.7464 19.9241C18.6951 19.93 18.6437 19.9356 18.5924 19.9409M18.7464 19.9241C18.9705 19.8635 19.1759 19.748 19.3442 19.5881C19.5551 19.4056 19.7274 19.1827 19.8508 18.9325C19.9742 18.6823 20.0463 18.41 20.0627 18.1315C20.0792 17.853 20.0397 17.5741 19.9466 17.3112C19.8534 17.0482 19.7086 16.8066 19.5206 16.6005C19.3381 16.398 19.1257 16.2247 18.8906 16.0867C14.9748 13.7501 8.88056 15.5295 5.19995 18.1405M18.7464 19.9241C18.6958 19.9351 18.6442 19.9408 18.5924 19.9409M18.5924 19.9409C17.7481 20.0258 16.8975 20.0276 16.0528 19.9465" stroke="#E8F1F9" stroke-width="2.1" stroke-linecap="round"/>
<path d="M5.20001 17.1002C5.20001 15.9404 4.2598 15.0002 3.1 15.0002C1.9402 15.0002 1 15.9404 1 17.1002V24.1003C1 25.2601 1.9402 26.2003 3.1 26.2003C4.2598 26.2003 5.20001 25.2601 5.20001 24.1003V17.1002Z" stroke="#E8F1F9" stroke-width="2.1"/>
<path fill-rule="evenodd" clip-rule="evenodd" d="M15.25 0.732558C14.0519 0.732558 12.9029 1.2085 12.0557 2.05569C11.2085 2.90287 10.7326 4.0519 10.7326 5.25C10.7326 6.4481 11.2085 7.59713 12.0557 8.44431C12.9029 9.2915 14.0519 9.76744 15.25 9.76744C16.4481 9.76744 17.5971 9.2915 18.4443 8.44431C19.2915 7.59713 19.7674 6.4481 19.7674 5.25C19.7674 4.0519 19.2915 2.90287 18.4443 2.05569C17.5971 1.2085 16.4481 0.732558 15.25 0.732558ZM10 5.25C10 2.35053 12.3505 0 15.25 0C18.1495 0 20.5 2.35053 20.5 5.25C20.5 8.14946 18.1495 10.5 15.25 10.5C12.3505 10.5 10 8.14946 10 5.25ZM14.8407 2.44186H15.9826C16.4035 2.44186 16.8072 2.60908 17.1049 2.90674C17.4025 3.2044 17.5698 3.60812 17.5698 4.02907C17.5698 4.45002 17.4025 4.85374 17.1049 5.1514C16.8072 5.44906 16.4035 5.61628 15.9826 5.61628H14.6395V5.86047H15.25C15.3471 5.86047 15.4403 5.89906 15.509 5.96775C15.5777 6.03644 15.6163 6.1296 15.6163 6.22674C15.6163 6.32389 15.5777 6.41705 15.509 6.48574C15.4403 6.55443 15.3471 6.59302 15.25 6.59302H14.6395V7.69186C14.6395 7.789 14.6009 7.88217 14.5323 7.95086C14.4636 8.01955 14.3704 8.05814 14.2733 8.05814C14.1761 8.05814 14.0829 8.01955 14.0143 7.95086C13.9456 7.88217 13.907 7.789 13.907 7.69186V6.59302H13.7849C13.6877 6.59302 13.5946 6.55443 13.5259 6.48574C13.4572 6.41705 13.4186 6.32389 13.4186 6.22674C13.4186 6.1296 13.4572 6.03644 13.5259 5.96775C13.5946 5.89906 13.6877 5.86047 13.7849 5.86047H13.907V5.61628H13.7849C13.6877 5.61628 13.5946 5.57769 13.5259 5.509C13.4572 5.44031 13.4186 5.34714 13.4186 5.25C13.4186 5.15286 13.4572 5.05969 13.5259 4.991C13.5946 4.92231 13.6877 4.88372 13.7849 4.88372H13.907V3.37563C13.907 3.30433 13.907 3.23058 13.9177 3.1627C13.946 2.98454 14.0299 2.81991 14.1575 2.69236C14.285 2.56481 14.4497 2.48088 14.6278 2.4526C14.6957 2.44186 14.7699 2.44186 14.8407 2.44186ZM14.6395 4.88372H15.9826C16.2092 4.88372 16.4266 4.79368 16.5869 4.6334C16.7472 4.47312 16.8372 4.25574 16.8372 4.02907C16.8372 3.8024 16.7472 3.58502 16.5869 3.42474C16.4266 3.26446 16.2092 3.17442 15.9826 3.17442H14.8593C14.8202 3.17434 14.7812 3.17482 14.7421 3.17588C14.7168 3.17994 14.6935 3.19184 14.6753 3.20989C14.6572 3.22794 14.6452 3.25124 14.641 3.27649L14.64 3.29749C14.6395 3.32972 14.6393 3.36195 14.6395 3.39419V4.88372Z" fill="#E8F1F9"/>
</g>
<defs>
<clipPath id="clip0_239_876">
<rect width="30" height="28" fill="white"/>
</clipPath>
</defs>
</svg>
