<svg width="390" height="264" viewBox="0 0 390 264" fill="none" xmlns="http://www.w3.org/2000/svg">
<g filter="url(#filter0_dddiii_137_2609)">
<path d="M20 69.56C20 57.4629 20 51.4143 22.3543 46.7938C24.4251 42.7295 27.7295 39.4251 31.7938 37.3543C36.4143 35 42.4629 35 54.56 35H335.44C347.537 35 353.586 35 358.206 37.3543C362.27 39.4251 365.575 42.7295 367.646 46.7938C370 51.4143 370 57.4629 370 69.56V188.334C370 200.431 370 206.479 367.646 211.1C365.575 215.164 362.27 218.469 358.206 220.539C353.586 222.894 347.537 222.894 335.44 222.894H54.56C42.4629 222.894 36.4143 222.894 31.7938 220.539C27.7295 218.469 24.4251 215.164 22.3543 211.1C20 206.479 20 200.431 20 188.334V69.56Z" fill="#2B2E32"/>
<path d="M21.62 69.56C21.62 63.4847 21.6213 59.0257 21.9089 55.5051C22.195 52.0034 22.7563 49.5731 23.7977 47.5293C25.7132 43.7698 28.7698 40.7132 32.5293 38.7977C34.5731 37.7563 37.0034 37.195 40.5051 36.9089C44.0257 36.6213 48.4847 36.62 54.56 36.62H335.44C341.515 36.62 345.974 36.6213 349.495 36.9089C352.997 37.195 355.427 37.7563 357.471 38.7977C361.23 40.7132 364.287 43.7698 366.202 47.5293C367.244 49.5731 367.805 52.0034 368.091 55.5051C368.379 59.0257 368.38 63.4847 368.38 69.56V188.334C368.38 194.409 368.379 198.868 368.091 202.389C367.805 205.89 367.244 208.321 366.202 210.364C364.287 214.124 361.23 217.18 357.471 219.096C355.427 220.137 352.997 220.699 349.495 220.985C345.974 221.272 341.515 221.274 335.44 221.274H54.56C48.4847 221.274 44.0257 221.272 40.5051 220.985C37.0034 220.699 34.5731 220.137 32.5293 219.096C28.7698 217.18 25.7132 214.124 23.7977 210.364C22.7563 208.321 22.195 205.89 21.9089 202.389C21.6213 198.868 21.62 194.409 21.62 188.334V69.56Z" stroke="url(#paint0_linear_137_2609)" stroke-opacity="0.62" stroke-width="3.24"/>
</g>
<path d="M20 69.56C20 57.4629 20 51.4143 22.3543 46.7938C24.4251 42.7295 27.7295 39.4251 31.7938 37.3543C36.4143 35 42.4629 35 54.56 35H232.44C244.537 35 250.586 35 255.206 37.3543C259.27 39.4251 262.575 42.7295 264.646 46.7938C267 51.4143 267 57.4629 267 69.56V188.44C267 200.537 267 206.586 264.646 211.206C262.575 215.27 259.27 218.575 255.206 220.646C250.586 223 244.537 223 232.44 223H54.56C42.4629 223 36.4143 223 31.7938 220.646C27.7295 218.575 24.4251 215.27 22.3543 211.206C20 206.586 20 200.537 20 188.44V69.56Z" fill="url(#paint1_linear_137_2609)"/>
<path d="M21.62 69.56C21.62 63.4847 21.6213 59.0257 21.9089 55.5051C22.195 52.0034 22.7563 49.5731 23.7977 47.5293C25.7132 43.7698 28.7698 40.7132 32.5293 38.7977C34.5731 37.7563 37.0034 37.195 40.5051 36.9089C44.0257 36.6213 48.4847 36.62 54.56 36.62H232.44C238.515 36.62 242.974 36.6213 246.495 36.9089C249.997 37.195 252.427 37.7563 254.471 38.7977C258.23 40.7132 261.287 43.7698 263.202 47.5293C264.244 49.5731 264.805 52.0034 265.091 55.5051C265.379 59.0257 265.38 63.4847 265.38 69.56V188.44C265.38 194.515 265.379 198.974 265.091 202.495C264.805 205.997 264.244 208.427 263.202 210.471C261.287 214.23 258.23 217.287 254.471 219.202C252.427 220.244 249.997 220.805 246.495 221.091C242.974 221.379 238.515 221.38 232.44 221.38H54.56C48.4847 221.38 44.0257 221.379 40.5051 221.091C37.0034 220.805 34.5731 220.244 32.5293 219.202C28.7698 217.287 25.7132 214.23 23.7977 210.471C22.7563 208.427 22.195 205.997 21.9089 202.495C21.6213 198.974 21.62 194.515 21.62 188.44V69.56Z" stroke="url(#paint2_linear_137_2609)" stroke-opacity="0.62" stroke-width="3.24"/>
<g filter="url(#filter1_f_137_2609)">
<rect x="210.359" y="38.2825" width="92.8578" height="181.635" fill="#2B2F33"/>
</g>
<defs>
<filter id="filter0_dddiii_137_2609" x="-12" y="0" width="422" height="263.894" filterUnits="userSpaceOnUse" color-interpolation-filters="sRGB">
<feFlood flood-opacity="0" result="BackgroundImageFix"/>
<feColorMatrix in="SourceAlpha" type="matrix" values="0 0 0 0 0 0 0 0 0 0 0 0 0 0 0 0 0 0 127 0" result="hardAlpha"/>
<feOffset dx="1.08"/>
<feGaussianBlur stdDeviation="2.538"/>
<feComposite in2="hardAlpha" operator="out"/>
<feColorMatrix type="matrix" values="0 0 0 0 0 0 0 0 0 0 0 0 0 0 0 0 0 0 0.57 0"/>
<feBlend mode="normal" in2="BackgroundImageFix" result="effect1_dropShadow_137_2609"/>
<feColorMatrix in="SourceAlpha" type="matrix" values="0 0 0 0 0 0 0 0 0 0 0 0 0 0 0 0 0 0 127 0" result="hardAlpha"/>
<feOffset dx="-12" dy="-15"/>
<feGaussianBlur stdDeviation="10"/>
<feComposite in2="hardAlpha" operator="out"/>
<feColorMatrix type="matrix" values="0 0 0 0 0.797439 0 0 0 0 0.884348 0 0 0 0 0.984066 0 0 0 0.03 0"/>
<feBlend mode="normal" in2="effect1_dropShadow_137_2609" result="effect2_dropShadow_137_2609"/>
<feColorMatrix in="SourceAlpha" type="matrix" values="0 0 0 0 0 0 0 0 0 0 0 0 0 0 0 0 0 0 127 0" result="hardAlpha"/>
<feOffset dx="20" dy="21"/>
<feGaussianBlur stdDeviation="10"/>
<feComposite in2="hardAlpha" operator="out"/>
<feColorMatrix type="matrix" values="0 0 0 0 0.0968424 0 0 0 0 0.0883088 0 0 0 0 0.0883088 0 0 0 0.17 0"/>
<feBlend mode="normal" in2="effect2_dropShadow_137_2609" result="effect3_dropShadow_137_2609"/>
<feBlend mode="normal" in="SourceGraphic" in2="effect3_dropShadow_137_2609" result="shape"/>
<feColorMatrix in="SourceAlpha" type="matrix" values="0 0 0 0 0 0 0 0 0 0 0 0 0 0 0 0 0 0 127 0" result="hardAlpha"/>
<feOffset/>
<feGaussianBlur stdDeviation="9.62001"/>
<feComposite in2="hardAlpha" operator="arithmetic" k2="-1" k3="1"/>
<feColorMatrix type="matrix" values="0 0 0 0 0.262044 0 0 0 0 0.262044 0 0 0 0 0.262044 0 0 0 0.29 0"/>
<feBlend mode="normal" in2="shape" result="effect4_innerShadow_137_2609"/>
<feColorMatrix in="SourceAlpha" type="matrix" values="0 0 0 0 0 0 0 0 0 0 0 0 0 0 0 0 0 0 127 0" result="hardAlpha"/>
<feOffset dx="-2.16"/>
<feGaussianBlur stdDeviation="1.296"/>
<feComposite in2="hardAlpha" operator="arithmetic" k2="-1" k3="1"/>
<feColorMatrix type="matrix" values="0 0 0 0 0 0 0 0 0 0 0 0 0 0 0 0 0 0 0.22 0"/>
<feBlend mode="normal" in2="effect4_innerShadow_137_2609" result="effect5_innerShadow_137_2609"/>
<feColorMatrix in="SourceAlpha" type="matrix" values="0 0 0 0 0 0 0 0 0 0 0 0 0 0 0 0 0 0 127 0" result="hardAlpha"/>
<feOffset dx="-2.16"/>
<feGaussianBlur stdDeviation="2.16"/>
<feComposite in2="hardAlpha" operator="arithmetic" k2="-1" k3="1"/>
<feColorMatrix type="matrix" values="0 0 0 0 0 0 0 0 0 0 0 0 0 0 0 0 0 0 0.27 0"/>
<feBlend mode="normal" in2="effect5_innerShadow_137_2609" result="effect6_innerShadow_137_2609"/>
</filter>
<filter id="filter1_f_137_2609" x="200.359" y="28.2825" width="112.858" height="201.635" filterUnits="userSpaceOnUse" color-interpolation-filters="sRGB">
<feFlood flood-opacity="0" result="BackgroundImageFix"/>
<feBlend mode="normal" in="SourceGraphic" in2="BackgroundImageFix" result="shape"/>
<feGaussianBlur stdDeviation="5" result="effect1_foregroundBlur_137_2609"/>
</filter>
<linearGradient id="paint0_linear_137_2609" x1="374.513" y1="153.763" x2="309.326" y2="153.337" gradientUnits="userSpaceOnUse">
<stop stop-color="#2B2C2E"/>
<stop offset="1" stop-color="#262829" stop-opacity="0"/>
</linearGradient>
<linearGradient id="paint1_linear_137_2609" x1="51.3549" y1="124.897" x2="342.508" y2="124.897" gradientUnits="userSpaceOnUse">
<stop stop-color="#2B2E32"/>
<stop offset="0.791667" stop-color="#2B2E32" stop-opacity="0"/>
<stop offset="1" stop-color="#2B2E32" stop-opacity="0"/>
</linearGradient>
<linearGradient id="paint2_linear_137_2609" x1="270.185" y1="153.83" x2="224.18" y2="153.618" gradientUnits="userSpaceOnUse">
<stop stop-color="#2B2C2E"/>
<stop offset="1" stop-color="#262829" stop-opacity="0"/>
</linearGradient>
</defs>
</svg>
