<svg width="30" height="30" viewBox="0 0 30 30" fill="none" xmlns="http://www.w3.org/2000/svg">
<path d="M13.5 0C9.91958 0 6.4858 1.42232 3.95406 3.95406C1.42232 6.4858 0 9.91958 0 13.5C0 17.0804 1.42232 20.5142 3.95406 23.0459C6.4858 25.5777 9.91958 27 13.5 27C17.0804 27 20.5142 25.5777 23.0459 23.0459C25.5777 20.5142 27 17.0804 27 13.5C27 9.91958 25.5777 6.4858 23.0459 3.95406C20.5142 1.42232 17.0804 0 13.5 0ZM1.665 14.52H5.43C5.49 15.885 5.6805 17.241 6 18.57H2.76C2.15581 17.2963 1.78494 15.9246 1.665 14.52ZM14.52 6.42V1.785C15.9655 2.33434 17.1533 3.40443 17.85 4.785C18.1575 5.3055 18.429 5.847 18.66 6.405L14.52 6.42ZM19.35 8.445C19.698 9.7695 19.905 11.127 19.965 12.495H14.52V8.445H19.35ZM12.48 1.785V6.42H8.34C8.57139 5.86154 8.84207 5.32019 9.15 4.8C9.8437 3.41378 11.0319 2.33799 12.48 1.785ZM12.48 8.445V12.495H7.05C7.11 11.127 7.317 9.7695 7.665 8.445H12.48ZM5.43 12.48H1.665C1.78494 11.0754 2.15581 9.70368 2.76 8.43H6C5.67989 9.75847 5.489 11.1148 5.43 12.48ZM7.05 14.52H12.48V18.57H7.665C7.31705 17.2456 7.1109 15.888 7.05 14.52ZM12.495 20.52V25.155C11.0495 24.6057 9.86167 23.5356 9.165 22.155C8.85707 21.6348 8.58639 21.0935 8.355 20.535L12.495 20.52ZM14.52 25.155V20.595H18.66C18.4286 21.1535 18.1579 21.6948 17.85 22.215C17.1533 23.5956 15.9655 24.6657 14.52 25.215V25.155ZM14.52 18.495V14.445H19.95C19.8891 15.813 19.6829 17.1706 19.335 18.495H14.52ZM21.585 14.445H25.35C25.2301 15.8496 24.8592 17.2213 24.255 18.495H21C21.315 17.19 21.5055 15.8595 21.57 14.52L21.585 14.445ZM21.585 12.42C21.5163 11.0795 21.3204 9.74849 21 8.445H24.24C24.8445 9.72 25.215 11.091 25.335 12.495L21.585 12.42ZM23.085 6.42H20.4C19.9142 5.05545 19.21 3.77884 18.315 2.64C20.1816 3.47787 21.8029 4.77908 23.025 6.42H23.085ZM8.685 2.64C7.78998 3.77884 7.08582 5.05545 6.6 6.42H3.975C5.19708 4.77908 6.81843 3.47787 8.685 2.64ZM3.96 20.64H6.6C7.08582 22.0046 7.78998 23.2812 8.685 24.42C6.81326 23.5695 5.19142 22.2524 3.975 20.595L3.96 20.64ZM18.3 24.42C19.195 23.2812 19.8992 22.0046 20.385 20.64H23.025C21.7954 22.2589 20.1748 23.539 18.315 24.36L18.3 24.42Z" fill="#E8F1F9"/>
</svg>
