<svg width="353" height="183" viewBox="0 0 353 183" fill="none" xmlns="http://www.w3.org/2000/svg">
<path opacity="0.15" d="M64.9119 64V57.3L65.2319 57.64H63.2619V57H65.6319V64H64.9119Z" fill="#E8F1F9"/>
<path opacity="0.15" d="M125.74 64V63.49L128.65 60.64C128.916 60.38 129.116 60.1533 129.25 59.96C129.383 59.76 129.473 59.5733 129.52 59.4C129.566 59.2267 129.59 59.0633 129.59 58.91C129.59 58.5033 129.45 58.1833 129.17 57.95C128.896 57.7167 128.49 57.6 127.95 57.6C127.536 57.6 127.17 57.6633 126.85 57.79C126.536 57.9167 126.266 58.1133 126.04 58.38L125.53 57.94C125.803 57.62 126.153 57.3733 126.58 57.2C127.006 57.0267 127.483 56.94 128.01 56.94C128.483 56.94 128.893 57.0167 129.24 57.17C129.586 57.3167 129.853 57.5333 130.04 57.82C130.233 58.1067 130.33 58.4433 130.33 58.83C130.33 59.0567 130.296 59.28 130.23 59.5C130.17 59.72 130.056 59.9533 129.89 60.2C129.73 60.44 129.493 60.7133 129.18 61.02L126.51 63.64L126.31 63.36H130.65V64H125.74Z" fill="#E8F1F9"/>
<path opacity="0.15" d="M190.137 64.06C189.631 64.06 189.151 63.98 188.697 63.82C188.251 63.6533 187.891 63.4333 187.617 63.16L187.967 62.59C188.194 62.8233 188.497 63.0167 188.877 63.17C189.264 63.3233 189.684 63.4 190.137 63.4C190.717 63.4 191.161 63.2733 191.467 63.02C191.781 62.7667 191.937 62.4267 191.937 62C191.937 61.5733 191.784 61.2333 191.477 60.98C191.177 60.7267 190.701 60.6 190.047 60.6H189.547V60.07L191.707 57.36L191.807 57.64H187.907V57H192.407V57.51L190.247 60.22L189.897 59.99H190.167C191.007 59.99 191.634 60.1767 192.047 60.55C192.467 60.9233 192.677 61.4033 192.677 61.99C192.677 62.3833 192.584 62.7367 192.397 63.05C192.211 63.3633 191.927 63.61 191.547 63.79C191.174 63.97 190.704 64.06 190.137 64.06Z" fill="#E8F1F9"/>
<path opacity="0.15" d="M250.105 62.16V61.64L253.815 57H254.615L250.935 61.64L250.545 61.52H256.175V62.16H250.105ZM254.055 64V62.16L254.075 61.52V59.9H254.775V64H254.055Z" fill="#E8F1F9"/>
<path opacity="0.8" d="M314.613 64.06C314.113 64.06 313.636 63.98 313.183 63.82C312.729 63.6533 312.369 63.4333 312.103 63.16L312.453 62.59C312.673 62.8233 312.973 63.0167 313.353 63.17C313.739 63.3233 314.156 63.4 314.603 63.4C315.196 63.4 315.646 63.27 315.953 63.01C316.266 62.7433 316.423 62.3967 316.423 61.97C316.423 61.67 316.349 61.4133 316.203 61.2C316.063 60.98 315.823 60.81 315.483 60.69C315.143 60.57 314.676 60.51 314.083 60.51H312.593L312.953 57H316.783V57.64H313.243L313.613 57.29L313.303 60.23L312.933 59.87H314.243C314.949 59.87 315.516 59.9567 315.943 60.13C316.369 60.3033 316.676 60.5467 316.863 60.86C317.056 61.1667 317.153 61.5267 317.153 61.94C317.153 62.3333 317.059 62.6933 316.873 63.02C316.686 63.34 316.406 63.5933 316.033 63.78C315.659 63.9667 315.186 64.06 314.613 64.06Z" fill="#3392FF"/>
<path d="M5 86L5 76" stroke="#424548" stroke-linecap="round"/>
<path d="M25 86V76" stroke="#424548" stroke-linecap="round"/>
<path d="M45 86V76" stroke="#424548" stroke-linecap="round"/>
<path d="M65 91V71" stroke="#424548" stroke-linecap="round"/>
<path d="M68 86V76" stroke="#424548" stroke-linecap="round"/>
<path d="M88 86V76" stroke="#424548" stroke-linecap="round"/>
<path d="M108 86V76" stroke="#424548" stroke-linecap="round"/>
<path d="M128 91V71" stroke="#424548" stroke-linecap="round"/>
<path d="M131 86V76" stroke="#424548" stroke-linecap="round"/>
<path d="M151 86V76" stroke="#424548" stroke-linecap="round"/>
<path d="M171 86V76" stroke="#424548" stroke-linecap="round"/>
<path d="M191 91V71" stroke="#424548" stroke-linecap="round"/>
<path d="M193 86V76" stroke="#424548" stroke-linecap="round"/>
<path d="M213 86V76" stroke="#424548" stroke-linecap="round"/>
<path d="M233 86V76" stroke="#424548" stroke-linecap="round"/>
<path d="M253 91V71" stroke="#424548" stroke-linecap="round"/>
<path d="M255 86V76" stroke="#424548" stroke-linecap="round"/>
<path d="M275 86V76" stroke="#424548" stroke-linecap="round"/>
<path d="M295 86V76" stroke="#424548" stroke-linecap="round"/>
<g filter="url(#filter0_i_137_4245)">
<path d="M3 82H315" stroke="#1B1E21" stroke-width="3" stroke-linecap="round"/>
</g>
<g filter="url(#filter1_i_137_4245)">
<path d="M3 81H314" stroke="#3392FF" stroke-width="3" stroke-linecap="round"/>
</g>
<g filter="url(#filter2_dddiiii_137_4245)">
<path d="M285 79.5614C285 74.9007 285 72.5703 285.953 70.9201C286.789 69.4721 288.108 68.3651 289.68 67.7934C291.47 67.1418 293.765 67.5468 298.355 68.3568L313.245 70.9844C313.984 71.1148 314.354 71.1801 314.726 71.2061C315.056 71.2292 315.388 71.2292 315.719 71.2061C316.091 71.1801 316.46 71.1148 317.2 70.9844L332.089 68.3568C336.679 67.5468 338.974 67.1418 340.765 67.7934C342.336 68.3651 343.656 69.4721 344.492 70.9201C345.444 72.5703 345.444 74.9007 345.444 79.5614V84.4386C345.444 89.0993 345.444 91.4297 344.492 93.0799C343.656 94.5279 342.336 95.6349 340.765 96.2066C338.974 96.8582 336.679 96.4532 332.089 95.6432L317.2 93.0156C316.46 92.8852 316.091 92.8199 315.719 92.7939C315.388 92.7708 315.056 92.7708 314.726 92.7939C314.354 92.8199 313.984 92.8852 313.245 93.0156L298.355 95.6432C293.765 96.4532 291.47 96.8582 289.68 96.2066C288.108 95.6349 286.789 94.5279 285.953 93.0799C285 91.4297 285 89.0993 285 84.4386V79.5614Z" fill="url(#paint0_diamond_137_4245)"/>
</g>
<g filter="url(#filter3_iii_137_4245)">
<mask id="mask0_137_4245" style="mask-type:alpha" maskUnits="userSpaceOnUse" x="285" y="67" width="61" height="30">
<path d="M285 79.5614C285 74.9007 285 72.5703 285.953 70.9201C286.789 69.4721 288.108 68.3651 289.68 67.7934C291.47 67.1418 293.765 67.5468 298.355 68.3568L313.245 70.9844C313.984 71.1148 314.354 71.1801 314.726 71.2061C315.056 71.2292 315.388 71.2292 315.719 71.2061C316.091 71.1801 316.46 71.1148 317.2 70.9844L332.089 68.3568C336.679 67.5468 338.974 67.1418 340.765 67.7934C342.336 68.3651 343.656 69.4721 344.492 70.9201C345.444 72.5703 345.444 74.9007 345.444 79.5614V84.4386C345.444 89.0993 345.444 91.4297 344.492 93.0799C343.656 94.5279 342.336 95.6349 340.765 96.2066C338.974 96.8582 336.679 96.4532 332.089 95.6432L317.2 93.0156C316.46 92.8852 316.091 92.8199 315.719 92.7939C315.388 92.7708 315.056 92.7708 314.726 92.7939C314.354 92.8199 313.984 92.8852 313.245 93.0156L298.355 95.6432C293.765 96.4532 291.47 96.8582 289.68 96.2066C288.108 95.6349 286.789 94.5279 285.953 93.0799C285 91.4297 285 89.0993 285 84.4386V79.5614Z" fill="url(#paint1_radial_137_4245)"/>
</mask>
<g mask="url(#mask0_137_4245)">
<line x1="293.6" y1="66" x2="293.6" y2="97.9998" stroke="#202222" stroke-width="1.2"/>
<line x1="300.533" y1="66" x2="300.533" y2="97.9998" stroke="#202222" stroke-width="1.2"/>
<line x1="306.933" y1="66" x2="306.933" y2="97.9998" stroke="#202222" stroke-width="1.2"/>
<line x1="314.867" y1="70.2666" x2="314.867" y2="95.1554" stroke="#202222" stroke-width="4.26667"/>
<path d="M329.8 66L329.8 97.9998" stroke="#202222" stroke-width="1.2"/>
<path d="M323.4 66L323.4 97.9998" stroke="#202222" stroke-width="1.2"/>
<line x1="337.6" y1="66" x2="337.6" y2="97.9998" stroke="#202222" stroke-width="1.2"/>
</g>
</g>
<path d="M5.86951 58.1063C5.86951 58.3715 5.76415 58.6259 5.57661 58.8134C5.38908 59.001 5.13472 59.1063 4.86951 59.1063C4.60429 59.1063 4.34994 59.001 4.1624 58.8134C3.97486 58.6259 3.86951 58.3715 3.86951 58.1063C3.86951 57.8411 3.97486 57.5868 4.1624 57.3992C4.34994 57.2117 4.60429 57.1063 4.86951 57.1063C5.13472 57.1063 5.38908 57.2117 5.57661 57.3992C5.76415 57.5868 5.86951 57.8411 5.86951 58.1063Z" fill="#E8F1F9"/>
<path fill-rule="evenodd" clip-rule="evenodd" d="M4.855 52.3825C4.52 52.3825 4.2325 52.4825 4.03 52.6255C3.835 52.7635 3.7385 52.924 3.7105 53.0625C3.66913 53.2476 3.55685 53.4092 3.39774 53.5125C3.23863 53.6158 3.04537 53.6526 2.85943 53.615C2.67348 53.5775 2.50966 53.4685 2.40312 53.3116C2.29657 53.1546 2.25578 52.9622 2.2895 52.7755C2.403 52.2125 2.752 51.753 3.194 51.4405C3.654 51.1155 4.237 50.9325 4.855 50.9325C6.1335 50.9325 7.459 51.7875 7.459 53.1605C7.459 53.9555 6.9865 54.5985 6.3745 54.9735C6.21047 55.0739 6.01327 55.105 5.8263 55.06C5.63932 55.015 5.47789 54.8975 5.3775 54.7335C5.27712 54.5695 5.24601 54.3723 5.29102 54.1853C5.33603 53.9983 5.45347 53.8369 5.6175 53.7365C5.9025 53.562 6.009 53.3395 6.009 53.1605C6.009 52.8735 5.6515 52.3825 4.855 52.3825Z" fill="#E8F1F9"/>
<path fill-rule="evenodd" clip-rule="evenodd" d="M4.855 54.3148C5.255 54.3148 5.58 54.6388 5.58 55.0398V55.7908C5.58 55.9831 5.50362 56.1675 5.36766 56.3035C5.23169 56.4394 5.04729 56.5158 4.855 56.5158C4.66272 56.5158 4.47832 56.4394 4.34235 56.3035C4.20639 56.1675 4.13 55.9831 4.13 55.7908V55.0398C4.13 54.6398 4.4545 54.3148 4.855 54.3148Z" fill="#E8F1F9"/>
<path fill-rule="evenodd" clip-rule="evenodd" d="M6.61952 53.9829C6.66849 54.0646 6.70088 54.1552 6.71482 54.2494C6.72876 54.3437 6.72398 54.4398 6.70077 54.5322C6.67755 54.6246 6.63634 54.7115 6.5795 54.788C6.52266 54.8645 6.45131 54.929 6.36952 54.9779L5.22752 55.6614C5.06255 55.7602 4.8651 55.7894 4.67859 55.7426C4.49209 55.6958 4.33181 55.5768 4.23302 55.4119C4.13422 55.2469 4.10501 55.0495 4.1518 54.863C4.19859 54.6764 4.31755 54.5162 4.48252 54.4174L5.62502 53.7334C5.70673 53.6845 5.79727 53.6522 5.89148 53.6383C5.98568 53.6244 6.0817 53.6292 6.17405 53.6524C6.26641 53.6756 6.35328 53.7168 6.42971 53.7736C6.50615 53.8304 6.57064 53.9012 6.61952 53.9829Z" fill="#E8F1F9"/>
<defs>
<filter id="filter0_i_137_4245" x="1.5" y="79.5" width="315" height="4" filterUnits="userSpaceOnUse" color-interpolation-filters="sRGB">
<feFlood flood-opacity="0" result="BackgroundImageFix"/>
<feBlend mode="normal" in="SourceGraphic" in2="BackgroundImageFix" result="shape"/>
<feColorMatrix in="SourceAlpha" type="matrix" values="0 0 0 0 0 0 0 0 0 0 0 0 0 0 0 0 0 0 127 0" result="hardAlpha"/>
<feOffset dy="-1"/>
<feGaussianBlur stdDeviation="1"/>
<feComposite in2="hardAlpha" operator="arithmetic" k2="-1" k3="1"/>
<feColorMatrix type="matrix" values="0 0 0 0 1 0 0 0 0 1 0 0 0 0 1 0 0 0 0.13 0"/>
<feBlend mode="normal" in2="shape" result="effect1_innerShadow_137_4245"/>
</filter>
<filter id="filter1_i_137_4245" x="1.5" y="79.5" width="314" height="5" filterUnits="userSpaceOnUse" color-interpolation-filters="sRGB">
<feFlood flood-opacity="0" result="BackgroundImageFix"/>
<feBlend mode="normal" in="SourceGraphic" in2="BackgroundImageFix" result="shape"/>
<feColorMatrix in="SourceAlpha" type="matrix" values="0 0 0 0 0 0 0 0 0 0 0 0 0 0 0 0 0 0 127 0" result="hardAlpha"/>
<feOffset dy="2"/>
<feGaussianBlur stdDeviation="1"/>
<feComposite in2="hardAlpha" operator="arithmetic" k2="-1" k3="1"/>
<feColorMatrix type="matrix" values="0 0 0 0 0.138395 0 0 0 0 0.133717 0 0 0 0 0.133717 0 0 0 1 0"/>
<feBlend mode="normal" in2="shape" result="effect1_innerShadow_137_4245"/>
</filter>
<filter id="filter2_dddiiii_137_4245" x="215.608" y="0.529408" width="209.125" height="182.401" filterUnits="userSpaceOnUse" color-interpolation-filters="sRGB">
<feFlood flood-opacity="0" result="BackgroundImageFix"/>
<feColorMatrix in="SourceAlpha" type="matrix" values="0 0 0 0 0 0 0 0 0 0 0 0 0 0 0 0 0 0 127 0" result="hardAlpha"/>
<feOffset dx="7.11112" dy="14.2222"/>
<feGaussianBlur stdDeviation="36.0889"/>
<feComposite in2="hardAlpha" operator="out"/>
<feColorMatrix type="matrix" values="0 0 0 0 0 0 0 0 0 0 0 0 0 0 0 0 0 0 0.7 0"/>
<feBlend mode="normal" in2="BackgroundImageFix" result="effect1_dropShadow_137_4245"/>
<feColorMatrix in="SourceAlpha" type="matrix" values="0 0 0 0 0 0 0 0 0 0 0 0 0 0 0 0 0 0 127 0" result="hardAlpha"/>
<feOffset dx="-19.614" dy="-17.1622"/>
<feGaussianBlur stdDeviation="24.8889"/>
<feComposite in2="hardAlpha" operator="out"/>
<feColorMatrix type="matrix" values="0 0 0 0 1 0 0 0 0 1 0 0 0 0 1 0 0 0 0.11 0"/>
<feBlend mode="normal" in2="effect1_dropShadow_137_4245" result="effect2_dropShadow_137_4245"/>
<feColorMatrix in="SourceAlpha" type="matrix" values="0 0 0 0 0 0 0 0 0 0 0 0 0 0 0 0 0 0 127 0" result="hardAlpha"/>
<feOffset dx="-7.11112" dy="-3.55556"/>
<feGaussianBlur stdDeviation="6.22223"/>
<feComposite in2="hardAlpha" operator="out"/>
<feColorMatrix type="matrix" values="0 0 0 0 0 0 0 0 0 0 0 0 0 0 0 0 0 0 0.25 0"/>
<feBlend mode="normal" in2="effect2_dropShadow_137_4245" result="effect3_dropShadow_137_4245"/>
<feBlend mode="normal" in="SourceGraphic" in2="effect3_dropShadow_137_4245" result="shape"/>
<feColorMatrix in="SourceAlpha" type="matrix" values="0 0 0 0 0 0 0 0 0 0 0 0 0 0 0 0 0 0 127 0" result="hardAlpha"/>
<feOffset/>
<feGaussianBlur stdDeviation="65.7779"/>
<feComposite in2="hardAlpha" operator="arithmetic" k2="-1" k3="1"/>
<feColorMatrix type="matrix" values="0 0 0 0 0.262044 0 0 0 0 0.262044 0 0 0 0 0.262044 0 0 0 0.29 0"/>
<feBlend mode="normal" in2="shape" result="effect4_innerShadow_137_4245"/>
<feColorMatrix in="SourceAlpha" type="matrix" values="0 0 0 0 0 0 0 0 0 0 0 0 0 0 0 0 0 0 127 0" result="hardAlpha"/>
<feOffset dx="17.7778" dy="24.8889"/>
<feGaussianBlur stdDeviation="14.7556"/>
<feComposite in2="hardAlpha" operator="arithmetic" k2="-1" k3="1"/>
<feColorMatrix type="matrix" values="0 0 0 0 0.358773 0 0 0 0 0.358773 0 0 0 0 0.358773 0 0 0 0.25 0"/>
<feBlend mode="normal" in2="effect4_innerShadow_137_4245" result="effect5_innerShadow_137_4245"/>
<feColorMatrix in="SourceAlpha" type="matrix" values="0 0 0 0 0 0 0 0 0 0 0 0 0 0 0 0 0 0 127 0" result="hardAlpha"/>
<feOffset dx="-21.3334" dy="-21.3334"/>
<feGaussianBlur stdDeviation="42.6667"/>
<feComposite in2="hardAlpha" operator="arithmetic" k2="-1" k3="1"/>
<feColorMatrix type="matrix" values="0 0 0 0 0 0 0 0 0 0 0 0 0 0 0 0 0 0 0.37 0"/>
<feBlend mode="normal" in2="effect5_innerShadow_137_4245" result="effect6_innerShadow_137_4245"/>
<feColorMatrix in="SourceAlpha" type="matrix" values="0 0 0 0 0 0 0 0 0 0 0 0 0 0 0 0 0 0 127 0" result="hardAlpha"/>
<feOffset dx="3.55556" dy="3.55556"/>
<feComposite in2="hardAlpha" operator="arithmetic" k2="-1" k3="1"/>
<feColorMatrix type="matrix" values="0 0 0 0 1 0 0 0 0 1 0 0 0 0 1 0 0 0 0.04 0"/>
<feBlend mode="normal" in2="effect6_innerShadow_137_4245" result="effect7_innerShadow_137_4245"/>
</filter>
<filter id="filter3_iii_137_4245" x="293" y="67.4695" width="45.2" height="29.8978" filterUnits="userSpaceOnUse" color-interpolation-filters="sRGB">
<feFlood flood-opacity="0" result="BackgroundImageFix"/>
<feBlend mode="normal" in="SourceGraphic" in2="BackgroundImageFix" result="shape"/>
<feColorMatrix in="SourceAlpha" type="matrix" values="0 0 0 0 0 0 0 0 0 0 0 0 0 0 0 0 0 0 127 0" result="hardAlpha"/>
<feOffset dy="0.836751"/>
<feGaussianBlur stdDeviation="0.418375"/>
<feComposite in2="hardAlpha" operator="arithmetic" k2="-1" k3="1"/>
<feColorMatrix type="matrix" values="0 0 0 0 0 0 0 0 0 0 0 0 0 0 0 0 0 0 0.25 0"/>
<feBlend mode="normal" in2="shape" result="effect1_innerShadow_137_4245"/>
<feColorMatrix in="SourceAlpha" type="matrix" values="0 0 0 0 0 0 0 0 0 0 0 0 0 0 0 0 0 0 127 0" result="hardAlpha"/>
<feOffset dy="0.836751"/>
<feGaussianBlur stdDeviation="0.418375"/>
<feComposite in2="hardAlpha" operator="arithmetic" k2="-1" k3="1"/>
<feColorMatrix type="matrix" values="0 0 0 0 0 0 0 0 0 0 0 0 0 0 0 0 0 0 0.25 0"/>
<feBlend mode="normal" in2="effect1_innerShadow_137_4245" result="effect2_innerShadow_137_4245"/>
<feColorMatrix in="SourceAlpha" type="matrix" values="0 0 0 0 0 0 0 0 0 0 0 0 0 0 0 0 0 0 127 0" result="hardAlpha"/>
<feOffset dy="0.836751"/>
<feGaussianBlur stdDeviation="0.418375"/>
<feComposite in2="hardAlpha" operator="arithmetic" k2="-1" k3="1"/>
<feColorMatrix type="matrix" values="0 0 0 0 0 0 0 0 0 0 0 0 0 0 0 0 0 0 0.25 0"/>
<feBlend mode="normal" in2="effect2_innerShadow_137_4245" result="effect3_innerShadow_137_4245"/>
</filter>
<radialGradient id="paint0_diamond_137_4245" cx="0" cy="0" r="1" gradientUnits="userSpaceOnUse" gradientTransform="translate(315 84) rotate(180) scale(8 43.0042)">
<stop stop-color="#142333"/>
<stop offset="1" stop-color="#354556"/>
</radialGradient>
<radialGradient id="paint1_radial_137_4245" cx="0" cy="0" r="1" gradientUnits="userSpaceOnUse" gradientTransform="translate(307 85.5556) rotate(-180) scale(12 105.209)">
<stop stop-color="#142333"/>
<stop offset="1" stop-color="#2B3845"/>
</radialGradient>
</defs>
</svg>
