<svg width="355" height="183" viewBox="0 0 355 183" fill="none" xmlns="http://www.w3.org/2000/svg">
<path opacity="0.15" d="M101.912 65V58.3L102.232 58.64H100.262V58H102.632V65H101.912Z" fill="#E8F1F9"/>
<path opacity="0.15" d="M162.74 65V64.49L165.65 61.64C165.916 61.38 166.116 61.1533 166.25 60.96C166.383 60.76 166.473 60.5733 166.52 60.4C166.566 60.2267 166.59 60.0633 166.59 59.91C166.59 59.5033 166.45 59.1833 166.17 58.95C165.896 58.7167 165.49 58.6 164.95 58.6C164.536 58.6 164.17 58.6633 163.85 58.79C163.536 58.9167 163.266 59.1133 163.04 59.38L162.53 58.94C162.803 58.62 163.153 58.3733 163.58 58.2C164.006 58.0267 164.483 57.94 165.01 57.94C165.483 57.94 165.893 58.0167 166.24 58.17C166.586 58.3167 166.853 58.5333 167.04 58.82C167.233 59.1067 167.33 59.4433 167.33 59.83C167.33 60.0567 167.296 60.28 167.23 60.5C167.17 60.72 167.056 60.9533 166.89 61.2C166.73 61.44 166.493 61.7133 166.18 62.02L163.51 64.64L163.31 64.36H167.65V65H162.74Z" fill="#E8F1F9"/>
<path opacity="0.15" d="M227.137 65.06C226.631 65.06 226.151 64.98 225.697 64.82C225.251 64.6533 224.891 64.4333 224.617 64.16L224.967 63.59C225.194 63.8233 225.497 64.0167 225.877 64.17C226.264 64.3233 226.684 64.4 227.137 64.4C227.717 64.4 228.161 64.2733 228.467 64.02C228.781 63.7667 228.937 63.4267 228.937 63C228.937 62.5733 228.784 62.2333 228.477 61.98C228.177 61.7267 227.701 61.6 227.047 61.6H226.547V61.07L228.707 58.36L228.807 58.64H224.907V58H229.407V58.51L227.247 61.22L226.897 60.99H227.167C228.007 60.99 228.634 61.1767 229.047 61.55C229.467 61.9233 229.677 62.4033 229.677 62.99C229.677 63.3833 229.584 63.7367 229.397 64.05C229.211 64.3633 228.927 64.61 228.547 64.79C228.174 64.97 227.704 65.06 227.137 65.06Z" fill="#E8F1F9"/>
<path opacity="0.15" d="M287.105 63.16V62.64L290.815 58H291.615L287.935 62.64L287.545 62.52H293.175V63.16H287.105ZM291.055 65V63.16L291.075 62.52V60.9H291.775V65H291.055Z" fill="#E8F1F9"/>
<path opacity="0.15" d="M351.613 65.06C351.113 65.06 350.636 64.98 350.183 64.82C349.729 64.6533 349.369 64.4333 349.103 64.16L349.453 63.59C349.673 63.8233 349.973 64.0167 350.353 64.17C350.739 64.3233 351.156 64.4 351.603 64.4C352.196 64.4 352.646 64.27 352.953 64.01C353.266 63.7433 353.423 63.3967 353.423 62.97C353.423 62.67 353.349 62.4133 353.203 62.2C353.063 61.98 352.823 61.81 352.483 61.69C352.143 61.57 351.676 61.51 351.083 61.51H349.593L349.953 58H353.783V58.64H350.243L350.613 58.29L350.303 61.23L349.933 60.87H351.243C351.949 60.87 352.516 60.9567 352.943 61.13C353.369 61.3033 353.676 61.5467 353.863 61.86C354.056 62.1667 354.153 62.5267 354.153 62.94C354.153 63.3333 354.059 63.6933 353.873 64.02C353.686 64.34 353.406 64.5933 353.033 64.78C352.659 64.9667 352.186 65.06 351.613 65.06Z" fill="#E8F1F9"/>
<path d="M42 87V77" stroke="#424548" stroke-linecap="round"/>
<path d="M62 87V77" stroke="#424548" stroke-linecap="round"/>
<path d="M82 87V77" stroke="#424548" stroke-linecap="round"/>
<path d="M102 92V72" stroke="#424548" stroke-linecap="round"/>
<path d="M105 87V77" stroke="#424548" stroke-linecap="round"/>
<path d="M125 87V77" stroke="#424548" stroke-linecap="round"/>
<path d="M145 87V77" stroke="#424548" stroke-linecap="round"/>
<path d="M165 92V72" stroke="#424548" stroke-linecap="round"/>
<path d="M168 87V77" stroke="#424548" stroke-linecap="round"/>
<path d="M188 87V77" stroke="#424548" stroke-linecap="round"/>
<path d="M208 87V77" stroke="#424548" stroke-linecap="round"/>
<path d="M228 92V72" stroke="#424548" stroke-linecap="round"/>
<path d="M230 87V77" stroke="#424548" stroke-linecap="round"/>
<path d="M250 87V77" stroke="#424548" stroke-linecap="round"/>
<path d="M270 87V77" stroke="#424548" stroke-linecap="round"/>
<path d="M290 92V72" stroke="#424548" stroke-linecap="round"/>
<path d="M292 87V77" stroke="#424548" stroke-linecap="round"/>
<path d="M312 87V77" stroke="#424548" stroke-linecap="round"/>
<path d="M332 87V77" stroke="#424548" stroke-linecap="round"/>
<g filter="url(#filter0_i_137_5272)">
<path d="M40 83H352" stroke="#1B1E21" stroke-width="3" stroke-linecap="round"/>
</g>
<g filter="url(#filter1_i_137_5272)">
<path d="M40 82H54" stroke="#3392FF" stroke-width="3" stroke-linecap="round"/>
</g>
<g filter="url(#filter2_dddiiii_137_5272)">
<path d="M20 79.5614C20 74.9007 20 72.5703 20.9529 70.9201C21.7889 69.4721 23.1084 68.3651 24.6796 67.7934C26.4703 67.1418 28.7653 67.5468 33.3551 68.3568L48.2449 70.9844C48.9841 71.1148 49.3537 71.1801 49.7258 71.2061C50.0563 71.2292 50.3881 71.2292 50.7187 71.2061C51.0907 71.1801 51.4603 71.1148 52.1995 70.9844L67.0894 68.3568C71.6792 67.5468 73.9741 67.1418 75.7648 67.7934C77.336 68.3651 78.6555 69.4721 79.4916 70.9201C80.4444 72.5703 80.4444 74.9007 80.4444 79.5614V84.4386C80.4444 89.0993 80.4444 91.4297 79.4916 93.0799C78.6555 94.5279 77.336 95.6349 75.7648 96.2066C73.9741 96.8582 71.6792 96.4532 67.0894 95.6432L52.1995 93.0156C51.4603 92.8852 51.0907 92.8199 50.7187 92.7939C50.3881 92.7708 50.0563 92.7708 49.7258 92.7939C49.3537 92.8199 48.9841 92.8852 48.2449 93.0156L33.3551 95.6432C28.7653 96.4532 26.4703 96.8582 24.6796 96.2066C23.1084 95.6349 21.7889 94.5279 20.9529 93.0799C20 91.4297 20 89.0993 20 84.4386V79.5614Z" fill="url(#paint0_diamond_137_5272)"/>
</g>
<g filter="url(#filter3_iii_137_5272)">
<mask id="mask0_137_5272" style="mask-type:alpha" maskUnits="userSpaceOnUse" x="20" y="67" width="61" height="30">
<path d="M20 79.5614C20 74.9007 20 72.5703 20.9529 70.9201C21.7889 69.4721 23.1084 68.3651 24.6796 67.7934C26.4703 67.1418 28.7653 67.5468 33.3551 68.3568L48.2449 70.9844C48.9841 71.1148 49.3537 71.1801 49.7258 71.2061C50.0563 71.2292 50.3881 71.2292 50.7187 71.2061C51.0907 71.1801 51.4603 71.1148 52.1995 70.9844L67.0894 68.3568C71.6792 67.5468 73.9741 67.1418 75.7648 67.7934C77.336 68.3651 78.6555 69.4721 79.4916 70.9201C80.4444 72.5703 80.4444 74.9007 80.4444 79.5614V84.4386C80.4444 89.0993 80.4444 91.4297 79.4916 93.0799C78.6555 94.5279 77.336 95.6349 75.7648 96.2066C73.9741 96.8582 71.6792 96.4532 67.0894 95.6432L52.1995 93.0156C51.4603 92.8852 51.0907 92.8199 50.7187 92.7939C50.3881 92.7708 50.0563 92.7708 49.7258 92.7939C49.3537 92.8199 48.9841 92.8852 48.2449 93.0156L33.3551 95.6432C28.7653 96.4532 26.4703 96.8582 24.6796 96.2066C23.1084 95.6349 21.7889 94.5279 20.9529 93.0799C20 91.4297 20 89.0993 20 84.4386V79.5614Z" fill="url(#paint1_radial_137_5272)"/>
</mask>
<g mask="url(#mask0_137_5272)">
<line x1="28.6" y1="66" x2="28.6" y2="97.9998" stroke="#202222" stroke-width="1.2"/>
<line x1="35.5333" y1="66" x2="35.5334" y2="97.9998" stroke="#202222" stroke-width="1.2"/>
<line x1="41.9334" y1="66" x2="41.9334" y2="97.9998" stroke="#202222" stroke-width="1.2"/>
<line x1="49.8666" y1="70.2666" x2="49.8666" y2="95.1554" stroke="#202222" stroke-width="4.26667"/>
<path d="M64.8 66L64.8001 97.9998" stroke="#202222" stroke-width="1.2"/>
<path d="M58.4 66L58.4 97.9998" stroke="#202222" stroke-width="1.2"/>
<line x1="72.6" y1="66" x2="72.6" y2="97.9998" stroke="#202222" stroke-width="1.2"/>
</g>
</g>
<path d="M42.8695 59.1063C42.8695 59.3715 42.7642 59.6259 42.5766 59.8134C42.3891 60.001 42.1347 60.1063 41.8695 60.1063C41.6043 60.1063 41.3499 60.001 41.1624 59.8134C40.9749 59.6259 40.8695 59.3715 40.8695 59.1063C40.8695 58.8411 40.9749 58.5868 41.1624 58.3992C41.3499 58.2117 41.6043 58.1063 41.8695 58.1063C42.1347 58.1063 42.3891 58.2117 42.5766 58.3992C42.7642 58.5868 42.8695 58.8411 42.8695 59.1063Z" fill="#E8F1F9"/>
<path fill-rule="evenodd" clip-rule="evenodd" d="M41.855 53.3825C41.52 53.3825 41.2325 53.4825 41.03 53.6255C40.835 53.7635 40.7385 53.924 40.7105 54.0625C40.6691 54.2476 40.5568 54.4092 40.3977 54.5125C40.2386 54.6158 40.0454 54.6526 39.8594 54.615C39.6735 54.5775 39.5097 54.4685 39.4031 54.3116C39.2966 54.1546 39.2558 53.9622 39.2895 53.7755C39.403 53.2125 39.752 52.753 40.194 52.4405C40.654 52.1155 41.237 51.9325 41.855 51.9325C43.1335 51.9325 44.459 52.7875 44.459 54.1605C44.459 54.9555 43.9865 55.5985 43.3745 55.9735C43.2105 56.0739 43.0133 56.105 42.8263 56.06C42.6393 56.015 42.4779 55.8975 42.3775 55.7335C42.2771 55.5695 42.246 55.3723 42.291 55.1853C42.336 54.9983 42.4535 54.8369 42.6175 54.7365C42.9025 54.562 43.009 54.3395 43.009 54.1605C43.009 53.8735 42.6515 53.3825 41.855 53.3825Z" fill="#E8F1F9"/>
<path fill-rule="evenodd" clip-rule="evenodd" d="M41.855 55.3148C42.255 55.3148 42.58 55.6388 42.58 56.0398V56.7908C42.58 56.9831 42.5036 57.1675 42.3677 57.3035C42.2317 57.4394 42.0473 57.5158 41.855 57.5158C41.6627 57.5158 41.4783 57.4394 41.3424 57.3035C41.2064 57.1675 41.13 56.9831 41.13 56.7908V56.0398C41.13 55.6398 41.4545 55.3148 41.855 55.3148Z" fill="#E8F1F9"/>
<path fill-rule="evenodd" clip-rule="evenodd" d="M43.6195 54.9829C43.6685 55.0646 43.7009 55.1552 43.7148 55.2494C43.7288 55.3437 43.724 55.4398 43.7008 55.5322C43.6775 55.6246 43.6363 55.7115 43.5795 55.788C43.5227 55.8645 43.4513 55.929 43.3695 55.9779L42.2275 56.6614C42.0626 56.7602 41.8651 56.7894 41.6786 56.7426C41.4921 56.6958 41.3318 56.5768 41.233 56.4119C41.1342 56.2469 41.105 56.0495 41.1518 55.863C41.1986 55.6764 41.3176 55.5162 41.4825 55.4174L42.625 54.7334C42.7067 54.6845 42.7973 54.6522 42.8915 54.6383C42.9857 54.6244 43.0817 54.6292 43.1741 54.6524C43.2664 54.6756 43.3533 54.7168 43.4297 54.7736C43.5061 54.8304 43.5706 54.9012 43.6195 54.9829Z" fill="#E8F1F9"/>
<defs>
<filter id="filter0_i_137_5272" x="38.5" y="80.5" width="315" height="4" filterUnits="userSpaceOnUse" color-interpolation-filters="sRGB">
<feFlood flood-opacity="0" result="BackgroundImageFix"/>
<feBlend mode="normal" in="SourceGraphic" in2="BackgroundImageFix" result="shape"/>
<feColorMatrix in="SourceAlpha" type="matrix" values="0 0 0 0 0 0 0 0 0 0 0 0 0 0 0 0 0 0 127 0" result="hardAlpha"/>
<feOffset dy="-1"/>
<feGaussianBlur stdDeviation="1"/>
<feComposite in2="hardAlpha" operator="arithmetic" k2="-1" k3="1"/>
<feColorMatrix type="matrix" values="0 0 0 0 1 0 0 0 0 1 0 0 0 0 1 0 0 0 0.13 0"/>
<feBlend mode="normal" in2="shape" result="effect1_innerShadow_137_5272"/>
</filter>
<filter id="filter1_i_137_5272" x="38.5" y="80.5" width="17" height="5" filterUnits="userSpaceOnUse" color-interpolation-filters="sRGB">
<feFlood flood-opacity="0" result="BackgroundImageFix"/>
<feBlend mode="normal" in="SourceGraphic" in2="BackgroundImageFix" result="shape"/>
<feColorMatrix in="SourceAlpha" type="matrix" values="0 0 0 0 0 0 0 0 0 0 0 0 0 0 0 0 0 0 127 0" result="hardAlpha"/>
<feOffset dy="2"/>
<feGaussianBlur stdDeviation="1"/>
<feComposite in2="hardAlpha" operator="arithmetic" k2="-1" k3="1"/>
<feColorMatrix type="matrix" values="0 0 0 0 0.138395 0 0 0 0 0.133717 0 0 0 0 0.133717 0 0 0 1 0"/>
<feBlend mode="normal" in2="shape" result="effect1_innerShadow_137_5272"/>
</filter>
<filter id="filter2_dddiiii_137_5272" x="-49.3918" y="0.529408" width="209.125" height="182.401" filterUnits="userSpaceOnUse" color-interpolation-filters="sRGB">
<feFlood flood-opacity="0" result="BackgroundImageFix"/>
<feColorMatrix in="SourceAlpha" type="matrix" values="0 0 0 0 0 0 0 0 0 0 0 0 0 0 0 0 0 0 127 0" result="hardAlpha"/>
<feOffset dx="7.11112" dy="14.2222"/>
<feGaussianBlur stdDeviation="36.0889"/>
<feComposite in2="hardAlpha" operator="out"/>
<feColorMatrix type="matrix" values="0 0 0 0 0 0 0 0 0 0 0 0 0 0 0 0 0 0 0.7 0"/>
<feBlend mode="normal" in2="BackgroundImageFix" result="effect1_dropShadow_137_5272"/>
<feColorMatrix in="SourceAlpha" type="matrix" values="0 0 0 0 0 0 0 0 0 0 0 0 0 0 0 0 0 0 127 0" result="hardAlpha"/>
<feOffset dx="-19.614" dy="-17.1622"/>
<feGaussianBlur stdDeviation="24.8889"/>
<feComposite in2="hardAlpha" operator="out"/>
<feColorMatrix type="matrix" values="0 0 0 0 1 0 0 0 0 1 0 0 0 0 1 0 0 0 0.11 0"/>
<feBlend mode="normal" in2="effect1_dropShadow_137_5272" result="effect2_dropShadow_137_5272"/>
<feColorMatrix in="SourceAlpha" type="matrix" values="0 0 0 0 0 0 0 0 0 0 0 0 0 0 0 0 0 0 127 0" result="hardAlpha"/>
<feOffset dx="-7.11112" dy="-3.55556"/>
<feGaussianBlur stdDeviation="6.22223"/>
<feComposite in2="hardAlpha" operator="out"/>
<feColorMatrix type="matrix" values="0 0 0 0 0 0 0 0 0 0 0 0 0 0 0 0 0 0 0.25 0"/>
<feBlend mode="normal" in2="effect2_dropShadow_137_5272" result="effect3_dropShadow_137_5272"/>
<feBlend mode="normal" in="SourceGraphic" in2="effect3_dropShadow_137_5272" result="shape"/>
<feColorMatrix in="SourceAlpha" type="matrix" values="0 0 0 0 0 0 0 0 0 0 0 0 0 0 0 0 0 0 127 0" result="hardAlpha"/>
<feOffset/>
<feGaussianBlur stdDeviation="65.7779"/>
<feComposite in2="hardAlpha" operator="arithmetic" k2="-1" k3="1"/>
<feColorMatrix type="matrix" values="0 0 0 0 0.262044 0 0 0 0 0.262044 0 0 0 0 0.262044 0 0 0 0.29 0"/>
<feBlend mode="normal" in2="shape" result="effect4_innerShadow_137_5272"/>
<feColorMatrix in="SourceAlpha" type="matrix" values="0 0 0 0 0 0 0 0 0 0 0 0 0 0 0 0 0 0 127 0" result="hardAlpha"/>
<feOffset dx="17.7778" dy="24.8889"/>
<feGaussianBlur stdDeviation="14.7556"/>
<feComposite in2="hardAlpha" operator="arithmetic" k2="-1" k3="1"/>
<feColorMatrix type="matrix" values="0 0 0 0 0.358773 0 0 0 0 0.358773 0 0 0 0 0.358773 0 0 0 0.25 0"/>
<feBlend mode="normal" in2="effect4_innerShadow_137_5272" result="effect5_innerShadow_137_5272"/>
<feColorMatrix in="SourceAlpha" type="matrix" values="0 0 0 0 0 0 0 0 0 0 0 0 0 0 0 0 0 0 127 0" result="hardAlpha"/>
<feOffset dx="-21.3334" dy="-21.3334"/>
<feGaussianBlur stdDeviation="42.6667"/>
<feComposite in2="hardAlpha" operator="arithmetic" k2="-1" k3="1"/>
<feColorMatrix type="matrix" values="0 0 0 0 0 0 0 0 0 0 0 0 0 0 0 0 0 0 0.37 0"/>
<feBlend mode="normal" in2="effect5_innerShadow_137_5272" result="effect6_innerShadow_137_5272"/>
<feColorMatrix in="SourceAlpha" type="matrix" values="0 0 0 0 0 0 0 0 0 0 0 0 0 0 0 0 0 0 127 0" result="hardAlpha"/>
<feOffset dx="3.55556" dy="3.55556"/>
<feComposite in2="hardAlpha" operator="arithmetic" k2="-1" k3="1"/>
<feColorMatrix type="matrix" values="0 0 0 0 1 0 0 0 0 1 0 0 0 0 1 0 0 0 0.04 0"/>
<feBlend mode="normal" in2="effect6_innerShadow_137_5272" result="effect7_innerShadow_137_5272"/>
</filter>
<filter id="filter3_iii_137_5272" x="28" y="67.4695" width="45.2" height="29.8978" filterUnits="userSpaceOnUse" color-interpolation-filters="sRGB">
<feFlood flood-opacity="0" result="BackgroundImageFix"/>
<feBlend mode="normal" in="SourceGraphic" in2="BackgroundImageFix" result="shape"/>
<feColorMatrix in="SourceAlpha" type="matrix" values="0 0 0 0 0 0 0 0 0 0 0 0 0 0 0 0 0 0 127 0" result="hardAlpha"/>
<feOffset dy="0.836751"/>
<feGaussianBlur stdDeviation="0.418375"/>
<feComposite in2="hardAlpha" operator="arithmetic" k2="-1" k3="1"/>
<feColorMatrix type="matrix" values="0 0 0 0 0 0 0 0 0 0 0 0 0 0 0 0 0 0 0.25 0"/>
<feBlend mode="normal" in2="shape" result="effect1_innerShadow_137_5272"/>
<feColorMatrix in="SourceAlpha" type="matrix" values="0 0 0 0 0 0 0 0 0 0 0 0 0 0 0 0 0 0 127 0" result="hardAlpha"/>
<feOffset dy="0.836751"/>
<feGaussianBlur stdDeviation="0.418375"/>
<feComposite in2="hardAlpha" operator="arithmetic" k2="-1" k3="1"/>
<feColorMatrix type="matrix" values="0 0 0 0 0 0 0 0 0 0 0 0 0 0 0 0 0 0 0.25 0"/>
<feBlend mode="normal" in2="effect1_innerShadow_137_5272" result="effect2_innerShadow_137_5272"/>
<feColorMatrix in="SourceAlpha" type="matrix" values="0 0 0 0 0 0 0 0 0 0 0 0 0 0 0 0 0 0 127 0" result="hardAlpha"/>
<feOffset dy="0.836751"/>
<feGaussianBlur stdDeviation="0.418375"/>
<feComposite in2="hardAlpha" operator="arithmetic" k2="-1" k3="1"/>
<feColorMatrix type="matrix" values="0 0 0 0 0 0 0 0 0 0 0 0 0 0 0 0 0 0 0.25 0"/>
<feBlend mode="normal" in2="effect2_innerShadow_137_5272" result="effect3_innerShadow_137_5272"/>
</filter>
<radialGradient id="paint0_diamond_137_5272" cx="0" cy="0" r="1" gradientUnits="userSpaceOnUse" gradientTransform="translate(50 84) rotate(180) scale(8 43.0042)">
<stop stop-color="#142333"/>
<stop offset="1" stop-color="#354556"/>
</radialGradient>
<radialGradient id="paint1_radial_137_5272" cx="0" cy="0" r="1" gradientUnits="userSpaceOnUse" gradientTransform="translate(42 85.5556) rotate(-180) scale(12 105.209)">
<stop stop-color="#142333"/>
<stop offset="1" stop-color="#2B3845"/>
</radialGradient>
</defs>
</svg>
