<svg width="12" height="7" viewBox="0 0 12 7" fill="none" xmlns="http://www.w3.org/2000/svg">
<path d="M5.8367 1.04734L0.745948 6.00101C0.704922 6.04179 0.656216 6.07403 0.602648 6.09587C0.549079 6.11771 0.491712 6.1287 0.433866 6.12822C0.376019 6.12774 0.318843 6.11579 0.265644 6.09307C0.212446 6.07035 0.164282 6.0373 0.12394 5.99584C0.0835985 5.95438 0.0518794 5.90533 0.0306188 5.85153C0.0093582 5.79773 -0.00102189 5.74025 7.92758e-05 5.68241C0.00118044 5.62457 0.013741 5.56753 0.037034 5.51458C0.0603271 5.46162 0.0938901 5.41382 0.135781 5.37392L5.53161 0.123923C5.61329 0.0444604 5.72275 0 5.8367 0C5.95065 0 6.06011 0.0444604 6.14178 0.123923L11.5376 5.37392C11.5795 5.41382 11.6131 5.46162 11.6364 5.51458C11.6597 5.56753 11.6722 5.62457 11.6733 5.68241C11.6744 5.74025 11.664 5.79773 11.6428 5.85153C11.6215 5.90533 11.5898 5.95438 11.5495 5.99584C11.5091 6.0373 11.4609 6.07035 11.4078 6.09307C11.3546 6.11579 11.2974 6.12774 11.2395 6.12822C11.1817 6.1287 11.1243 6.11771 11.0707 6.09587C11.0172 6.07403 10.9685 6.04179 10.9274 6.00101L5.8367 1.04734Z" fill="#E8F1F9"/>
</svg>
