<svg width="12" height="7" viewBox="0 0 12 7" fill="none" xmlns="http://www.w3.org/2000/svg">
<path d="M5.8367 5.08096L10.9275 0.12729C10.9685 0.0865054 11.0172 0.0542622 11.0708 0.0324254C11.1243 0.0105891 11.1817 -0.000407696 11.2395 7.29561e-05C11.2974 0.000553608 11.3546 0.0125012 11.4078 0.0352249C11.461 0.0579486 11.5091 0.0909963 11.5495 0.132457C11.5898 0.173917 11.6215 0.222966 11.6428 0.276766C11.664 0.330565 11.6744 0.388049 11.6733 0.445886C11.6722 0.503724 11.6597 0.560769 11.6364 0.61372C11.6131 0.666672 11.5795 0.714478 11.5376 0.754373L6.14179 6.00437C6.06011 6.08384 5.95066 6.1283 5.8367 6.1283C5.72275 6.1283 5.6133 6.08384 5.53162 6.00437L0.135785 0.754373C0.093894 0.714478 0.0603323 0.666672 0.0370388 0.61372C0.0137463 0.560769 0.00118542 0.503724 8.39233e-05 0.445886C-0.00101662 0.388049 0.00936317 0.330565 0.0306234 0.276766C0.0518847 0.222966 0.0836029 0.173917 0.123944 0.132457C0.164287 0.0909963 0.212451 0.0579486 0.265649 0.0352249C0.318848 0.0125012 0.376024 0.000553608 0.43387 7.29561e-05C0.491716 -0.000407696 0.549085 0.0105891 0.602653 0.0324254C0.656221 0.0542622 0.704927 0.0865054 0.745953 0.12729L5.8367 5.08096Z" fill="#E8F1F9"/>
</svg>
