<svg width="287" height="48" viewBox="0 0 287 48" fill="none" xmlns="http://www.w3.org/2000/svg">
<path d="M174.937 48V0H181.353V12.0538H201.028C206.674 12.0538 208.799 16.6457 209.155 18.9417V48H202.311V18.9417H181.353V48H174.937Z" fill="#777D82"/>
<path d="M137.94 0.215247V48H144.569V33.5785H151.627L164.244 48H171.73L156.545 30.7803L171.73 12.0538H164.244L151.627 26.2601H144.569V0.215247H137.94Z" fill="#777D82"/>
<path d="M0 3.2287L14.9702 48H19.889L31.8651 13.7758L43.4136 48H48.3323L63.7303 3.2287H56.8867L46.1937 35.0852L35.5007 3.2287H28.6572L17.7504 35.0852L6.62966 3.2287H0Z" fill="#777D82"/>
<path fill-rule="evenodd" clip-rule="evenodd" d="M68.4352 18.7265V40.4664C69.0055 42.9776 71.1298 48 75.0648 48H96.237C98.233 47.426 102.268 45.2879 102.439 41.3274C102.61 37.3668 102.51 24.1794 102.439 18.0807C102.082 16.1435 100.343 12.226 96.237 12.0538C92.1309 11.8816 79.6985 11.9821 73.9955 12.0538C72.1421 12.6278 68.4352 14.7659 68.4352 18.7265ZM74.851 18.9417V40.8969H96.0231V18.9417H74.851Z" fill="#777D82"/>
<path d="M134.518 18.7265V12.0538H114.843C110.737 12.0538 108.712 16.9327 108.213 19.3722V48H114.843V18.7265H134.518Z" fill="#777D82"/>
<path d="M213.004 12.0538V41.7578C213.575 43.8386 215.87 48 220.49 48H241.448C243.373 47.2825 247.222 44.9004 247.222 41.1121V12.0538H240.592V41.1121H220.49V12.0538H213.004Z" fill="#777D82"/>
<path fill-rule="evenodd" clip-rule="evenodd" d="M253.21 48V0.215247H259.626V12.0538H279.729C284.006 12.0538 286.358 16.2152 287 18.296V41.1121C287 45.0726 283.293 47.3543 281.44 48H253.21ZM259.626 41.1121V19.8027H280.798V41.1121H259.626Z" fill="#777D82"/>
</svg>
